#N canvas 915 61 880 863 12;
#X text 272 366 cetak;
#X floatatom 275 290 5 0 0 0 - - - 0;
#X obj 275 120 vsl 19 162 20 2000 0 0 empty empty Kecepatan 0 -9 0 12 #c6ffc7 #000000 #000000 0 1;
#X text 303 176 put/Vslider;
#X obj 141 347 bng 19 250 50 0 empty empty hooouuu! 0 -10 0 12 #00faff #faff00 #000000;
#X text 168 350 bang!;
#X obj 141 284 tgl 19 0 empty empty empty 0 -10 0 12 #fcfcfc #000000 #000000 0 1;
#X obj 141 312 metro 1000;
#X obj 274 345 print;
#X floatatom 141 422 5 0 0 0 - - - 0;
#X obj 141 470 select 0 1 2 3 4, f 22;
#X obj 141 504 bng 19 250 50 0 empty empty empty 0 -10 0 12 #fcfcfc #000000 #000000;
#X obj 171 504 bng 19 250 50 0 empty empty empty 0 -10 0 12 #fcfcfc #000000 #000000;
#X obj 201 504 bng 19 250 50 0 empty empty empty 0 -10 0 12 #fcfcfc #000000 #000000;
#X obj 231 504 bng 19 250 50 0 empty empty empty 0 -10 0 12 #fcfcfc #000000 #000000;
#X obj 261 504 bng 19 250 50 0 empty empty empty 0 -10 0 12 #fcfcfc #000000 #000000;
#X text 183 424 Kotak angka;
#X msg 275 81 200;
#X text 220 315 Berapa milidetik;
#X text 268 394 Hitung;
#X text 313 470 Pilih;
#X text 214 49 DATA;
#X text 174 446 Hitung 0 - 4 (5 pukulan);
#X obj 66 743 gakoInstr;
#X obj 625 121 vsl 19 162 0 1 0 0 empty empty volume 0 -9 0 12 #c6ffc7 #000000 #000000 0 1;
#X floatatom 625 299 5 0 0 0 - - - 0;
#N canvas 3273 -224 450 447 ingatan 0;
#X text 18 390 Unduh perpustakaan: help \, cari ekstra \, install di folder extra;
#X text 105 61 Ctl + 1;
#X obj 173 61 metro;
#X text 106 92 Ctl + 2;
#X text 230 63 Obyek;
#X text 232 92 Pesan;
#X text 107 124 Ctl + 3;
#X floatatom 174 123 5 0 0 0 - - - 0;
#X text 230 125 Kotak angka;
#X text 108 158 Ctl + 5;
#X text 169 156 comment;
#X text 231 155 Komentar;
#X msg 173 92;
#X text 54 199 Ctl + Shift + B;
#X obj 185 198 bng 19 250 50 0 empty empty empty 0 -10 0 12 #fcfcfc #000000 #000000;
#X text 236 198 Bang;
#X obj 185 232 tgl 19 0 empty empty empty 0 -10 0 12 #fcfcfc #000000 #000000 0 1;
#X text 54 235 Ctl + Shift + T;
#X text 227 240 Toggle;
#X text 124 359 Ctl + E;
#X text 193 366 Kunci/Sunting;
#X text 138 33 TERABASAN DASAR;
#X text 42 309 Ctl + C;
#X text 114 310 Salin;
#X text 42 331 Ctl + V;
#X text 115 329 Tempel;
#X text 205 308 Ctl + D;
#X text 280 308 Duplikat;
#X text 205 327 Ctl + S;
#X text 280 326 Simpan;
#X text 284 241 (Y/T);
#X text 191 351 Kursor/Tangan;
#X obj 18 270 hsl 162 19 0 127 0 0 empty empty empty -2 -10 0 12 #fcfcfc #000000 #000000 0 1;
#X text 198 270 Slider: Di menu "put";
#X text 227 184 (Lampu);
#X text 228 226 (Saklar);
#X text 193 289 Klik kanan untuk properties;
#X restore 33 25 pd ingatan;
#X floatatom 194 609 5 0 0 0 - - - 0;
#X obj 79 573 i;
#X floatatom 97 548 5 0 0 0 - - - 0;
#X floatatom 156 548 5 0 0 0 - - - 0;
#X floatatom 212 547 5 0 0 0 - - - 0;
#X floatatom 269 547 5 0 0 0 - - - 0;
#X floatatom 327 548 5 0 0 0 - - - 0;
#X obj 138 573 i;
#X obj 194 572 i;
#X obj 251 571 i;
#X obj 309 571 i;
#X obj 141 393 cyclone/counter 4;
#X floatatom 405 315 5 0 0 0 - - - 0;
#X text 403 296 Potong hitungan;
#X obj 141 445 + 0;
#X floatatom 403 381 5 0 0 0 - - - 0;
#X text 400 363 Nada mulai;
#X text 13 55 v 0.0.2 2023-01-30;
#X obj 565 746 gakoInstr;
#X obj 392 658 gakoNgempat;
#X floatatom 466 625 5 0 0 0 - - - 0;
#X text 430 426 1 Tambah gakoInstr untuk poly (2 instrumen);
#X text 463 606 Daun berapa;
#X text 430 441 2 Tambah [gakoNgempat] + kotak angka daun;
#X text 67 710 Polos;
#X text 564 707 Sangsih;
#X text 39 491 SEKUENSER;
#X obj 30 427 gakoHitung;
#X floatatom 30 455 5 0 0 0 - - - 0;
#X obj 438 20 loadbang;
#X msg 624 84 0.3;
#X text 514 62 volume - velocity - amplitude;
#X text 313 753 /GaKo-Synth/nada noNada vel noInstr dua(0)/pengumbang(1)/pengisep(2) pan (-1 \, 1): kiri \, kanan;
#X text 416 707 SUARA;
#X obj 220 714 hsl 162 19 -1 1 0 0 empty empty empty -2 -10 0 12 #c6ffc7 #000000 #000000 0 1;
#X obj 675 716 hsl 162 19 -1 1 0 0 empty empty empty -2 -10 0 12 #c6ffc7 #000000 #000000 0 1;
#X text 430 457 3 Ganti: noInstr \, ngumbang/isep \, pan (slider);
#X connect 1 0 8 0;
#X connect 2 0 1 0;
#X connect 2 0 7 1;
#X connect 4 0 38 0;
#X connect 4 0 54 0;
#X connect 6 0 7 0;
#X connect 7 0 4 0;
#X connect 9 0 41 0;
#X connect 10 0 11 0;
#X connect 10 1 12 0;
#X connect 10 2 13 0;
#X connect 10 3 14 0;
#X connect 10 4 15 0;
#X connect 11 0 28 0;
#X connect 12 0 34 0;
#X connect 13 0 35 0;
#X connect 14 0 36 0;
#X connect 15 0 37 0;
#X connect 17 0 2 0;
#X connect 24 0 25 0;
#X connect 25 0 45 1;
#X connect 25 0 23 1;
#X connect 27 0 46 0;
#X connect 28 0 27 0;
#X connect 29 0 28 1;
#X connect 30 0 34 1;
#X connect 31 0 35 1;
#X connect 32 0 36 1;
#X connect 33 0 37 1;
#X connect 34 0 27 0;
#X connect 35 0 27 0;
#X connect 36 0 27 0;
#X connect 37 0 27 0;
#X connect 38 0 9 0;
#X connect 39 0 38 4;
#X connect 39 0 54 2;
#X connect 41 0 10 0;
#X connect 42 0 41 1;
#X connect 46 0 23 0;
#X connect 46 1 45 0;
#X connect 47 0 46 1;
#X connect 54 0 55 0;
#X connect 56 0 57 0;
#X connect 56 0 17 0;
#X connect 57 0 24 0;
#X connect 61 0 23 4;
#X connect 62 0 45 4;
