#N canvas 609 8 880 922 12;
#X text 272 366 cetak;
#X floatatom 275 290 5 0 0 0 - - - 0;
#X obj 275 120 vsl 19 162 20 2000 0 0 empty empty Kecepatan 0 -9 0 12 #c6ffc7 #000000 #000000 0 1;
#X text 303 176 put/Vslider;
#X obj 141 347 bng 19 250 50 0 empty empty hooouuu! 0 -10 0 12 #00faff #faff00 #000000;
#X text 168 350 bang!;
#X obj 141 284 tgl 19 0 empty empty empty 0 -10 0 12 #fcfcfc #000000 #000000 0 1;
#X obj 141 312 metro 1000;
#X obj 274 345 print;
#X floatatom 141 422 5 0 0 0 - - - 0;
#X obj 141 470 select 0 1 2 3 4, f 22;
#X obj 141 504 bng 19 250 50 0 empty empty empty 0 -10 0 12 #fcfcfc #000000 #000000;
#X obj 171 504 bng 19 250 50 0 empty empty empty 0 -10 0 12 #fcfcfc #000000 #000000;
#X obj 201 504 bng 19 250 50 0 empty empty empty 0 -10 0 12 #fcfcfc #000000 #000000;
#X obj 231 504 bng 19 250 50 0 empty empty empty 0 -10 0 12 #fcfcfc #000000 #000000;
#X obj 261 504 bng 19 250 50 0 empty empty empty 0 -10 0 12 #fcfcfc #000000 #000000;
#X text 183 424 Kotak angka;
#X msg 275 81 200;
#X text 220 315 Berapa milidetik;
#X text 268 394 Hitung;
#X text 313 470 Pilih;
#X text 214 49 DATA;
#X text 174 446 Hitung 0 - 4 (5 pukulan);
#X obj 67 835 gakoInstr;
#X obj 625 121 vsl 19 162 0 1 0 0 empty empty volume 0 -9 0 12 #c6ffc7 #000000 #000000 0 1;
#X floatatom 625 299 5 0 0 0 - - - 0;
#N canvas 3273 -224 450 447 ingatan 0;
#X text 18 390 Unduh perpustakaan: help \, cari ekstra \, install di folder extra;
#X text 105 61 Ctl + 1;
#X obj 173 61 metro;
#X text 106 92 Ctl + 2;
#X text 230 63 Obyek;
#X text 232 92 Pesan;
#X text 107 124 Ctl + 3;
#X floatatom 174 123 5 0 0 0 - - - 0;
#X text 230 125 Kotak angka;
#X text 108 158 Ctl + 5;
#X text 169 156 comment;
#X text 231 155 Komentar;
#X msg 173 92;
#X text 54 199 Ctl + Shift + B;
#X obj 185 198 bng 19 250 50 0 empty empty empty 0 -10 0 12 #fcfcfc #000000 #000000;
#X text 236 198 Bang;
#X obj 185 232 tgl 19 0 empty empty empty 0 -10 0 12 #fcfcfc #000000 #000000 0 1;
#X text 54 235 Ctl + Shift + T;
#X text 227 240 Toggle;
#X text 124 359 Ctl + E;
#X text 193 366 Kunci/Sunting;
#X text 138 33 TERABASAN DASAR;
#X text 42 309 Ctl + C;
#X text 114 310 Salin;
#X text 42 331 Ctl + V;
#X text 115 329 Tempel;
#X text 205 308 Ctl + D;
#X text 280 308 Duplikat;
#X text 205 327 Ctl + S;
#X text 280 326 Simpan;
#X text 284 241 (Y/T);
#X text 191 351 Kursor/Tangan;
#X obj 18 270 hsl 162 19 0 127 0 0 empty empty empty -2 -10 0 12 #fcfcfc #000000 #000000 0 1;
#X text 198 270 Slider: Di menu "put";
#X text 227 184 (Lampu);
#X text 228 226 (Saklar);
#X text 193 289 Klik kanan untuk properties;
#X restore 33 25 pd ingatan;
#X floatatom 195 701 5 0 0 0 - - - 0;
#X obj 79 661 i;
#X floatatom 97 636 5 0 0 0 - - - 0;
#X floatatom 156 636 5 0 0 0 - - - 0;
#X floatatom 212 635 5 0 0 0 - - - 0;
#X floatatom 269 635 5 0 0 0 - - - 0;
#X floatatom 327 636 5 0 0 0 - - - 0;
#X obj 138 661 i;
#X obj 194 660 i;
#X obj 251 659 i;
#X obj 309 659 i;
#X obj 141 393 cyclone/counter 4;
#X floatatom 405 315 5 0 0 0 - - - 0;
#X text 403 296 Potong hitungan;
#X obj 141 445 + 0;
#X floatatom 403 381 5 0 0 0 - - - 0;
#X text 400 363 Nada mulai;
#X text 13 55 v 0.0.2 2023-01-30;
#X obj 566 838 gakoInstr;
#X obj 393 750 gakoNgempat;
#X floatatom 467 717 5 0 0 0 - - - 0;
#X text 464 698 Daun berapa;
#X text 153 753 Polos;
#X text 675 742 Sangsih;
#X text 39 491 SEKUENSER;
#X obj 30 427 gakoHitung;
#X floatatom 30 455 5 0 0 0 - - - 0;
#X obj 438 20 loadbang;
#X msg 624 84 0.3;
#X text 514 62 volume - velocity - amplitude;
#X text 417 799 SUARA;
#X obj 221 806 hsl 162 19 -1 1 0 0 empty empty empty -2 -10 0 12 #c6ffc7 #000000 #000000 0 1;
#X obj 676 808 hsl 162 19 -1 1 0 0 empty empty empty -2 -10 0 12 #c6ffc7 #000000 #000000 0 1;
#X msg 475 566 0 1 3 5 6;
#X msg 421 515 2 1 3 6 7;
#X msg 449 541 7 8 6 4 0;
#X obj 99 600 unpack 0 0 0 0 0, f 33;
#X text 314 845 /GaKo-Synth/nada noNada vel noInstr dua(0)/pengumbang(1)/pengisep(2) pan (-1 \, 1): kiri \, kanan;
#X text 431 423 1 Simpan pola di "list" dan unpack (buka bungkus);
#X text 431 438 2 Buat preset;
#X obj 30 739 loadbang;
#X obj 30 763 bng 19 250 50 0 empty empty empty 0 -10 0 12 #fcfcfc #000000 #000000;
#X msg 30 796 0;
#X msg 685 772 1;
#X msg 61 796 1;
#X msg 718 770 2;
#X msg 96 798 -1;
#X msg 753 771 1;
#X msg 467 668 10;
#X obj 584 481 bng 19 250 50 0 empty empty empty 0 -10 0 12 #fcfcfc #000000 #000000;
#N canvas 2821 -331 1031 976 kotek 0;
#X obj 326 61 inlet;
#X floatatom 563 468 5 0 0 0 - - - 0;
#X obj 563 408 t b i;
#X obj 307 537 +;
#X floatatom 326 137 5 0 0 0 - - - 0;
#X obj 306 711 outlet;
#X obj 782 677 outlet;
#X text 258 710 Polos;
#X text 804 656 Sangsih;
#X obj 509 217 tgl 15 0 empty empty empty 17 7 0 10 #fcfcc8 #000000 #000000 0 1;
#X obj 530 217 tgl 15 0 empty empty empty 17 7 0 10 #fcfcc8 #000000 #000000 0 1;
#X obj 552 217 tgl 15 0 empty empty empty 17 7 0 10 #fcfcc8 #000000 #000000 0 1;
#X obj 573 217 tgl 15 0 empty empty empty 17 7 0 10 #fcfcc8 #000000 #000000 0 1;
#X obj 594 217 tgl 15 0 empty empty empty 17 7 0 10 #fcfcc8 #000000 #000000 0 1;
#X obj 615 217 tgl 15 0 empty empty empty 17 7 0 10 #fcfcc8 #000000 #000000 0 1;
#X obj 637 217 tgl 15 0 empty empty empty 17 7 0 10 #fcfcc8 #000000 #000000 0 1;
#X obj 658 217 tgl 15 0 empty empty empty 17 7 0 10 #fcfcc8 #000000 #000000 0 1;
#X obj 520 138 sel 0 1 2 3 4 5 6 7;
#X obj 280 62 inlet;
#X text 331 41 Nada;
#X text 267 42 ketukan;
#X obj 470 252 spigot;
#X obj 491 277 spigot;
#X obj 513 300 spigot;
#X obj 534 328 spigot;
#X obj 555 254 spigot;
#X obj 576 282 spigot;
#X obj 598 306 spigot;
#X obj 619 330 spigot;
#X obj 563 433 random 2;
#X obj 783 402 t b i;
#X obj 729 216 tgl 15 0 empty empty empty 17 7 0 10 #fcfcc8 #000000 #000000 0 1;
#X obj 750 216 tgl 15 0 empty empty empty 17 7 0 10 #fcfcc8 #000000 #000000 0 1;
#X obj 772 216 tgl 15 0 empty empty empty 17 7 0 10 #fcfcc8 #000000 #000000 0 1;
#X obj 793 216 tgl 15 0 empty empty empty 17 7 0 10 #fcfcc8 #000000 #000000 0 1;
#X obj 814 216 tgl 15 0 empty empty empty 17 7 0 10 #fcfcc8 #000000 #000000 0 1;
#X obj 835 216 tgl 15 0 empty empty empty 17 7 0 10 #fcfcc8 #000000 #000000 0 1;
#X obj 857 216 tgl 15 0 empty empty empty 17 7 0 10 #fcfcc8 #000000 #000000 0 1;
#X obj 878 216 tgl 15 0 empty empty empty 17 7 0 10 #fcfcc8 #000000 #000000 0 1;
#X obj 690 251 spigot;
#X obj 711 276 spigot;
#X obj 733 299 spigot;
#X obj 754 327 spigot;
#X obj 775 253 spigot;
#X obj 796 281 spigot;
#X obj 818 305 spigot;
#X obj 839 329 spigot;
#X obj 783 427 random 2;
#X msg 470 432 0;
#X obj 306 618 expr if ($f1 >= 10 \, $f1 - 2 \, $f1);
#X text 251 645 Kalau lebih tinggi dari batasan instrument (9) \, dia bermain nada di bawah 9, f 24;
#X obj 729 101 == 0;
#X obj 750 123 == 0;
#X obj 772 145 == 0;
#X obj 793 167 == 0;
#X obj 814 104 == 0;
#X obj 835 126 == 0;
#X obj 857 148 == 0;
#X obj 878 170 == 0;
#X obj 783 520 +;
#X obj 783 458 + 2;
#X obj 783 610 expr if ($f1 >= 10 \, 8 \, $f1);
#X text 565 201 Polos;
#X text 778 199 Sangsih;
#X obj 544 821 tgl 15 0 empty empty empty 17 7 0 10 #fcfcfc #000000 #000000 0 1;
#X obj 565 821 tgl 15 0 empty empty empty 17 7 0 10 #fcfcfc #000000 #000000 0 1;
#X obj 587 821 tgl 15 0 empty empty empty 17 7 0 10 #fcfcfc #000000 #000000 0 1;
#X obj 608 821 tgl 15 0 empty empty empty 17 7 0 10 #fcfcfc #000000 #000000 0 1;
#X obj 629 821 tgl 15 0 empty empty empty 17 7 0 10 #fcfcfc #000000 #000000 0 1;
#X obj 650 821 tgl 15 0 empty empty empty 17 7 0 10 #fcfcfc #000000 #000000 0 1;
#X obj 672 821 tgl 15 0 empty empty empty 17 7 0 10 #fcfcfc #000000 #000000 0 1;
#X obj 693 821 tgl 15 0 empty empty empty 17 7 0 10 #fcfcfc #000000 #000000 0 1;
#X obj 535 693 +;
#X obj 533 665 t b i;
#X obj 535 716 > 1;
#X obj 583 692 +;
#X obj 581 664 t b i;
#X obj 583 715 > 1;
#X obj 632 689 +;
#X obj 630 661 t b i;
#X obj 632 712 > 1;
#X obj 681 690 +;
#X obj 679 662 t b i;
#X obj 681 713 > 1;
#X obj 533 772 +;
#X obj 531 744 t b i;
#X obj 533 795 > 1;
#X obj 581 771 +;
#X obj 579 743 t b i;
#X obj 581 794 > 1;
#X obj 630 768 +;
#X obj 628 740 t b i;
#X obj 630 791 > 1;
#X obj 679 769 +;
#X obj 677 741 t b i;
#X obj 679 792 > 1;
#X obj 505 852 spigot;
#X obj 526 877 spigot;
#X obj 548 900 spigot;
#X obj 569 928 spigot;
#X obj 590 854 spigot;
#X obj 611 882 spigot;
#X obj 633 906 spigot;
#X obj 654 930 spigot;
#X obj 264 884 moses 1;
#X obj 264 860 i;
#X obj 276 968 moses 1;
#X obj 276 944 i;
#X obj 308 1033 moses 1;
#X obj 308 1009 i;
#X obj 328 825 moses 1;
#X obj 328 801 i;
#X obj 352 899 moses 1;
#X obj 352 875 i;
#X obj 381 976 moses 1;
#X obj 381 952 i;
#X obj 413 1039 moses 1;
#X obj 413 1015 i;
#X msg 496 768 3;
#X msg 263 910 3;
#X msg 274 994 3;
#X msg 307 1060 3;
#X msg 413 1064 3;
#X msg 381 1000 3;
#X msg 353 925 3;
#X msg 328 847 3;
#X floatatom 693 1002 5 0 0 0 - - - 0;
#X floatatom 783 491 5 0 0 0 - - - 0;
#X obj 581 30 r hid_L1;
#X obj 654 30 r hid_L2;
#X obj 728 30 r hid_R1;
#X obj 796 30 r hid_R2;
#N canvas 832 80 455 556 selectKetukan 0;
#X obj 191 28 sel 1;
#X obj 44 29 sel 1;
#X obj 193 123 r hid_X;
#X obj 258 122 r hid_O;
#X msg 193 154 1;
#X msg 258 153 0;
#X obj 44 80 - 1;
#X obj 191 77 + 1;
#X obj 44 54 i;
#X obj 191 52 i;
#X obj 97 150 clip 0 7;
#X obj 97 182 spigot;
#X obj 117 76 t b i;
#X obj 98 113 i;
#X obj 45 278 == 0;
#X obj 84 278 == 1;
#X obj 122 278 == 2;
#X obj 161 278 == 3;
#X obj 200 277 == 4;
#X obj 239 277 == 5;
#X obj 277 277 == 6;
#X obj 316 277 == 7;
#N canvas 1220 58 524 558 toggleSelect 0;
#X obj 24 24 inlet;
#X obj 99 27 inlet;
#X msg 24 173 color \$1 \$2 \$3;
#X obj 24 145 pack 0 22 22, f 20;
#X msg 24 116 44;
#X msg 58 117 5;
#X obj 24 90 sel 1;
#X obj 99 116 spigot;
#X obj 24 213 outlet;
#X text 24 234 Mengganti warna dan lewat nilai;
#X text 20 6 Select;
#X text 100 6 Nilai;
#X connect 0 0 7 1;
#X connect 0 0 6 0;
#X connect 1 0 7 0;
#X connect 2 0 8 0;
#X connect 3 0 2 0;
#X connect 4 0 3 0;
#X connect 5 0 3 0;
#X connect 6 0 4 0;
#X connect 6 1 5 0;
#X connect 7 0 8 0;
#X restore 82 334 pd toggleSelect;
#N canvas 1220 58 524 558 toggleSelect 0;
#X obj 24 24 inlet;
#X obj 99 27 inlet;
#X msg 24 173 color \$1 \$2 \$3;
#X obj 24 145 pack 0 22 22, f 20;
#X msg 24 116 44;
#X msg 58 117 5;
#X obj 24 90 sel 1;
#X obj 99 116 spigot;
#X obj 24 213 outlet;
#X text 24 234 Mengganti warna dan lewat nilai;
#X text 20 6 Select;
#X text 100 6 Nilai;
#X connect 0 0 7 1;
#X connect 0 0 6 0;
#X connect 1 0 7 0;
#X connect 2 0 8 0;
#X connect 3 0 2 0;
#X connect 4 0 3 0;
#X connect 5 0 3 0;
#X connect 6 0 4 0;
#X connect 6 1 5 0;
#X connect 7 0 8 0;
#X restore 43 308 pd toggleSelect;
#N canvas 1220 58 524 558 toggleSelect 0;
#X obj 24 24 inlet;
#X obj 99 27 inlet;
#X msg 24 173 color \$1 \$2 \$3;
#X obj 24 145 pack 0 22 22, f 20;
#X msg 24 116 44;
#X msg 58 117 5;
#X obj 24 90 sel 1;
#X obj 99 116 spigot;
#X obj 24 213 outlet;
#X text 24 234 Mengganti warna dan lewat nilai;
#X text 20 6 Select;
#X text 100 6 Nilai;
#X connect 0 0 7 1;
#X connect 0 0 6 0;
#X connect 1 0 7 0;
#X connect 2 0 8 0;
#X connect 3 0 2 0;
#X connect 4 0 3 0;
#X connect 5 0 3 0;
#X connect 6 0 4 0;
#X connect 6 1 5 0;
#X connect 7 0 8 0;
#X restore 144 385 pd toggleSelect;
#N canvas 1220 58 524 558 toggleSelect 0;
#X obj 24 24 inlet;
#X obj 99 27 inlet;
#X msg 24 173 color \$1 \$2 \$3;
#X obj 24 145 pack 0 22 22, f 20;
#X msg 24 116 44;
#X msg 58 117 5;
#X obj 24 90 sel 1;
#X obj 99 116 spigot;
#X obj 24 213 outlet;
#X text 24 234 Mengganti warna dan lewat nilai;
#X text 20 6 Select;
#X text 100 6 Nilai;
#X connect 0 0 7 1;
#X connect 0 0 6 0;
#X connect 1 0 7 0;
#X connect 2 0 8 0;
#X connect 3 0 2 0;
#X connect 4 0 3 0;
#X connect 5 0 3 0;
#X connect 6 0 4 0;
#X connect 6 1 5 0;
#X connect 7 0 8 0;
#X restore 105 359 pd toggleSelect;
#N canvas 1220 58 524 558 toggleSelect 0;
#X obj 24 24 inlet;
#X obj 99 27 inlet;
#X msg 24 173 color \$1 \$2 \$3;
#X obj 24 145 pack 0 22 22, f 20;
#X msg 24 116 44;
#X msg 58 117 5;
#X obj 24 90 sel 1;
#X obj 99 116 spigot;
#X obj 24 213 outlet;
#X text 24 234 Mengganti warna dan lewat nilai;
#X text 20 6 Select;
#X text 100 6 Nilai;
#X connect 0 0 7 1;
#X connect 0 0 6 0;
#X connect 1 0 7 0;
#X connect 2 0 8 0;
#X connect 3 0 2 0;
#X connect 4 0 3 0;
#X connect 5 0 3 0;
#X connect 6 0 4 0;
#X connect 6 1 5 0;
#X connect 7 0 8 0;
#X restore 69 424 pd toggleSelect;
#N canvas 1220 58 270 278 toggleSelect 0;
#X obj 24 24 inlet;
#X obj 99 27 inlet;
#X msg 24 173 color \$1 \$2 \$3;
#X obj 24 145 pack 0 22 22, f 20;
#X msg 24 116 44;
#X msg 58 117 5;
#X obj 24 90 sel 1;
#X obj 99 116 spigot;
#X obj 24 213 outlet;
#X text 24 234 Mengganti warna dan lewat nilai;
#X text 20 6 Select;
#X text 100 6 Nilai;
#X connect 0 0 7 1;
#X connect 0 0 6 0;
#X connect 1 0 7 0;
#X connect 2 0 8 0;
#X connect 3 0 2 0;
#X connect 4 0 3 0;
#X connect 5 0 3 0;
#X connect 6 0 4 0;
#X connect 6 1 5 0;
#X connect 7 0 8 0;
#X restore 30 398 pd toggleSelect;
#N canvas 1220 58 524 558 toggleSelect 0;
#X obj 24 24 inlet;
#X obj 99 27 inlet;
#X msg 24 173 color \$1 \$2 \$3;
#X obj 24 145 pack 0 22 22, f 20;
#X msg 24 116 44;
#X msg 58 117 5;
#X obj 24 90 sel 1;
#X obj 99 116 spigot;
#X obj 24 213 outlet;
#X text 24 234 Mengganti warna dan lewat nilai;
#X text 20 6 Select;
#X text 100 6 Nilai;
#X connect 0 0 7 1;
#X connect 0 0 6 0;
#X connect 1 0 7 0;
#X connect 2 0 8 0;
#X connect 3 0 2 0;
#X connect 4 0 3 0;
#X connect 5 0 3 0;
#X connect 6 0 4 0;
#X connect 6 1 5 0;
#X connect 7 0 8 0;
#X restore 131 475 pd toggleSelect;
#N canvas 1220 58 524 558 toggleSelect 0;
#X obj 24 24 inlet;
#X obj 99 27 inlet;
#X msg 24 173 color \$1 \$2 \$3;
#X obj 24 145 pack 0 22 22, f 20;
#X msg 24 116 44;
#X msg 58 117 5;
#X obj 24 90 sel 1;
#X obj 99 116 spigot;
#X obj 24 213 outlet;
#X text 24 234 Mengganti warna dan lewat nilai;
#X text 20 6 Select;
#X text 100 6 Nilai;
#X connect 0 0 7 1;
#X connect 0 0 6 0;
#X connect 1 0 7 0;
#X connect 2 0 8 0;
#X connect 3 0 2 0;
#X connect 4 0 3 0;
#X connect 5 0 3 0;
#X connect 6 0 4 0;
#X connect 6 1 5 0;
#X connect 7 0 8 0;
#X restore 92 449 pd toggleSelect;
#X obj 45 5 inlet;
#X obj 117 7 inlet;
#X text 12 22 -;
#X obj 190 3 inlet;
#X text 237 28 +;
#X text 121 43 Hold;
#X obj 19 501 outlet;
#X obj 70 502 outlet;
#X obj 121 502 outlet;
#X obj 172 502 outlet;
#X obj 223 503 outlet;
#X obj 274 503 outlet;
#X obj 325 502 outlet;
#X obj 376 502 outlet;
#X connect 0 0 9 0;
#X connect 1 0 8 0;
#X connect 2 0 4 0;
#X connect 3 0 5 0;
#X connect 4 0 22 1;
#X connect 4 0 23 1;
#X connect 4 0 25 1;
#X connect 4 0 24 1;
#X connect 4 0 27 1;
#X connect 4 0 26 1;
#X connect 4 0 29 1;
#X connect 4 0 28 1;
#X connect 5 0 22 1;
#X connect 5 0 23 1;
#X connect 5 0 25 1;
#X connect 5 0 24 1;
#X connect 5 0 27 1;
#X connect 5 0 26 1;
#X connect 5 0 29 1;
#X connect 5 0 28 1;
#X connect 6 0 10 0;
#X connect 7 0 10 0;
#X connect 8 0 6 0;
#X connect 9 0 7 0;
#X connect 10 0 11 0;
#X connect 11 0 8 1;
#X connect 11 0 9 1;
#X connect 11 0 13 1;
#X connect 11 0 14 0;
#X connect 11 0 15 0;
#X connect 11 0 16 0;
#X connect 11 0 17 0;
#X connect 11 0 18 0;
#X connect 11 0 19 0;
#X connect 11 0 20 0;
#X connect 11 0 21 0;
#X connect 12 0 13 0;
#X connect 12 1 11 1;
#X connect 12 1 22 0;
#X connect 12 1 23 0;
#X connect 12 1 25 0;
#X connect 12 1 24 0;
#X connect 12 1 27 0;
#X connect 12 1 26 0;
#X connect 12 1 29 0;
#X connect 12 1 28 0;
#X connect 13 0 10 0;
#X connect 14 0 23 0;
#X connect 15 0 22 0;
#X connect 16 0 25 0;
#X connect 17 0 24 0;
#X connect 18 0 27 0;
#X connect 19 0 26 0;
#X connect 20 0 29 0;
#X connect 21 0 28 0;
#X connect 22 0 37 0;
#X connect 23 0 36 0;
#X connect 24 0 39 0;
#X connect 25 0 38 0;
#X connect 26 0 41 0;
#X connect 27 0 40 0;
#X connect 28 0 43 0;
#X connect 29 0 42 0;
#X connect 30 0 1 0;
#X connect 31 0 12 0;
#X connect 33 0 0 0;
#X restore 601 63 pd selectKetukan;
#N canvas 832 80 805 861 selectKetukan 0;
#X obj 191 28 sel 1;
#X obj 44 29 sel 1;
#X obj 193 123 r hid_X;
#X obj 258 122 r hid_O;
#X msg 193 154 1;
#X msg 258 153 0;
#X obj 44 80 - 1;
#X obj 191 77 + 1;
#X obj 44 54 i;
#X obj 191 52 i;
#X obj 97 150 clip 0 7;
#X obj 97 182 spigot;
#X obj 117 76 t b i;
#X obj 98 113 i;
#X obj 45 278 == 0;
#X obj 84 278 == 1;
#X obj 122 278 == 2;
#X obj 161 278 == 3;
#X obj 200 277 == 4;
#X obj 239 277 == 5;
#X obj 277 277 == 6;
#X obj 316 277 == 7;
#N canvas 1220 58 524 558 toggleSelect 0;
#X obj 24 24 inlet;
#X obj 99 27 inlet;
#X msg 24 173 color \$1 \$2 \$3;
#X obj 24 145 pack 0 22 22, f 20;
#X msg 24 116 44;
#X msg 58 117 5;
#X obj 24 90 sel 1;
#X obj 99 116 spigot;
#X obj 24 213 outlet;
#X text 24 234 Mengganti warna dan lewat nilai;
#X text 20 6 Select;
#X text 100 6 Nilai;
#X connect 0 0 7 1;
#X connect 0 0 6 0;
#X connect 1 0 7 0;
#X connect 2 0 8 0;
#X connect 3 0 2 0;
#X connect 4 0 3 0;
#X connect 5 0 3 0;
#X connect 6 0 4 0;
#X connect 6 1 5 0;
#X connect 7 0 8 0;
#X restore 82 334 pd toggleSelect;
#N canvas 1220 58 524 558 toggleSelect 0;
#X obj 24 24 inlet;
#X obj 99 27 inlet;
#X msg 24 173 color \$1 \$2 \$3;
#X obj 24 145 pack 0 22 22, f 20;
#X msg 24 116 44;
#X msg 58 117 5;
#X obj 24 90 sel 1;
#X obj 99 116 spigot;
#X obj 24 213 outlet;
#X text 24 234 Mengganti warna dan lewat nilai;
#X text 20 6 Select;
#X text 100 6 Nilai;
#X connect 0 0 7 1;
#X connect 0 0 6 0;
#X connect 1 0 7 0;
#X connect 2 0 8 0;
#X connect 3 0 2 0;
#X connect 4 0 3 0;
#X connect 5 0 3 0;
#X connect 6 0 4 0;
#X connect 6 1 5 0;
#X connect 7 0 8 0;
#X restore 43 308 pd toggleSelect;
#N canvas 1220 58 524 558 toggleSelect 0;
#X obj 24 24 inlet;
#X obj 99 27 inlet;
#X msg 24 173 color \$1 \$2 \$3;
#X obj 24 145 pack 0 22 22, f 20;
#X msg 24 116 44;
#X msg 58 117 5;
#X obj 24 90 sel 1;
#X obj 99 116 spigot;
#X obj 24 213 outlet;
#X text 24 234 Mengganti warna dan lewat nilai;
#X text 20 6 Select;
#X text 100 6 Nilai;
#X connect 0 0 7 1;
#X connect 0 0 6 0;
#X connect 1 0 7 0;
#X connect 2 0 8 0;
#X connect 3 0 2 0;
#X connect 4 0 3 0;
#X connect 5 0 3 0;
#X connect 6 0 4 0;
#X connect 6 1 5 0;
#X connect 7 0 8 0;
#X restore 144 385 pd toggleSelect;
#N canvas 1220 58 524 558 toggleSelect 0;
#X obj 24 24 inlet;
#X obj 99 27 inlet;
#X msg 24 173 color \$1 \$2 \$3;
#X obj 24 145 pack 0 22 22, f 20;
#X msg 24 116 44;
#X msg 58 117 5;
#X obj 24 90 sel 1;
#X obj 99 116 spigot;
#X obj 24 213 outlet;
#X text 24 234 Mengganti warna dan lewat nilai;
#X text 20 6 Select;
#X text 100 6 Nilai;
#X connect 0 0 7 1;
#X connect 0 0 6 0;
#X connect 1 0 7 0;
#X connect 2 0 8 0;
#X connect 3 0 2 0;
#X connect 4 0 3 0;
#X connect 5 0 3 0;
#X connect 6 0 4 0;
#X connect 6 1 5 0;
#X connect 7 0 8 0;
#X restore 105 359 pd toggleSelect;
#N canvas 1220 58 524 558 toggleSelect 0;
#X obj 24 24 inlet;
#X obj 99 27 inlet;
#X msg 24 173 color \$1 \$2 \$3;
#X obj 24 145 pack 0 22 22, f 20;
#X msg 24 116 44;
#X msg 58 117 5;
#X obj 24 90 sel 1;
#X obj 99 116 spigot;
#X obj 24 213 outlet;
#X text 24 234 Mengganti warna dan lewat nilai;
#X text 20 6 Select;
#X text 100 6 Nilai;
#X connect 0 0 7 1;
#X connect 0 0 6 0;
#X connect 1 0 7 0;
#X connect 2 0 8 0;
#X connect 3 0 2 0;
#X connect 4 0 3 0;
#X connect 5 0 3 0;
#X connect 6 0 4 0;
#X connect 6 1 5 0;
#X connect 7 0 8 0;
#X restore 69 424 pd toggleSelect;
#N canvas 1220 58 524 558 toggleSelect 0;
#X obj 24 24 inlet;
#X obj 99 27 inlet;
#X msg 24 173 color \$1 \$2 \$3;
#X obj 24 145 pack 0 22 22, f 20;
#X msg 24 116 44;
#X msg 58 117 5;
#X obj 24 90 sel 1;
#X obj 99 116 spigot;
#X obj 24 213 outlet;
#X text 24 234 Mengganti warna dan lewat nilai;
#X text 20 6 Select;
#X text 100 6 Nilai;
#X connect 0 0 7 1;
#X connect 0 0 6 0;
#X connect 1 0 7 0;
#X connect 2 0 8 0;
#X connect 3 0 2 0;
#X connect 4 0 3 0;
#X connect 5 0 3 0;
#X connect 6 0 4 0;
#X connect 6 1 5 0;
#X connect 7 0 8 0;
#X restore 30 398 pd toggleSelect;
#N canvas 1220 58 524 558 toggleSelect 0;
#X obj 24 24 inlet;
#X obj 99 27 inlet;
#X msg 24 173 color \$1 \$2 \$3;
#X obj 24 145 pack 0 22 22, f 20;
#X msg 24 116 44;
#X msg 58 117 5;
#X obj 24 90 sel 1;
#X obj 99 116 spigot;
#X obj 24 213 outlet;
#X text 24 234 Mengganti warna dan lewat nilai;
#X text 20 6 Select;
#X text 100 6 Nilai;
#X connect 0 0 7 1;
#X connect 0 0 6 0;
#X connect 1 0 7 0;
#X connect 2 0 8 0;
#X connect 3 0 2 0;
#X connect 4 0 3 0;
#X connect 5 0 3 0;
#X connect 6 0 4 0;
#X connect 6 1 5 0;
#X connect 7 0 8 0;
#X restore 131 475 pd toggleSelect;
#N canvas 1220 58 524 558 toggleSelect 0;
#X obj 24 24 inlet;
#X obj 99 27 inlet;
#X msg 24 173 color \$1 \$2 \$3;
#X obj 24 145 pack 0 22 22, f 20;
#X msg 24 116 44;
#X msg 58 117 5;
#X obj 24 90 sel 1;
#X obj 99 116 spigot;
#X obj 24 213 outlet;
#X text 24 234 Mengganti warna dan lewat nilai;
#X text 20 6 Select;
#X text 100 6 Nilai;
#X connect 0 0 7 1;
#X connect 0 0 6 0;
#X connect 1 0 7 0;
#X connect 2 0 8 0;
#X connect 3 0 2 0;
#X connect 4 0 3 0;
#X connect 5 0 3 0;
#X connect 6 0 4 0;
#X connect 6 1 5 0;
#X connect 7 0 8 0;
#X restore 92 449 pd toggleSelect;
#X obj 45 5 inlet;
#X obj 117 7 inlet;
#X text 12 22 -;
#X obj 190 3 inlet;
#X text 237 28 +;
#X text 121 43 Hold;
#X obj 19 501 outlet;
#X obj 70 502 outlet;
#X obj 121 502 outlet;
#X obj 172 502 outlet;
#X obj 223 503 outlet;
#X obj 274 503 outlet;
#X obj 325 502 outlet;
#X obj 376 502 outlet;
#X connect 0 0 9 0;
#X connect 1 0 8 0;
#X connect 2 0 4 0;
#X connect 3 0 5 0;
#X connect 4 0 22 1;
#X connect 4 0 23 1;
#X connect 4 0 25 1;
#X connect 4 0 24 1;
#X connect 4 0 27 1;
#X connect 4 0 26 1;
#X connect 4 0 29 1;
#X connect 4 0 28 1;
#X connect 5 0 22 1;
#X connect 5 0 23 1;
#X connect 5 0 25 1;
#X connect 5 0 24 1;
#X connect 5 0 27 1;
#X connect 5 0 26 1;
#X connect 5 0 29 1;
#X connect 5 0 28 1;
#X connect 6 0 10 0;
#X connect 7 0 10 0;
#X connect 8 0 6 0;
#X connect 9 0 7 0;
#X connect 10 0 11 0;
#X connect 11 0 8 1;
#X connect 11 0 9 1;
#X connect 11 0 13 1;
#X connect 11 0 14 0;
#X connect 11 0 15 0;
#X connect 11 0 16 0;
#X connect 11 0 17 0;
#X connect 11 0 18 0;
#X connect 11 0 19 0;
#X connect 11 0 20 0;
#X connect 11 0 21 0;
#X connect 12 0 13 0;
#X connect 12 1 11 1;
#X connect 12 1 22 0;
#X connect 12 1 23 0;
#X connect 12 1 25 0;
#X connect 12 1 24 0;
#X connect 12 1 27 0;
#X connect 12 1 26 0;
#X connect 12 1 29 0;
#X connect 12 1 28 0;
#X connect 13 0 10 0;
#X connect 14 0 23 0;
#X connect 15 0 22 0;
#X connect 16 0 25 0;
#X connect 17 0 24 0;
#X connect 18 0 27 0;
#X connect 19 0 26 0;
#X connect 20 0 29 0;
#X connect 21 0 28 0;
#X connect 22 0 37 0;
#X connect 23 0 36 0;
#X connect 24 0 39 0;
#X connect 25 0 38 0;
#X connect 26 0 41 0;
#X connect 27 0 40 0;
#X connect 28 0 43 0;
#X connect 29 0 42 0;
#X connect 30 0 1 0;
#X connect 31 0 12 0;
#X connect 33 0 0 0;
#X restore 731 62 pd selectKetukan;
#X connect 0 0 4 0;
#X connect 1 0 3 0;
#X connect 1 0 105 1;
#X connect 1 0 107 1;
#X connect 1 0 109 1;
#X connect 1 0 111 1;
#X connect 1 0 113 1;
#X connect 1 0 115 1;
#X connect 1 0 117 1;
#X connect 2 0 29 0;
#X connect 3 0 49 0;
#X connect 4 0 3 1;
#X connect 4 0 59 1;
#X connect 9 0 21 1;
#X connect 9 0 51 0;
#X connect 9 0 72 0;
#X connect 10 0 22 1;
#X connect 10 0 52 0;
#X connect 10 0 75 0;
#X connect 11 0 23 1;
#X connect 11 0 53 0;
#X connect 11 0 78 0;
#X connect 12 0 24 1;
#X connect 12 0 54 0;
#X connect 12 0 81 0;
#X connect 13 0 25 1;
#X connect 13 0 55 0;
#X connect 13 0 84 0;
#X connect 14 0 26 1;
#X connect 14 0 56 0;
#X connect 14 0 87 0;
#X connect 15 0 27 1;
#X connect 15 0 57 0;
#X connect 15 0 90 0;
#X connect 16 0 28 1;
#X connect 16 0 58 0;
#X connect 16 0 93 0;
#X connect 17 0 21 0;
#X connect 17 0 39 0;
#X connect 17 1 22 0;
#X connect 17 1 40 0;
#X connect 17 1 105 0;
#X connect 17 2 23 0;
#X connect 17 2 41 0;
#X connect 17 2 107 0;
#X connect 17 3 24 0;
#X connect 17 3 42 0;
#X connect 17 3 109 0;
#X connect 17 4 25 0;
#X connect 17 4 43 0;
#X connect 17 4 111 0;
#X connect 17 5 26 0;
#X connect 17 5 44 0;
#X connect 17 5 113 0;
#X connect 17 6 27 0;
#X connect 17 6 45 0;
#X connect 17 6 115 0;
#X connect 17 7 28 0;
#X connect 17 7 46 0;
#X connect 17 7 117 0;
#X connect 18 0 17 0;
#X connect 21 0 48 0;
#X connect 21 0 118 0;
#X connect 22 0 2 0;
#X connect 23 0 2 0;
#X connect 24 0 2 0;
#X connect 25 0 2 0;
#X connect 26 0 2 0;
#X connect 27 0 2 0;
#X connect 28 0 2 0;
#X connect 29 0 1 0;
#X connect 30 0 47 0;
#X connect 31 0 39 1;
#X connect 31 0 73 0;
#X connect 32 0 40 1;
#X connect 32 0 76 0;
#X connect 33 0 41 1;
#X connect 33 0 79 0;
#X connect 34 0 42 1;
#X connect 34 0 82 0;
#X connect 35 0 43 1;
#X connect 35 0 85 0;
#X connect 36 0 44 1;
#X connect 36 0 88 0;
#X connect 37 0 45 1;
#X connect 37 0 91 0;
#X connect 38 0 46 1;
#X connect 38 0 94 0;
#X connect 39 0 30 0;
#X connect 40 0 30 0;
#X connect 41 0 30 0;
#X connect 42 0 30 0;
#X connect 43 0 30 0;
#X connect 44 0 30 0;
#X connect 45 0 30 0;
#X connect 46 0 30 0;
#X connect 47 0 60 0;
#X connect 48 0 1 0;
#X connect 49 0 5 0;
#X connect 51 0 31 0;
#X connect 52 0 32 0;
#X connect 53 0 33 0;
#X connect 54 0 34 0;
#X connect 55 0 35 0;
#X connect 56 0 36 0;
#X connect 57 0 37 0;
#X connect 58 0 38 0;
#X connect 59 0 61 0;
#X connect 60 0 127 0;
#X connect 61 0 6 0;
#X connect 64 0 96 1;
#X connect 65 0 97 1;
#X connect 66 0 98 1;
#X connect 67 0 99 1;
#X connect 68 0 100 1;
#X connect 69 0 101 1;
#X connect 70 0 102 1;
#X connect 71 0 103 1;
#X connect 72 0 74 0;
#X connect 73 0 72 0;
#X connect 73 1 72 1;
#X connect 74 0 64 0;
#X connect 75 0 77 0;
#X connect 76 0 75 0;
#X connect 76 1 75 1;
#X connect 77 0 65 0;
#X connect 78 0 80 0;
#X connect 79 0 78 0;
#X connect 79 1 78 1;
#X connect 80 0 66 0;
#X connect 81 0 83 0;
#X connect 82 0 81 0;
#X connect 82 1 81 1;
#X connect 83 0 67 0;
#X connect 84 0 86 0;
#X connect 85 0 84 0;
#X connect 85 1 84 1;
#X connect 86 0 68 0;
#X connect 87 0 89 0;
#X connect 88 0 87 0;
#X connect 88 1 87 1;
#X connect 89 0 69 0;
#X connect 90 0 92 0;
#X connect 91 0 90 0;
#X connect 91 1 90 1;
#X connect 92 0 70 0;
#X connect 93 0 95 0;
#X connect 94 0 93 0;
#X connect 94 1 93 1;
#X connect 95 0 71 0;
#X connect 96 0 126 0;
#X connect 97 0 126 0;
#X connect 98 0 126 0;
#X connect 99 0 126 0;
#X connect 100 0 126 0;
#X connect 101 0 126 0;
#X connect 102 0 126 0;
#X connect 103 0 126 0;
#X connect 104 0 119 0;
#X connect 104 1 97 0;
#X connect 105 0 104 0;
#X connect 106 0 120 0;
#X connect 106 1 98 0;
#X connect 107 0 106 0;
#X connect 108 0 121 0;
#X connect 108 1 99 0;
#X connect 109 0 108 0;
#X connect 110 0 125 0;
#X connect 110 1 100 0;
#X connect 111 0 110 0;
#X connect 112 0 124 0;
#X connect 112 1 101 0;
#X connect 113 0 112 0;
#X connect 114 0 123 0;
#X connect 114 1 102 0;
#X connect 115 0 114 0;
#X connect 116 0 122 0;
#X connect 116 1 103 0;
#X connect 117 0 116 0;
#X connect 118 0 96 0;
#X connect 119 0 97 0;
#X connect 120 0 98 0;
#X connect 121 0 99 0;
#X connect 122 0 103 0;
#X connect 123 0 102 0;
#X connect 124 0 101 0;
#X connect 125 0 100 0;
#X connect 126 0 127 0;
#X connect 127 0 59 0;
#X connect 128 0 132 0;
#X connect 128 0 133 0;
#X connect 129 0 132 1;
#X connect 130 0 132 2;
#X connect 130 0 133 2;
#X connect 131 0 133 1;
#X connect 132 0 9 0;
#X connect 132 1 10 0;
#X connect 132 2 11 0;
#X connect 132 3 12 0;
#X connect 132 4 13 0;
#X connect 132 5 14 0;
#X connect 132 6 15 0;
#X connect 132 7 16 0;
#X connect 133 0 31 0;
#X connect 133 1 32 0;
#X connect 133 2 33 0;
#X connect 133 3 34 0;
#X connect 133 4 35 0;
#X connect 133 5 36 0;
#X connect 133 6 37 0;
#X connect 133 7 38 0;
#X coords 0 -1 1 1 400 40 1 500 195;
#X restore 1331 736 pd kotek;
#X connect 1 0 8 0;
#X connect 2 0 1 0;
#X connect 2 0 7 1;
#X connect 4 0 38 0;
#X connect 4 0 52 0;
#X connect 6 0 7 0;
#X connect 7 0 4 0;
#X connect 9 0 41 0;
#X connect 10 0 11 0;
#X connect 10 1 12 0;
#X connect 10 2 13 0;
#X connect 10 3 14 0;
#X connect 10 4 15 0;
#X connect 11 0 28 0;
#X connect 12 0 34 0;
#X connect 13 0 35 0;
#X connect 14 0 36 0;
#X connect 15 0 37 0;
#X connect 17 0 2 0;
#X connect 24 0 25 0;
#X connect 25 0 45 1;
#X connect 25 0 23 1;
#X connect 27 0 46 0;
#X connect 28 0 27 0;
#X connect 29 0 28 1;
#X connect 30 0 34 1;
#X connect 31 0 35 1;
#X connect 32 0 36 1;
#X connect 33 0 37 1;
#X connect 34 0 27 0;
#X connect 35 0 27 0;
#X connect 36 0 27 0;
#X connect 37 0 27 0;
#X connect 38 0 9 0;
#X connect 39 0 38 4;
#X connect 39 0 52 2;
#X connect 41 0 10 0;
#X connect 42 0 41 1;
#X connect 46 0 23 0;
#X connect 46 1 45 0;
#X connect 47 0 46 1;
#X connect 52 0 53 0;
#X connect 54 0 55 0;
#X connect 54 0 17 0;
#X connect 54 0 76 0;
#X connect 55 0 24 0;
#X connect 58 0 23 4;
#X connect 59 0 45 4;
#X connect 60 0 63 0;
#X connect 61 0 63 0;
#X connect 62 0 63 0;
#X connect 63 0 29 0;
#X connect 63 1 30 0;
#X connect 63 2 31 0;
#X connect 63 3 32 0;
#X connect 63 4 33 0;
#X connect 67 0 68 0;
#X connect 68 0 69 0;
#X connect 68 0 70 0;
#X connect 68 0 71 0;
#X connect 68 0 72 0;
#X connect 68 0 73 0;
#X connect 68 0 74 0;
#X connect 69 0 23 2;
#X connect 70 0 45 2;
#X connect 71 0 23 3;
#X connect 72 0 45 3;
#X connect 73 0 58 0;
#X connect 74 0 59 0;
#X connect 75 0 47 0;
#X connect 76 0 61 0;
#X connect 76 0 75 0;
