#N canvas 131 0 887 922 12;
#X text 272 366 cetak;
#X floatatom 275 290 5 0 0 0 - - - 0;
#X obj 275 120 vsl 19 162 20 2000 0 0 empty empty Kecepatan 0 -9 0 12 #c6ffc7 #000000 #000000 0 1;
#X text 303 176 put/Vslider;
#X obj 141 347 bng 19 250 50 0 empty empty hooouuu! 0 -10 0 12 #00faff #faff00 #000000;
#X text 168 350 bang!;
#X obj 141 284 tgl 19 0 empty empty empty 0 -10 0 12 #fcfcfc #000000 #000000 0 1;
#X obj 141 312 metro 1000;
#X obj 274 345 print;
#X floatatom 141 422 5 0 0 0 - - - 0;
#X obj 141 470 select 0 1 2 3 4, f 22;
#X obj 141 504 bng 19 250 50 0 empty empty empty 0 -10 0 12 #fcfcfc #000000 #000000;
#X obj 171 504 bng 19 250 50 0 empty empty empty 0 -10 0 12 #fcfcfc #000000 #000000;
#X obj 201 504 bng 19 250 50 0 empty empty empty 0 -10 0 12 #fcfcfc #000000 #000000;
#X obj 231 504 bng 19 250 50 0 empty empty empty 0 -10 0 12 #fcfcfc #000000 #000000;
#X obj 261 504 bng 19 250 50 0 empty empty empty 0 -10 0 12 #fcfcfc #000000 #000000;
#X text 183 424 Kotak angka;
#X msg 275 81 200;
#X text 220 315 Berapa milidetik;
#X text 268 394 Hitung;
#X text 313 470 Pilih;
#X text 214 49 DATA;
#X text 174 446 Hitung 0 - 4 (5 pukulan);
#X obj 67 835 gakoInstr;
#X obj 625 121 vsl 19 162 0 1 0 0 empty empty volume 0 -9 0 12 #c6ffc7 #000000 #000000 0 1;
#X floatatom 625 299 5 0 0 0 - - - 0;
#N canvas 3273 -224 450 447 ingatan 0;
#X text 18 390 Unduh perpustakaan: help \, cari ekstra \, install di folder extra;
#X text 105 61 Ctl + 1;
#X obj 173 61 metro;
#X text 106 92 Ctl + 2;
#X text 230 63 Obyek;
#X text 232 92 Pesan;
#X text 107 124 Ctl + 3;
#X floatatom 174 123 5 0 0 0 - - - 0;
#X text 230 125 Kotak angka;
#X text 108 158 Ctl + 5;
#X text 169 156 comment;
#X text 231 155 Komentar;
#X msg 173 92;
#X text 54 199 Ctl + Shift + B;
#X obj 185 198 bng 19 250 50 0 empty empty empty 0 -10 0 12 #fcfcfc #000000 #000000;
#X text 236 198 Bang;
#X obj 185 232 tgl 19 0 empty empty empty 0 -10 0 12 #fcfcfc #000000 #000000 0 1;
#X text 54 235 Ctl + Shift + T;
#X text 227 240 Toggle;
#X text 124 359 Ctl + E;
#X text 193 366 Kunci/Sunting;
#X text 138 33 TERABASAN DASAR;
#X text 42 309 Ctl + C;
#X text 114 310 Salin;
#X text 42 331 Ctl + V;
#X text 115 329 Tempel;
#X text 205 308 Ctl + D;
#X text 280 308 Duplikat;
#X text 205 327 Ctl + S;
#X text 280 326 Simpan;
#X text 284 241 (Y/T);
#X text 191 351 Kursor/Tangan;
#X obj 18 270 hsl 162 19 0 127 0 0 empty empty empty -2 -10 0 12 #fcfcfc #000000 #000000 0 1;
#X text 198 270 Slider: Di menu "put";
#X text 227 184 (Lampu);
#X text 228 226 (Saklar);
#X text 193 289 Klik kanan untuk properties;
#X restore 33 25 pd ingatan;
#X floatatom 202 645 5 0 0 0 - - - 0;
#X obj 86 605 i;
#X floatatom 104 580 5 0 0 0 - - - 0;
#X floatatom 163 580 5 0 0 0 - - - 0;
#X floatatom 219 579 5 0 0 0 - - - 0;
#X floatatom 276 579 5 0 0 0 - - - 0;
#X floatatom 334 580 5 0 0 0 - - - 0;
#X obj 145 605 i;
#X obj 201 604 i;
#X obj 258 603 i;
#X obj 316 603 i;
#X obj 141 393 cyclone/counter 4;
#X floatatom 405 315 5 0 0 0 - - - 0;
#X text 403 296 Potong hitungan;
#X obj 141 445 + 0;
#X floatatom 403 381 5 0 0 0 - - - 0;
#X text 400 363 Nada mulai;
#X text 13 55 v 0.0.2 2023-01-30;
#X obj 566 838 gakoInstr;
#X obj 714 691 gakoNgempat;
#X floatatom 788 658 5 0 0 0 - - - 0;
#X text 785 639 Daun berapa;
#X text 153 753 Polos;
#X text 675 742 Sangsih;
#X text 39 491 SEKUENSER;
#X obj 30 427 gakoHitung;
#X floatatom 30 455 5 0 0 0 - - - 0;
#X obj 438 20 loadbang;
#X msg 624 84 0.3;
#X text 514 62 volume - velocity - amplitude;
#X text 417 799 SUARA;
#X obj 221 806 hsl 162 19 -1 1 0 0 empty empty empty -2 -10 0 12 #c6ffc7 #000000 #000000 0 1;
#X obj 676 808 hsl 162 19 -1 1 0 0 empty empty empty -2 -10 0 12 #c6ffc7 #000000 #000000 0 1;
#X msg 475 566 0 1 3 5 6;
#X msg 421 515 2 1 3 6 7;
#X msg 449 541 7 8 6 4 0;
#X obj 106 544 unpack 0 0 0 0 0, f 33;
#X text 431 423 1 Simpan pola di "list" dan unpack (buka bungkus);
#X text 431 438 2 Buat preset;
#X obj 30 739 loadbang;
#X obj 30 763 bng 19 250 50 0 empty empty empty 0 -10 0 12 #fcfcfc #000000 #000000;
#X msg 30 796 0;
#X msg 685 772 1;
#X msg 61 796 1;
#X msg 718 770 2;
#X msg 96 798 -1;
#X msg 753 771 1;
#X msg 584 529 10;
#X obj 584 481 bng 19 250 50 0 empty empty empty 0 -10 0 12 #fcfcfc #000000 #000000;
#X obj 161 691 gakoKotek;
#X text 315 845 /GaKo-Synth/nada noNada vel noInstr dua(0)/pengumbang(1)/pengisep(2) pan (-1 \, 1): kiri \, kanan;
#X connect 1 0 8 0;
#X connect 2 0 1 0;
#X connect 2 0 7 1;
#X connect 4 0 38 0;
#X connect 4 0 52 0;
#X connect 6 0 7 0;
#X connect 7 0 4 0;
#X connect 9 0 41 0;
#X connect 9 0 76 0;
#X connect 10 0 11 0;
#X connect 10 1 12 0;
#X connect 10 2 13 0;
#X connect 10 3 14 0;
#X connect 10 4 15 0;
#X connect 11 0 28 0;
#X connect 12 0 34 0;
#X connect 13 0 35 0;
#X connect 14 0 36 0;
#X connect 15 0 37 0;
#X connect 17 0 2 0;
#X connect 24 0 25 0;
#X connect 25 0 45 1;
#X connect 25 0 23 1;
#X connect 27 0 46 0;
#X connect 27 0 76 1;
#X connect 28 0 27 0;
#X connect 29 0 28 1;
#X connect 30 0 34 1;
#X connect 31 0 35 1;
#X connect 32 0 36 1;
#X connect 33 0 37 1;
#X connect 34 0 27 0;
#X connect 35 0 27 0;
#X connect 36 0 27 0;
#X connect 37 0 27 0;
#X connect 38 0 9 0;
#X connect 39 0 38 4;
#X connect 39 0 52 2;
#X connect 41 0 10 0;
#X connect 42 0 41 1;
#X connect 47 0 46 1;
#X connect 47 0 76 2;
#X connect 52 0 53 0;
#X connect 54 0 55 0;
#X connect 54 0 17 0;
#X connect 54 0 75 0;
#X connect 55 0 24 0;
#X connect 58 0 23 4;
#X connect 59 0 45 4;
#X connect 60 0 63 0;
#X connect 61 0 63 0;
#X connect 62 0 63 0;
#X connect 63 0 29 0;
#X connect 63 1 30 0;
#X connect 63 2 31 0;
#X connect 63 3 32 0;
#X connect 63 4 33 0;
#X connect 66 0 67 0;
#X connect 67 0 68 0;
#X connect 67 0 69 0;
#X connect 67 0 70 0;
#X connect 67 0 71 0;
#X connect 67 0 72 0;
#X connect 67 0 73 0;
#X connect 68 0 23 2;
#X connect 69 0 45 2;
#X connect 70 0 23 3;
#X connect 71 0 45 3;
#X connect 72 0 58 0;
#X connect 73 0 59 0;
#X connect 74 0 47 0;
#X connect 75 0 61 0;
#X connect 75 0 74 0;
#X connect 76 0 23 0;
#X connect 76 1 45 0;
