#N canvas 1118 317 475 462 12;
#X obj 108 38 inlet;
#X floatatom 65 128 5 0 0 0 - - - 0;
#X floatatom 154 128 5 0 0 0 - - - 0;
#X obj 108 98 moses 7;
#X obj 175 290 + 3;
#X obj 65 368 outlet;
#X obj 154 367 outlet;
#X text 27 345 Polos;
#X text 176 346 Sangsih;
#X text 88 8 Ngempat;
#X obj 166 39 inlet;
#X text 18 37 Nada berapa;
#X text 214 39 Berapa nada;
#X text 212 58 (kalau gong kebyar \, masuk angka 10);
#X obj 166 68 - 2;
#X obj 214 225 > 0;
#X obj 175 250 spigot;
#X obj 175 199 t i i;
#X obj 230 252 sel 0;
#X msg 230 276 0;
#X text 185 172 Jika nada > 0 \, ngempat;
#X text 42 417 v 0.0.2 2023-01-30;
#X connect 0 0 3 0;
#X connect 1 0 5 0;
#X connect 1 0 17 0;
#X connect 2 0 6 0;
#X connect 2 0 5 0;
#X connect 3 0 1 0;
#X connect 3 1 2 0;
#X connect 4 0 6 0;
#X connect 10 0 14 0;
#X connect 14 0 3 1;
#X connect 15 0 16 1;
#X connect 15 0 18 0;
#X connect 16 0 4 0;
#X connect 17 0 16 0;
#X connect 17 1 15 0;
#X connect 18 0 19 0;
#X connect 19 0 2 0;
