#N canvas 763 276 450 300 12;
#X obj 134 52 inlet;
#X obj 134 88 i;
#X obj 170 87 + 1;
#X obj 134 215 outlet;
#X msg 167 169 0;
#X obj 229 52 inlet;
#X text 151 7 GakoHitung;
#X text 97 52 Bang;
#X text 279 50 Sampai angka berapa;
#X obj 167 121 >= 3;
#X obj 184 52 inlet;
#X text 162 32 Angka sekarang;
#X obj 167 144 sel 1;
#X text 189 217 v. 0.1 2023-01-25;
#X connect 0 0 1 0;
#X connect 1 0 2 0;
#X connect 1 0 3 0;
#X connect 1 0 9 0;
#X connect 2 0 1 1;
#X connect 4 0 1 1;
#X connect 5 0 9 1;
#X connect 9 0 12 0;
#X connect 10 0 1 1;
#X connect 12 0 4 0;
