#N canvas 586 237 541 391 12;
#X floatatom 52 136 5 0 0 0 - - - 0;
#X floatatom 98 136 5 0 1 0 - - - 0;
#X floatatom 144 136 5 0 0 0 - - - 0;
#X text 98 115 vel;
#X text 131 114 noInstr;
#X obj 52 31 inlet;
#X obj 127 29 inlet;
#X obj 210 31 inlet;
#X obj 412 29 cnv 15 100 60 empty empty empty 20 12 0 14 #e0e0e0 #404040 0;
#X text 142 57 gakoInstr;
#X obj 278 31 inlet;
#X floatatom 191 136 5 0 2 0 - - - 0;
#X text 180 103 ngumbang;
#X text 307 103 0: pengumbang + pengisep;
#X text 308 118 1: pengumbang;
#X text 309 134 2: pengisep;
#X obj 52 188 pack 0 0 0 0 0, f 25;
#X obj 350 32 inlet;
#X floatatom 241 136 5 -1 1 2 - - - 0;
#X text 245 112 pan;
#X text 51 80 Terima dan kirim pesan2 instrumen;
#X text 335 172 1 = kanan;
#X text 293 160 Pan: -1 = kiri;
#X msg 52 292 set GaKo-Synth nada \, \$1 \$2 \$3 \$4 \$5;
#X obj 52 318 oscformat;
#X obj 52 345 netsend -u -b;
#X msg 78 263 connect 127.0.0.1 57120;
#X text 68 245 Kirim ke SuperCollider melewati OSC (port 57120);
#X obj 79 226 loadbang;
#X obj 167 348 outlet;
#X text 405 358 v 0.2 2023-01-25;
#X text 194 118 ngisep;
#X text 51 115 nada;
#X connect 0 0 16 0;
#X connect 1 0 16 1;
#X connect 2 0 16 2;
#X connect 5 0 0 0;
#X connect 6 0 1 0;
#X connect 7 0 2 0;
#X connect 10 0 11 0;
#X connect 11 0 16 3;
#X connect 16 0 23 0;
#X connect 16 0 29 0;
#X connect 17 0 18 0;
#X connect 18 0 16 4;
#X connect 23 0 24 0;
#X connect 24 0 25 0;
#X connect 26 0 25 0;
#X connect 28 0 26 0;
#X coords 0 -1 1 1 245 60 1 40 100;
