#N canvas 2585 -414 1167 668 12;
#X text 851 290 cetak;
#X floatatom 853 233 5 0 0 0 - - - 0;
#X obj 853 63 vsl 19 162 20 2000 0 0 empty empty Kecepatan 0 -9 0 12 #c6ffc7 #000000 #000000 0 1;
#X text 881 119 put/Vslider;
#X obj 411 176 bng 19 250 50 0 empty empty hooouuu! 0 -10 0 12 #00faff #faff00 #000000;
#X text 438 179 bang!;
#X obj 411 113 tgl 19 0 empty empty empty 0 -10 0 12 #fcfcfc #000000 #000000 0 1;
#X obj 411 141 metro 1000;
#X obj 988 52 vsl 19 162 0 1 0 0 empty empty volume 0 -9 0 12 #c6ffc7 #000000 #000000 0 1;
#X obj 853 269 print;
#X floatatom 66 523 5 0 0 0 - - - 0;
#X obj 412 269 select 0 1 2 3 4, f 22;
#X obj 412 299 bng 19 250 50 0 empty empty empty 0 -10 0 12 #fcfcfc #000000 #000000;
#X obj 442 298 bng 19 250 50 0 empty empty empty 0 -10 0 12 #fcfcfc #000000 #000000;
#X obj 472 298 bng 19 250 50 0 empty empty empty 0 -10 0 12 #fcfcfc #000000 #000000;
#X obj 502 298 bng 19 250 50 0 empty empty empty 0 -10 0 12 #fcfcfc #000000 #000000;
#X obj 532 298 bng 19 250 50 0 empty empty empty 0 -10 0 12 #fcfcfc #000000 #000000;
#X text 108 525 Kotak angka;
#X msg 853 24 200;
#X text 490 144 Berapa milidetik;
#X text 371 262 Pilih;
#X text 105 61 Ctl + 1;
#X obj 173 61 metro;
#X text 106 92 Ctl + 2;
#X text 230 63 Obyek;
#X text 232 92 Pesan;
#X text 107 124 Ctl + 3;
#X floatatom 174 123 5 0 0 0 - - - 0;
#X text 230 125 Kotak angka;
#X text 108 158 Ctl + 5;
#X text 169 156 comment;
#X text 231 155 Komentar;
#X msg 173 92;
#X text 54 199 Ctl + Shift + B;
#X obj 185 198 bng 19 250 50 0 empty empty empty 0 -10 0 12 #fcfcfc #000000 #000000;
#X text 236 198 Bang;
#X obj 185 232 tgl 19 0 empty empty empty 0 -10 0 12 #fcfcfc #000000 #000000 0 1;
#X text 54 235 Ctl + Shift + T;
#X text 227 240 Toggle;
#X text 124 359 Ctl + E;
#X text 193 366 Kunci/Sunting;
#X text 138 33 TERABASAN DASAR;
#X text 42 309 Ctl + C;
#X text 114 310 Salin;
#X text 42 331 Ctl + V;
#X text 115 329 Tempel;
#X text 205 308 Ctl + D;
#X text 280 308 Duplikat;
#X text 205 327 Ctl + S;
#X text 280 326 Simpan;
#X text 284 241 (Y/T);
#X text 191 351 Kursor/Tangan;
#X obj 18 270 hsl 162 19 0 127 0 0 empty empty empty -2 -10 0 12 #fcfcfc #000000 #000000 0 1;
#X text 198 270 Slider: Di menu "put";
#X text 227 184 (Lampu);
#X text 228 226 (Saklar);
#X text 193 289 Klik kanan untuk properties;
#X text 541 30 DATA;
#X obj 477 558 gakoInstr;
#X text 61 443 Unduh SuperCollider;
#X obj 66 497 gakoHitung;
#X floatatom 133 471 5 0 0 0 - - - 0;
#X floatatom 412 244 5 0 0 0 - - - 0;
#X obj 412 211 cyclone/counter 4;
#X obj 412 352 i;
#X floatatom 430 327 5 0 0 0 - - - 0;
#X text 350 351 integer;
#X text 452 243 Kotak angka;
#X text 849 309 hitung;
#X floatatom 475 411 5 0 0 0 - - - 0;
#X obj 442 352 i;
#X floatatom 472 328 5 0 0 0 - - - 0;
#X obj 472 352 i;
#X floatatom 513 328 5 0 0 0 - - - 0;
#X obj 502 353 i;
#X floatatom 554 328 5 0 0 0 - - - 0;
#X text 251 429 ctl + d = duplikat;
#X obj 532 352 i;
#X floatatom 596 328 5 0 0 0 - - - 0;
#X obj 730 557 gakoInstr;
#X obj 259 497 gakoNgempat;
#X floatatom 333 453 5 0 0 0 - - - 0;
#X text 437 516 polos;
#X text 941 520 sangsih;
#X obj 493 480 gakoKotek;
#X floatatom 886 405 5 0 0 0 - - - 0;
#X floatatom 651 135 5 0 0 0 - - - 0;
#X obj 718 452 hsl 162 19 -1 1 0 0 empty empty empty -2 -10 0 12 #fcfcfc #000000 #000000 0 1;
#X obj 971 484 hsl 162 19 -1 1 0 0 empty empty empty -2 -10 0 12 #fcfcfc #000000 #000000 0 1;
#X msg 612 219 2 10 9 4 8;
#X obj 612 253 unpack 0 0 0 0 0;
#X msg 701 221 3 4 5 9 8;
#X msg 886 380 10;
#X obj 886 356 loadbang;
#X connect 1 0 9 0;
#X connect 2 0 1 0;
#X connect 2 0 7 1;
#X connect 4 0 63 0;
#X connect 6 0 7 0;
#X connect 7 0 4 0;
#X connect 8 0 58 1;
#X connect 8 0 79 1;
#X connect 11 0 12 0;
#X connect 11 1 13 0;
#X connect 11 2 14 0;
#X connect 11 3 15 0;
#X connect 11 4 16 0;
#X connect 12 0 64 0;
#X connect 13 0 70 0;
#X connect 14 0 72 0;
#X connect 15 0 74 0;
#X connect 16 0 77 0;
#X connect 18 0 2 0;
#X connect 60 0 10 0;
#X connect 61 0 60 2;
#X connect 62 0 11 0;
#X connect 62 0 84 0;
#X connect 63 0 62 0;
#X connect 64 0 69 0;
#X connect 65 0 64 1;
#X connect 69 0 80 0;
#X connect 69 0 84 1;
#X connect 70 0 69 0;
#X connect 71 0 70 1;
#X connect 72 0 69 0;
#X connect 73 0 72 1;
#X connect 74 0 69 0;
#X connect 75 0 74 1;
#X connect 77 0 69 0;
#X connect 78 0 77 1;
#X connect 81 0 80 1;
#X connect 84 0 58 0;
#X connect 84 1 79 0;
#X connect 85 0 84 2;
#X connect 86 0 63 4;
#X connect 87 0 58 4;
#X connect 88 0 79 4;
#X connect 89 0 90 0;
#X connect 90 0 65 0;
#X connect 90 1 71 0;
#X connect 90 2 73 0;
#X connect 90 3 75 0;
#X connect 90 4 78 0;
#X connect 91 0 90 0;
#X connect 92 0 85 0;
#X connect 93 0 92 0;
