#N canvas 467 16 1148 958 12;
#X text 599 347 cetak;
#X floatatom 602 271 5 0 0 0 - - - 0;
#X obj 602 101 vsl 19 162 20 2000 0 0 empty empty Kecepatan 0 -9 0 12 #c6ffc7 #000000 #000000 0 1;
#X text 630 157 put/Vslider;
#X obj 468 328 bng 19 250 50 0 empty empty hooouuu! 0 -10 0 12 #00faff #faff00 #000000;
#X text 495 331 bang!;
#X obj 468 265 tgl 19 0 empty empty empty 0 -10 0 12 #fcfcfc #000000 #000000 0 1;
#X obj 468 293 metro 1000;
#X obj 785 748 osc~;
#X obj 785 827 dac~;
#X text 711 851 Digital to audio converter;
#X text 835 792 volume;
#X text 819 745 gelombang (suara);
#X text 871 679 Hz;
#X obj 785 793 *~ 0.2;
#X msg 840 678 400;
#X obj 974 496 vsl 19 162 0 1 0 0 empty empty volume 0 -9 0 12 #c6ffc7 #000000 #000000 0 1;
#X obj 601 326 print;
#X floatatom 468 403 5 0 0 0 - - - 0;
#X obj 468 374 cyclone/counter 4;
#X obj 468 466 select 0 1 2 3 4, f 22;
#X obj 468 528 bng 19 250 50 0 empty empty empty 0 -10 0 12 #fcfcfc #000000 #000000;
#X obj 498 527 bng 19 250 50 0 empty empty empty 0 -10 0 12 #fcfcfc #000000 #000000;
#X obj 528 527 bng 19 250 50 0 empty empty empty 0 -10 0 12 #fcfcfc #000000 #000000;
#X obj 558 527 bng 19 250 50 0 empty empty empty 0 -10 0 12 #fcfcfc #000000 #000000;
#X obj 588 527 bng 19 250 50 0 empty empty empty 0 -10 0 12 #fcfcfc #000000 #000000;
#X msg 634 683 666;
#X msg 693 682 888;
#X msg 734 680 922;
#X msg 985 191 0;
#X obj 985 156 select 0 1;
#X obj 1018 192 t b b;
#X msg 1050 222 0.2;
#X msg 1018 223 1;
#X obj 985 102 tgl 35 0 empty empty Hidup/Mati 0 -10 0 20 #00ff04 #faff00 #000000 0 1;
#X text 510 405 Kotak angka;
#X text 649 656 frekuensi (nada \, tingginya);
#X msg 602 62 200;
#X text 547 296 Berapa milidetik;
#X text 595 375 Hitung;
#X text 18 390 Unduh perpustakaan: help \, cari ekstra \, install di folder extra;
#X text 640 466 Pilih;
#X text 105 61 Ctl + 1;
#X obj 173 61 metro;
#X text 106 92 Ctl + 2;
#X text 230 63 Obyek;
#X text 232 92 Pesan;
#X text 107 124 Ctl + 3;
#X floatatom 174 123 5 0 0 0 - - - 0;
#X text 230 125 Kotak angka;
#X text 108 158 Ctl + 5;
#X text 169 156 comment;
#X text 231 155 Komentar;
#X msg 173 92;
#X text 54 199 Ctl + Shift + B;
#X obj 185 198 bng 19 250 50 0 empty empty empty 0 -10 0 12 #fcfcfc #000000 #000000;
#X text 236 198 Bang;
#X obj 185 232 tgl 19 0 empty empty empty 0 -10 0 12 #fcfcfc #000000 #000000 0 1;
#X text 54 235 Ctl + Shift + T;
#X text 227 240 Toggle;
#X text 124 359 Ctl + E;
#X text 193 366 Kunci/Sunting;
#X text 138 33 TERABASAN DASAR;
#X text 42 309 Ctl + C;
#X text 114 310 Salin;
#X text 42 331 Ctl + V;
#X text 115 329 Tempel;
#X text 205 308 Ctl + D;
#X text 280 308 Duplikat;
#X text 205 327 Ctl + S;
#X text 280 326 Simpan;
#X text 284 241 (Y/T);
#X text 191 351 Kursor/Tangan;
#X obj 18 270 hsl 162 19 0 127 0 0 empty empty empty -2 -10 0 12 #fcfcfc #000000 #000000 0 1;
#X text 198 270 Slider: Di menu "put";
#X text 227 184 (Lampu);
#X text 228 226 (Saklar);
#X text 193 289 Klik kanan untuk properties;
#X text 541 30 DATA;
#X text 990 24 SUARA;
#X text 643 865 Digital (komputer) ke audio (sound \, headphones);
#X msg 785 679 60;
#X connect 1 0 17 0;
#X connect 2 0 1 0;
#X connect 2 0 7 1;
#X connect 4 0 19 0;
#X connect 6 0 7 0;
#X connect 7 0 4 0;
#X connect 8 0 14 0;
#X connect 14 0 9 0;
#X connect 14 0 9 1;
#X connect 15 0 8 0;
#X connect 16 0 14 1;
#X connect 18 0 20 0;
#X connect 19 0 18 0;
#X connect 20 0 21 0;
#X connect 20 1 22 0;
#X connect 20 2 23 0;
#X connect 20 3 24 0;
#X connect 20 4 25 0;
#X connect 21 0 26 0;
#X connect 22 0 27 0;
#X connect 23 0 28 0;
#X connect 24 0 81 0;
#X connect 25 0 15 0;
#X connect 26 0 8 0;
#X connect 27 0 8 0;
#X connect 28 0 8 0;
#X connect 29 0 16 0;
#X connect 29 0 6 0;
#X connect 30 0 29 0;
#X connect 30 1 31 0;
#X connect 31 0 33 0;
#X connect 31 1 32 0;
#X connect 32 0 16 0;
#X connect 33 0 6 0;
#X connect 34 0 30 0;
#X connect 37 0 2 0;
#X connect 81 0 8 0;
