#N canvas 731 68 1120 846 12;
#X text 599 347 cetak;
#X floatatom 602 271 5 0 0 0 - - - 0;
#X obj 602 101 vsl 19 162 20 2000 0 0 empty empty Kecepatan 0 -9 0 12 #c6ffc7 #000000 #000000 0 1;
#X text 630 157 put/Vslider;
#X obj 468 328 bng 19 250 50 0 empty empty hooouuu! 0 -10 0 12 #00faff #faff00 #000000;
#X text 495 331 bang!;
#X obj 468 265 tgl 19 0 empty empty empty 0 -10 0 12 #fcfcfc #000000 #000000 0 1;
#X obj 468 293 metro 1000;
#X obj 601 326 print;
#X floatatom 468 403 5 0 0 0 - - - 0;
#X obj 468 374 cyclone/counter 4;
#X obj 468 466 select 0 1 2 3 4, f 22;
#X obj 468 528 bng 19 250 50 0 empty empty empty 0 -10 0 12 #fcfcfc #000000 #000000;
#X obj 498 527 bng 19 250 50 0 empty empty empty 0 -10 0 12 #fcfcfc #000000 #000000;
#X obj 528 527 bng 19 250 50 0 empty empty empty 0 -10 0 12 #fcfcfc #000000 #000000;
#X obj 558 527 bng 19 250 50 0 empty empty empty 0 -10 0 12 #fcfcfc #000000 #000000;
#X obj 588 527 bng 19 250 50 0 empty empty empty 0 -10 0 12 #fcfcfc #000000 #000000;
#X text 510 405 Kotak angka;
#X msg 602 62 200;
#X text 547 296 Berapa milidetik;
#X text 595 375 Hitung;
#X text 18 390 Unduh perpustakaan: help \, cari ekstra \, install di folder extra;
#X text 640 466 Pilih;
#X text 105 61 Ctl + 1;
#X obj 173 61 metro;
#X text 106 92 Ctl + 2;
#X text 230 63 Obyek;
#X text 232 92 Pesan;
#X text 107 124 Ctl + 3;
#X floatatom 174 123 5 0 0 0 - - - 0;
#X text 230 125 Kotak angka;
#X text 108 158 Ctl + 5;
#X text 169 156 comment;
#X text 231 155 Komentar;
#X msg 173 92;
#X text 54 199 Ctl + Shift + B;
#X obj 185 198 bng 19 250 50 0 empty empty empty 0 -10 0 12 #fcfcfc #000000 #000000;
#X text 236 198 Bang;
#X obj 185 232 tgl 19 0 empty empty empty 0 -10 0 12 #fcfcfc #000000 #000000 0 1;
#X text 54 235 Ctl + Shift + T;
#X text 227 240 Toggle;
#X text 124 359 Ctl + E;
#X text 193 366 Kunci/Sunting;
#X text 138 33 TERABASAN DASAR;
#X text 42 309 Ctl + C;
#X text 114 310 Salin;
#X text 42 331 Ctl + V;
#X text 115 329 Tempel;
#X text 205 308 Ctl + D;
#X text 280 308 Duplikat;
#X text 205 327 Ctl + S;
#X text 280 326 Simpan;
#X text 284 241 (Y/T);
#X text 191 351 Kursor/Tangan;
#X obj 18 270 hsl 162 19 0 127 0 0 empty empty empty -2 -10 0 12 #fcfcfc #000000 #000000 0 1;
#X text 198 270 Slider: Di menu "put";
#X text 227 184 (Lampu);
#X text 228 226 (Saklar);
#X text 193 289 Klik kanan untuk properties;
#X text 541 30 DATA;
#X text 501 427 Hitung 0 - 4 (5 pukulan);
#X obj 427 620 gakoInstr;
#X obj 952 74 vsl 19 162 0 1 0 0 empty empty volume 0 -9 0 12 #c6ffc7 #000000 #000000 0 1;
#X floatatom 952 252 5 0 0 0 - - - 0;
#X text 700 428 2 Tambah gakoInstr;
#X text 26 647 OSC: Open Sound Control - Kontrol Suara Terbuka;
#X text 61 663 Protokol kirim pesan;
#X text 19 748 MIDI: Musical Instrument Digital Interface;
#X text 61 765 Protokol kirim pesan \, format pesan standar;
#X text 60 781 nada - velocity;
#X text 61 681 nada - velocity - instrumen - ngumbag/isep;
#X text 701 459 4 Unduh Mrpeach;
#X obj 150 611 gakoOSCkirimSC;
#X text 701 474 5 Start \, lihat post window;
#X text 59 798 Lihat pesan di media-test MIDI;
#X text 61 700 Lihat gambar OSC;
#X obj 427 763 s OSC;
#X text 446 714 pesan OSC;
#X text 700 444 3 Tambah gakoOSCkirimSC + lihat diagram;
#X text 699 412 1 Menghapus bagian suara [osc~];
#X text 701 490 6 Unduh SuperCollider;
#X text 702 506 7 Buka SCboot;
#X text 702 521 8 Buka SC bermainGaKoSynth;
#X text 694 535 10 Bermain: synth \, ombak \, nada \, ratio \, durasi \, curve;
#X text 697 616 PERTANYAAN:;
#X text 667 729 /GaKo-Synth/nada noNada vel noInstr dua(0)/pengumbang(1)/pengisep(2) /pan kiri(-1) kanan(1);
#X text 701 382 0 Unduh GaKo dari GitHub.;
#X text 713 396 File ini "Save as" di folder itu (2-Sintesis);
#X msg 427 734 /GaKo-Synth/nada \$1 \$2 \$3 \$4 \$5;
#X obj 675 586 hsl 162 19 -1 1 0 0 empty empty pan -2 -10 0 12 #c6ffc7 #000000 #000000 0 1;
#X text 698 650 Tetekep?;
#X text 699 666 Ombak?;
#X text 696 634 Menggambar bagaimana (SC & Pd);
#X connect 1 0 8 0;
#X connect 2 0 1 0;
#X connect 2 0 7 1;
#X connect 4 0 10 0;
#X connect 6 0 7 0;
#X connect 7 0 4 0;
#X connect 9 0 11 0;
#X connect 9 0 61 0;
#X connect 10 0 9 0;
#X connect 11 0 12 0;
#X connect 11 1 13 0;
#X connect 11 2 14 0;
#X connect 11 3 15 0;
#X connect 11 4 16 0;
#X connect 18 0 2 0;
#X connect 61 0 88 0;
#X connect 62 0 63 0;
#X connect 63 0 61 1;
#X connect 88 0 76 0;
#X connect 89 0 61 4;
