#N canvas 2747 -266 1148 958 12;
#X text 468 359 cetak;
#X floatatom 471 283 5 0 0 0 - - - 0;
#X obj 471 113 vsl 19 162 20 2000 0 0 empty empty Kecepatan 0 -9 0 12 #c6ffc7 #000000 #000000 0 1;
#X text 499 169 put/Vslider;
#X obj 337 340 bng 19 250 50 0 empty empty hooouuu! 0 -10 0 12 #00faff #faff00 #000000;
#X text 364 343 bang!;
#X obj 337 277 tgl 19 0 empty empty empty 0 -10 0 12 #fcfcfc #000000 #000000 0 1;
#X obj 337 305 metro 1000;
#X obj 470 338 print;
#X floatatom 337 415 5 0 0 0 - - - 0;
#X obj 337 463 select 0 1 2 3 4, f 22;
#X obj 337 497 bng 19 250 50 0 empty empty empty 0 -10 0 12 #fcfcfc #000000 #000000;
#X obj 367 497 bng 19 250 50 0 empty empty empty 0 -10 0 12 #fcfcfc #000000 #000000;
#X obj 397 497 bng 19 250 50 0 empty empty empty 0 -10 0 12 #fcfcfc #000000 #000000;
#X obj 427 497 bng 19 250 50 0 empty empty empty 0 -10 0 12 #fcfcfc #000000 #000000;
#X obj 457 497 bng 19 250 50 0 empty empty empty 0 -10 0 12 #fcfcfc #000000 #000000;
#X text 379 417 Kotak angka;
#X msg 471 74 200;
#X text 416 308 Berapa milidetik;
#X text 464 387 Hitung;
#X text 509 463 Pilih;
#X text 410 42 DATA;
#X text 370 439 Hitung 0 - 4 (5 pukulan);
#X obj 291 841 gakoInstr;
#X obj 821 86 vsl 19 162 0 1 0 0 empty empty volume 0 -9 0 12 #c6ffc7 #000000 #000000 0 1;
#X floatatom 821 264 5 0 0 0 - - - 0;
#X text 12 62 OSC: Open Sound Control - Kontrol Suara Terbuka;
#X text 47 78 Protokol kirim pesan;
#X text 5 163 MIDI: Musical Instrument Digital Interface;
#X text 47 180 Protokol kirim pesan \, format pesan standar;
#X text 46 196 nada - velocity;
#X text 47 96 nada - velocity - instrumen - ngumbag/isep;
#X obj 136 26 gakoOSCkirimSC;
#X text 45 213 Lihat pesan di media-test MIDI;
#X text 47 115 Lihat gambar OSC;
#X obj 291 984 s OSC;
#X text 310 935 pesan OSC;
#X text 626 419 1 Merapikan ingatan di sub-patch;
#N canvas 3273 -224 450 447 ingatan 0;
#X text 18 390 Unduh perpustakaan: help \, cari ekstra \, install di folder extra;
#X text 105 61 Ctl + 1;
#X obj 173 61 metro;
#X text 106 92 Ctl + 2;
#X text 230 63 Obyek;
#X text 232 92 Pesan;
#X text 107 124 Ctl + 3;
#X floatatom 174 123 5 0 0 0 - - - 0;
#X text 230 125 Kotak angka;
#X text 108 158 Ctl + 5;
#X text 169 156 comment;
#X text 231 155 Komentar;
#X msg 173 92;
#X text 54 199 Ctl + Shift + B;
#X obj 185 198 bng 19 250 50 0 empty empty empty 0 -10 0 12 #fcfcfc #000000 #000000;
#X text 236 198 Bang;
#X obj 185 232 tgl 19 0 empty empty empty 0 -10 0 12 #fcfcfc #000000 #000000 0 1;
#X text 54 235 Ctl + Shift + T;
#X text 227 240 Toggle;
#X text 124 359 Ctl + E;
#X text 193 366 Kunci/Sunting;
#X text 138 33 TERABASAN DASAR;
#X text 42 309 Ctl + C;
#X text 114 310 Salin;
#X text 42 331 Ctl + V;
#X text 115 329 Tempel;
#X text 205 308 Ctl + D;
#X text 280 308 Duplikat;
#X text 205 327 Ctl + S;
#X text 280 326 Simpan;
#X text 284 241 (Y/T);
#X text 191 351 Kursor/Tangan;
#X obj 18 270 hsl 162 19 0 127 0 0 empty empty empty -2 -10 0 12 #fcfcfc #000000 #000000 0 1;
#X text 198 270 Slider: Di menu "put";
#X text 227 184 (Lampu);
#X text 228 226 (Saklar);
#X text 193 289 Klik kanan untuk properties;
#X restore 33 25 pd ingatan;
#X msg 87 454 0 1 3 5 6;
#X floatatom 291 795 5 0 0 0 - - - 0;
#X msg 33 403 2 1 3 6 7;
#X msg 61 429 7 8 6 4 0;
#X obj 95 668 i;
#X obj 113 580 unpack 0 0 0 0 0, f 45;
#X floatatom 113 611 5 0 0 0 - - - 0;
#X floatatom 191 611 5 0 0 0 - - - 0;
#X floatatom 269 610 5 0 0 0 - - - 0;
#X floatatom 347 610 5 0 0 0 - - - 0;
#X floatatom 425 611 5 0 0 0 - - - 0;
#X obj 173 668 i;
#X obj 251 667 i;
#X obj 329 666 i;
#X obj 407 666 i;
#X text 626 439 2 Bermain dengan parameter2 GaKoSynth;
#X text 626 456 3 Simpan pola di pesan \, keluar dengan unpack;
#X obj 337 386 cyclone/counter 4;
#X floatatom 601 308 5 0 0 0 - - - 0;
#X text 599 289 Potong hitungan;
#X text 626 470 4 Potong hitungan;
#X obj 337 438 + 0;
#X floatatom 599 374 5 0 0 0 - - - 0;
#X text 596 356 Nada mulai;
#X text 626 485 5 Nada mulai;
#X msg 291 955 /GaKo-Synth/nada \$1 \$2 \$3 \$4 \$5;
#X text 528 948 /GaKo-Synth/nada noNada vel noInstr dua(0)/pengumbang(1)/pengisep(2) pan (-1 \, 1): kiri \, kanan;
#X connect 1 0 8 0;
#X connect 2 0 1 0;
#X connect 2 0 7 1;
#X connect 4 0 56 0;
#X connect 6 0 7 0;
#X connect 7 0 4 0;
#X connect 9 0 60 0;
#X connect 10 0 11 0;
#X connect 10 1 12 0;
#X connect 10 2 13 0;
#X connect 10 3 14 0;
#X connect 10 4 15 0;
#X connect 11 0 43 0;
#X connect 12 0 50 0;
#X connect 13 0 51 0;
#X connect 14 0 52 0;
#X connect 15 0 53 0;
#X connect 17 0 2 0;
#X connect 23 0 64 0;
#X connect 24 0 25 0;
#X connect 25 0 23 1;
#X connect 39 0 44 0;
#X connect 40 0 23 0;
#X connect 41 0 44 0;
#X connect 42 0 44 0;
#X connect 43 0 40 0;
#X connect 44 0 45 0;
#X connect 44 1 46 0;
#X connect 44 2 47 0;
#X connect 44 3 48 0;
#X connect 44 4 49 0;
#X connect 45 0 43 1;
#X connect 46 0 50 1;
#X connect 47 0 51 1;
#X connect 48 0 52 1;
#X connect 49 0 53 1;
#X connect 50 0 40 0;
#X connect 51 0 40 0;
#X connect 52 0 40 0;
#X connect 53 0 40 0;
#X connect 56 0 9 0;
#X connect 57 0 56 4;
#X connect 60 0 10 0;
#X connect 61 0 60 1;
#X connect 64 0 35 0;
