#N canvas 2813 -452 1321 1053 12;
#X text 468 359 cetak;
#X floatatom 471 283 5 0 0 0 - - - 0;
#X obj 471 113 vsl 19 162 20 2000 0 0 empty empty Kecepatan 0 -9 0 12 #c6ffc7 #000000 #000000 0 1;
#X text 499 169 put/Vslider;
#X obj 337 340 bng 19 250 50 0 empty empty hooouuu! 0 -10 0 12 #00faff #faff00 #000000;
#X text 364 343 bang!;
#X obj 337 277 tgl 19 0 empty empty empty 0 -10 0 12 #fcfcfc #000000 #000000 0 1;
#X obj 337 305 metro 1000;
#X obj 470 338 print;
#X floatatom 337 415 5 0 0 0 - - - 0;
#X obj 337 463 select 0 1 2 3 4, f 22;
#X obj 337 497 bng 19 250 50 0 empty empty empty 0 -10 0 12 #fcfcfc #000000 #000000;
#X obj 367 497 bng 19 250 50 0 empty empty empty 0 -10 0 12 #fcfcfc #000000 #000000;
#X obj 397 497 bng 19 250 50 0 empty empty empty 0 -10 0 12 #fcfcfc #000000 #000000;
#X obj 427 497 bng 19 250 50 0 empty empty empty 0 -10 0 12 #fcfcfc #000000 #000000;
#X obj 457 497 bng 19 250 50 0 empty empty empty 0 -10 0 12 #fcfcfc #000000 #000000;
#X text 379 417 Kotak angka;
#X msg 471 74 200;
#X text 416 308 Berapa milidetik;
#X text 464 387 Hitung;
#X text 509 463 Pilih;
#X text 410 42 DATA;
#X text 370 439 Hitung 0 - 4 (5 pukulan);
#X obj 605 98 vsl 19 162 0 1 0 0 empty empty volume 0 -9 0 12 #c6ffc7 #000000 #000000 0 1;
#X floatatom 606 268 5 0 0 0 - - - 0;
#X text 12 62 OSC: Open Sound Control - Kontrol Suara Terbuka;
#X text 47 78 Protokol kirim pesan;
#X text 5 163 MIDI: Musical Instrument Digital Interface;
#X text 47 180 Protokol kirim pesan \, format pesan standar;
#X text 46 196 nada - velocity;
#X text 47 96 nada - velocity - instrumen - ngumbag/isep;
#X obj 136 26 gakoOSCkirimSC;
#X text 45 213 Lihat pesan di media-test MIDI;
#X text 47 115 Lihat gambar OSC;
#X obj 291 984 s OSC;
#X text 310 935 pesan OSC;
#N canvas 3273 -224 450 447 ingatan 0;
#X text 18 390 Unduh perpustakaan: help \, cari ekstra \, install di folder extra;
#X text 105 61 Ctl + 1;
#X obj 173 61 metro;
#X text 106 92 Ctl + 2;
#X text 230 63 Obyek;
#X text 232 92 Pesan;
#X text 107 124 Ctl + 3;
#X floatatom 174 123 5 0 0 0 - - - 0;
#X text 230 125 Kotak angka;
#X text 108 158 Ctl + 5;
#X text 169 156 comment;
#X text 231 155 Komentar;
#X msg 173 92;
#X text 54 199 Ctl + Shift + B;
#X obj 185 198 bng 19 250 50 0 empty empty empty 0 -10 0 12 #fcfcfc #000000 #000000;
#X text 236 198 Bang;
#X obj 185 232 tgl 19 0 empty empty empty 0 -10 0 12 #fcfcfc #000000 #000000 0 1;
#X text 54 235 Ctl + Shift + T;
#X text 227 240 Toggle;
#X text 124 359 Ctl + E;
#X text 193 366 Kunci/Sunting;
#X text 138 33 TERABASAN DASAR;
#X text 42 309 Ctl + C;
#X text 114 310 Salin;
#X text 42 331 Ctl + V;
#X text 115 329 Tempel;
#X text 205 308 Ctl + D;
#X text 280 308 Duplikat;
#X text 205 327 Ctl + S;
#X text 280 326 Simpan;
#X text 284 241 (Y/T);
#X text 191 351 Kursor/Tangan;
#X obj 18 270 hsl 162 19 0 127 0 0 empty empty empty -2 -10 0 12 #fcfcfc #000000 #000000 0 1;
#X text 198 270 Slider: Di menu "put";
#X text 227 184 (Lampu);
#X text 228 226 (Saklar);
#X text 193 289 Klik kanan untuk properties;
#X restore 33 25 pd ingatan;
#X floatatom 291 795 5 0 0 0 - - - 0;
#X obj 95 668 i;
#X obj 113 580 unpack 0 0 0 0 0, f 45;
#X floatatom 113 611 5 0 0 0 - - - 0;
#X floatatom 191 611 5 0 0 0 - - - 0;
#X floatatom 269 610 5 0 0 0 - - - 0;
#X floatatom 347 610 5 0 0 0 - - - 0;
#X floatatom 425 611 5 0 0 0 - - - 0;
#X obj 173 668 i;
#X obj 251 667 i;
#X obj 329 666 i;
#X obj 407 666 i;
#X obj 337 386 cyclone/counter 4;
#X floatatom 545 319 5 0 0 0 - - - 0;
#X text 543 300 Potong hitungan;
#X obj 337 438 + 0;
#X floatatom 543 385 5 0 0 0 - - - 0;
#X text 540 367 Nada mulai;
#X obj 970 350 bng 19 250 50 0 empty empty hooouuu! 0 -10 0 12 #00faff #faff00 #000000;
#X text 997 353 bang!;
#X floatatom 970 425 5 0 0 0 - - - 0;
#X obj 970 473 select 0 1 2 3 4, f 22;
#X obj 970 507 bng 19 250 50 0 empty empty empty 0 -10 0 12 #fcfcfc #000000 #000000;
#X obj 1000 507 bng 19 250 50 0 empty empty empty 0 -10 0 12 #fcfcfc #000000 #000000;
#X obj 1030 507 bng 19 250 50 0 empty empty empty 0 -10 0 12 #fcfcfc #000000 #000000;
#X obj 1060 507 bng 19 250 50 0 empty empty empty 0 -10 0 12 #fcfcfc #000000 #000000;
#X obj 1090 507 bng 19 250 50 0 empty empty empty 0 -10 0 12 #fcfcfc #000000 #000000;
#X text 1012 427 Kotak angka;
#X text 1097 397 Hitung;
#X text 1142 473 Pilih;
#X text 1043 52 DATA;
#X text 1003 449 Hitung 0 - 4 (5 pukulan);
#X obj 924 851 gakoInstr;
#X obj 1238 108 vsl 19 162 0 1 0 0 empty empty volume 0 -9 0 12 #c6ffc7 #000000 #000000 0 1;
#X floatatom 1239 278 5 0 0 0 - - - 0;
#X obj 924 994 s OSC;
#X text 943 945 pesan OSC;
#X floatatom 924 805 5 0 0 0 - - - 0;
#X obj 728 678 i;
#X obj 746 590 unpack 0 0 0 0 0, f 45;
#X floatatom 746 621 5 0 0 0 - - - 0;
#X floatatom 824 621 5 0 0 0 - - - 0;
#X floatatom 902 620 5 0 0 0 - - - 0;
#X floatatom 980 620 5 0 0 0 - - - 0;
#X floatatom 1058 621 5 0 0 0 - - - 0;
#X obj 806 678 i;
#X obj 884 677 i;
#X obj 962 676 i;
#X obj 1040 676 i;
#X obj 970 396 cyclone/counter 4;
#X floatatom 1178 329 5 0 0 0 - - - 0;
#X text 1176 310 Potong hitungan;
#X obj 970 448 + 0;
#X floatatom 1176 395 5 0 0 0 - - - 0;
#X text 1173 377 Nada mulai;
#X msg 729 311 0 5 0 3 5;
#X msg 732 337 3 0 2 3 0;
#X obj 732 270 bng 19 250 50 0 empty empty empty 0 -10 0 12 #fcfcfc #000000 #000000;
#X text 758 270 Bebaru;
#X msg 674 417 3 1 2 3 1;
#X msg 675 444 3 5 2 3 5;
#X obj 683 374 bng 19 250 50 0 empty empty empty 0 -10 0 12 #fcfcfc #000000 #000000;
#X text 708 372 AlingAling;
#X text 645 466 Kabelit;
#X msg 608 501 0 1 2 0 1;
#X msg 608 527 3 5 0 3 5;
#X obj 622 466 bng 19 250 50 0 empty empty empty 0 -10 0 12 #fcfcfc #000000 #000000;
#X text 718 32 1 2 instrumen;
#X text 718 47 2 Hapus metro kedua;
#X text 717 63 3 UbitUbitan;
#X text 715 81 4 Freqs dari gamelan (ke SC);
#X msg 291 955 /GaKo-Synth/nada \$1 \$2 \$3 \$4 \$5;
#X text 613 952 /GaKo-Synth/nada noNada vel noInstr dua(0)/pengumbang(1)/pengisep(2) pan (-1 \, 1);
#X msg 924 964 /GaKo-Synth/nada \$1 \$2 \$3 \$4 \$5;
#X obj 291 855 gakoInstr;
#X connect 1 0 8 0;
#X connect 2 0 1 0;
#X connect 2 0 7 1;
#X connect 4 0 49 0;
#X connect 6 0 7 0;
#X connect 7 0 4 0;
#X connect 7 0 55 0;
#X connect 9 0 52 0;
#X connect 10 0 11 0;
#X connect 10 1 12 0;
#X connect 10 2 13 0;
#X connect 10 3 14 0;
#X connect 10 4 15 0;
#X connect 11 0 38 0;
#X connect 12 0 45 0;
#X connect 13 0 46 0;
#X connect 14 0 47 0;
#X connect 15 0 48 0;
#X connect 17 0 2 0;
#X connect 23 0 24 0;
#X connect 24 0 111 1;
#X connect 37 0 111 0;
#X connect 38 0 37 0;
#X connect 39 0 40 0;
#X connect 39 1 41 0;
#X connect 39 2 42 0;
#X connect 39 3 43 0;
#X connect 39 4 44 0;
#X connect 40 0 38 1;
#X connect 41 0 45 1;
#X connect 42 0 46 1;
#X connect 43 0 47 1;
#X connect 44 0 48 1;
#X connect 45 0 37 0;
#X connect 46 0 37 0;
#X connect 47 0 37 0;
#X connect 48 0 37 0;
#X connect 49 0 9 0;
#X connect 50 0 49 4;
#X connect 52 0 10 0;
#X connect 53 0 52 1;
#X connect 55 0 86 0;
#X connect 57 0 89 0;
#X connect 58 0 59 0;
#X connect 58 1 60 0;
#X connect 58 2 61 0;
#X connect 58 3 62 0;
#X connect 58 4 63 0;
#X connect 59 0 75 0;
#X connect 60 0 82 0;
#X connect 61 0 83 0;
#X connect 62 0 84 0;
#X connect 63 0 85 0;
#X connect 69 0 110 0;
#X connect 70 0 71 0;
#X connect 71 0 69 1;
#X connect 74 0 69 0;
#X connect 75 0 74 0;
#X connect 76 0 77 0;
#X connect 76 1 78 0;
#X connect 76 2 79 0;
#X connect 76 3 80 0;
#X connect 76 4 81 0;
#X connect 77 0 75 1;
#X connect 78 0 82 1;
#X connect 79 0 83 1;
#X connect 80 0 84 1;
#X connect 81 0 85 1;
#X connect 82 0 74 0;
#X connect 83 0 74 0;
#X connect 84 0 74 0;
#X connect 85 0 74 0;
#X connect 86 0 57 0;
#X connect 87 0 86 4;
#X connect 89 0 58 0;
#X connect 90 0 89 1;
#X connect 92 0 39 0;
#X connect 93 0 76 0;
#X connect 94 0 92 0;
#X connect 94 0 93 0;
#X connect 96 0 39 0;
#X connect 97 0 76 0;
#X connect 98 0 96 0;
#X connect 98 0 97 0;
#X connect 101 0 39 0;
#X connect 102 0 76 0;
#X connect 103 0 101 0;
#X connect 103 0 102 0;
#X connect 108 0 34 0;
#X connect 110 0 72 0;
#X connect 111 0 108 0;
