#N canvas 1364 363 450 357 12;
#X floatatom 52 136 5 0 0 0 - - - 0;
#X floatatom 98 136 5 0 1 0 - - - 0;
#X floatatom 144 136 5 0 0 0 - - - 0;
#X text 56 115 nn;
#X text 98 115 vel;
#X text 131 114 noInstr;
#X obj 52 31 inlet;
#X obj 127 29 inlet;
#X obj 210 31 inlet;
#X obj 52 263 outlet;
#X obj 323 102 cnv 15 100 60 empty empty empty 20 12 0 14 #e0e0e0 #404040 0;
#X text 129 274 gakoInstr;
#X obj 278 31 inlet;
#X floatatom 191 136 5 0 2 0 - - - 0;
#X text 180 103 ngumbang;
#X text 206 119 isep;
#X text 242 187 0: pengumbang + pengisep;
#X text 243 202 1: pengumbang;
#X text 244 218 2: pengisep;
#X obj 52 188 pack 0 0 0 0 0, f 25;
#X obj 350 32 inlet;
#X floatatom 241 136 5 -1 1 2 - - - 0;
#X text 245 112 pan;
#X text 38 297 Terima dan kirim pesan2 instrumen;
#X text 270 256 1 = kanan;
#X text 228 244 Pan: -1 = kiri;
#X connect 0 0 19 0;
#X connect 1 0 19 1;
#X connect 2 0 19 2;
#X connect 6 0 0 0;
#X connect 7 0 1 0;
#X connect 8 0 2 0;
#X connect 12 0 13 0;
#X connect 13 0 19 3;
#X connect 19 0 9 0;
#X connect 20 0 21 0;
#X connect 21 0 19 4;
#X coords 0 -1 1 1 245 60 1 40 100;
