#N canvas 1286 72 388 326 12;
#X obj 35 246 mrpeach/udpsend;
#X obj 51 212 mrpeach/packOSC;
#X obj 51 188 cyclone/prepend send;
#X obj 34 22 loadbang;
#X obj 51 157 r OSC;
#X msg 35 70 connect 127.0.0.1 57120;
#X obj 152 247 print OSC;
#X text 25 49 Kirim ke SuperCollider melewati OSC (port 57120);
#X text 106 120 *Unduh MrPeach dan Cyclone;
#X connect 1 0 0 0;
#X connect 2 0 1 0;
#X connect 3 0 5 0;
#X connect 4 0 2 0;
#X connect 4 0 6 0;
#X connect 5 0 0 0;
