{
	"patcher" : 	{
		"fileversion" : 1,
		"appversion" : 		{
			"major" : 8,
			"minor" : 0,
			"revision" : 2,
			"architecture" : "x64",
			"modernui" : 1
		}
,
		"classnamespace" : "box",
		"rect" : [ 39.0, 91.0, 1100.0, 695.0 ],
		"bglocked" : 0,
		"openinpresentation" : 1,
		"default_fontsize" : 12.0,
		"default_fontface" : 0,
		"default_fontname" : "Arial",
		"gridonopen" : 1,
		"gridsize" : [ 15.0, 15.0 ],
		"gridsnaponopen" : 1,
		"objectsnaponopen" : 1,
		"statusbarvisible" : 2,
		"toolbarvisible" : 1,
		"lefttoolbarpinned" : 0,
		"toptoolbarpinned" : 0,
		"righttoolbarpinned" : 0,
		"bottomtoolbarpinned" : 0,
		"toolbars_unpinned_last_save" : 0,
		"tallnewobj" : 0,
		"boxanimatetime" : 200,
		"enablehscroll" : 1,
		"enablevscroll" : 1,
		"devicewidth" : 0.0,
		"description" : "",
		"digest" : "",
		"tags" : "",
		"style" : "",
		"subpatcher_template" : "",
		"boxes" : [ 			{
				"box" : 				{
					"bgcolor" : [ 0.592156862745098, 0.411764705882353, 0.133333333333333, 1.0 ],
					"id" : "obj-13",
					"ignoreclick" : 1,
					"maxclass" : "led",
					"numinlets" : 1,
					"numoutlets" : 1,
					"oncolor" : [ 0.96078431372549, 0.729411764705882, 0.023529411764706, 1.0 ],
					"outlettype" : [ "int" ],
					"parameter_enable" : 0,
					"patching_rect" : [ 274.6318359375, 101.5, 24.0, 24.0 ],
					"presentation" : 1,
					"presentation_rect" : [ 139.927734375, 7.0, 24.0, 24.0 ]
				}

			}
, 			{
				"box" : 				{
					"id" : "obj-9",
					"maxclass" : "newobj",
					"numinlets" : 1,
					"numoutlets" : 3,
					"outlettype" : [ "", "int", "int" ],
					"patching_rect" : [ 274.6318359375, 136.0, 58.0, 22.0 ],
					"text" : "change 0"
				}

			}
, 			{
				"box" : 				{
					"id" : "obj-8",
					"maxclass" : "newobj",
					"numinlets" : 0,
					"numoutlets" : 1,
					"outlettype" : [ "" ],
					"patching_rect" : [ 330.0, 52.0, 99.0, 22.0 ],
					"text" : "r #1Solo"
				}

			}
, 			{
				"box" : 				{
					"id" : "obj-12",
					"linecount" : 2,
					"maxclass" : "comment",
					"numinlets" : 1,
					"numoutlets" : 0,
					"patching_rect" : [ 265.0, 381.5, 107.0, 33.0 ],
					"text" : "Sample playback number (1-7)"
				}

			}
, 			{
				"box" : 				{
					"comment" : "Sample playback number (1-7)",
					"id" : "obj-10",
					"index" : 0,
					"maxclass" : "outlet",
					"numinlets" : 1,
					"numoutlets" : 0,
					"patching_rect" : [ 299.0, 419.5, 30.0, 30.0 ]
				}

			}
, 			{
				"box" : 				{
					"id" : "obj-3",
					"maxclass" : "newobj",
					"numinlets" : 1,
					"numoutlets" : 2,
					"outlettype" : [ "int", "" ],
					"patching_rect" : [ 299.0, 355.0, 63.0, 22.0 ],
					"text" : "unpack i s"
				}

			}
, 			{
				"box" : 				{
					"id" : "obj-7",
					"maxclass" : "comment",
					"numinlets" : 1,
					"numoutlets" : 0,
					"patching_rect" : [ 292.0, 79.7635498046875, 128.0, 20.0 ],
					"text" : "Playback solo ketukan"
				}

			}
, 			{
				"box" : 				{
					"id" : "obj-633",
					"maxclass" : "message",
					"numinlets" : 2,
					"numoutlets" : 1,
					"outlettype" : [ "" ],
					"patching_rect" : [ 274.6318359375, 171.5, 85.0, 22.0 ],
					"text" : "#1 $1"
				}

			}
, 			{
				"box" : 				{
					"id" : "obj-634",
					"maxclass" : "comment",
					"numinlets" : 1,
					"numoutlets" : 0,
					"patching_rect" : [ 271.1318359375, 44.034912109375, 31.0, 20.0 ],
					"presentation" : 1,
					"presentation_rect" : [ 106.927734375, 9.0, 31.0, 20.0 ],
					"text" : "solo"
				}

			}
, 			{
				"box" : 				{
					"checkedcolor" : [ 0.96078431372549, 0.729411764705882, 0.023529411764706, 1.0 ],
					"id" : "obj-635",
					"maxclass" : "toggle",
					"numinlets" : 1,
					"numoutlets" : 1,
					"outlettype" : [ "int" ],
					"parameter_enable" : 0,
					"patching_rect" : [ 274.6318359375, 59.7635498046875, 24.0, 24.0 ]
				}

			}
, 			{
				"box" : 				{
					"id" : "obj-631",
					"maxclass" : "newobj",
					"numinlets" : 1,
					"numoutlets" : 0,
					"patching_rect" : [ 274.6318359375, 203.895263671875, 139.0, 22.0 ],
					"text" : "s ketukanTrackPlayback"
				}

			}
, 			{
				"box" : 				{
					"id" : "obj-5",
					"linecount" : 4,
					"maxclass" : "comment",
					"numinlets" : 1,
					"numoutlets" : 0,
					"patching_rect" : [ 37.0361328125, 216.5, 89.0, 60.0 ],
					"text" : "Receive bang from chroma analysis when over"
				}

			}
, 			{
				"box" : 				{
					"comment" : "bang when analysis is done",
					"id" : "obj-1",
					"index" : 0,
					"maxclass" : "inlet",
					"numinlets" : 0,
					"numoutlets" : 1,
					"outlettype" : [ "" ],
					"patching_rect" : [ 37.0361328125, 279.5, 30.0, 30.0 ]
				}

			}
, 			{
				"box" : 				{
					"id" : "obj-375",
					"maxclass" : "message",
					"numinlets" : 2,
					"numoutlets" : 1,
					"outlettype" : [ "" ],
					"patching_rect" : [ 59.927734375, 374.5, 126.0, 22.0 ],
					"presentation" : 1,
					"presentation_rect" : [ 11.0, 199.5, 116.0, 22.0 ],
					"text" : "addlabel point-0 0"
				}

			}
, 			{
				"box" : 				{
					"id" : "obj-373",
					"linecount" : 3,
					"maxclass" : "message",
					"numinlets" : 2,
					"numoutlets" : 1,
					"outlettype" : [ "" ],
					"patching_rect" : [ 37.0, 400.5, 151.0, 49.0 ],
					"presentation" : 1,
					"presentation_linecount" : 3,
					"presentation_rect" : [ 11.0, 227.5, 116.0, 49.0 ],
					"text" : "addpoint point-0 gambangDbufchroma_feats.stats.flat"
				}

			}
, 			{
				"box" : 				{
					"bgcolor" : [ 0.270588235294118, 0.513725490196078, 0.16078431372549, 1.0 ],
					"bgcolor2" : [ 0.2, 0.2, 0.2, 1.0 ],
					"bgfillcolor_angle" : 270.0,
					"bgfillcolor_autogradient" : 0.0,
					"bgfillcolor_color" : [ 0.2, 0.2, 0.2, 1.0 ],
					"bgfillcolor_color1" : [ 0.270588235294118, 0.513725490196078, 0.16078431372549, 1.0 ],
					"bgfillcolor_color2" : [ 0.2, 0.2, 0.2, 1.0 ],
					"bgfillcolor_proportion" : 0.5,
					"bgfillcolor_type" : "gradient",
					"gradient" : 1,
					"id" : "obj-351",
					"maxclass" : "message",
					"numinlets" : 2,
					"numoutlets" : 1,
					"outlettype" : [ "" ],
					"patching_rect" : [ 53.0, 146.5, 35.0, 22.0 ],
					"presentation" : 1,
					"presentation_rect" : [ 10.0, 96.5, 35.0, 22.0 ],
					"text" : "clear"
				}

			}
, 			{
				"box" : 				{
					"bgcolor" : [ 0.270588235294118, 0.513725490196078, 0.16078431372549, 1.0 ],
					"bgcolor2" : [ 0.2, 0.2, 0.2, 1.0 ],
					"bgfillcolor_angle" : 270.0,
					"bgfillcolor_autogradient" : 0.0,
					"bgfillcolor_color" : [ 0.2, 0.2, 0.2, 1.0 ],
					"bgfillcolor_color1" : [ 0.270588235294118, 0.513725490196078, 0.16078431372549, 1.0 ],
					"bgfillcolor_color2" : [ 0.2, 0.2, 0.2, 1.0 ],
					"bgfillcolor_proportion" : 0.5,
					"bgfillcolor_type" : "gradient",
					"gradient" : 1,
					"id" : "obj-355",
					"maxclass" : "message",
					"numinlets" : 2,
					"numoutlets" : 1,
					"outlettype" : [ "" ],
					"patching_rect" : [ 53.0, 174.5, 32.0, 22.0 ],
					"presentation" : 1,
					"presentation_rect" : [ 10.0, 122.5, 32.0, 22.0 ],
					"text" : "print",
					"textcolor" : [ 0.996078431606293, 0.996078431606293, 0.996078431606293, 1.0 ]
				}

			}
, 			{
				"box" : 				{
					"id" : "obj-356",
					"linecount" : 2,
					"maxclass" : "comment",
					"numinlets" : 1,
					"numoutlets" : 0,
					"patching_rect" : [ 90.5, 92.5, 69.0, 33.0 ],
					"presentation" : 1,
					"presentation_linecount" : 2,
					"presentation_rect" : [ 58.0, 32.0, 69.0, 33.0 ],
					"text" : "add POINT\nto dataset"
				}

			}
, 			{
				"box" : 				{
					"bgcolor" : [ 0.96078431372549, 0.729411764705882, 0.023529411764706, 1.0 ],
					"blinkcolor" : [ 0.592156862745098, 0.411764705882353, 0.133333333333333, 1.0 ],
					"id" : "obj-357",
					"maxclass" : "button",
					"numinlets" : 1,
					"numoutlets" : 1,
					"outlettype" : [ "bang" ],
					"parameter_enable" : 0,
					"patching_rect" : [ 109.0, 126.0, 24.0, 24.0 ],
					"presentation" : 1,
					"presentation_rect" : [ 67.5, 68.5, 50.0, 50.0 ]
				}

			}
, 			{
				"box" : 				{
					"id" : "obj-358",
					"maxclass" : "message",
					"numinlets" : 2,
					"numoutlets" : 1,
					"outlettype" : [ "" ],
					"patching_rect" : [ 168.927734375, 309.5, 76.0, 22.0 ],
					"presentation" : 1,
					"presentation_rect" : [ 136.927734375, 254.5, 76.0, 22.0 ],
					"text" : "7 dongCenik",
					"textcolor" : [ 0.960784316062927, 0.729411780834198, 0.023529412224889, 1.0 ]
				}

			}
, 			{
				"box" : 				{
					"id" : "obj-360",
					"maxclass" : "message",
					"numinlets" : 2,
					"numoutlets" : 1,
					"outlettype" : [ "" ],
					"patching_rect" : [ 168.927734375, 283.5, 76.0, 22.0 ],
					"presentation" : 1,
					"presentation_rect" : [ 136.927734375, 228.5, 76.0, 22.0 ],
					"text" : "6 dangCenik",
					"textcolor" : [ 0.960784316062927, 0.729411780834198, 0.023529412224889, 1.0 ]
				}

			}
, 			{
				"box" : 				{
					"id" : "obj-361",
					"maxclass" : "message",
					"numinlets" : 2,
					"numoutlets" : 1,
					"outlettype" : [ "" ],
					"patching_rect" : [ 168.927734375, 254.5, 45.0, 22.0 ],
					"presentation" : 1,
					"presentation_rect" : [ 136.927734375, 199.5, 45.0, 22.0 ],
					"text" : "5 dung",
					"textcolor" : [ 0.960784316062927, 0.729411780834198, 0.023529412224889, 1.0 ]
				}

			}
, 			{
				"box" : 				{
					"id" : "obj-362",
					"maxclass" : "message",
					"numinlets" : 2,
					"numoutlets" : 1,
					"outlettype" : [ "" ],
					"patching_rect" : [ 168.927734375, 228.5, 45.0, 22.0 ],
					"presentation" : 1,
					"presentation_rect" : [ 136.927734375, 173.5, 45.0, 22.0 ],
					"text" : "4 deng",
					"textcolor" : [ 0.960784316062927, 0.729411780834198, 0.023529412224889, 1.0 ]
				}

			}
, 			{
				"box" : 				{
					"id" : "obj-363",
					"maxclass" : "message",
					"numinlets" : 2,
					"numoutlets" : 1,
					"outlettype" : [ "" ],
					"patching_rect" : [ 168.927734375, 200.5, 75.0, 22.0 ],
					"presentation" : 1,
					"presentation_rect" : [ 136.927734375, 145.5, 75.0, 22.0 ],
					"text" : "3 dangGede",
					"textcolor" : [ 0.960784316062927, 0.729411780834198, 0.023529412224889, 1.0 ]
				}

			}
, 			{
				"box" : 				{
					"id" : "obj-367",
					"maxclass" : "message",
					"numinlets" : 2,
					"numoutlets" : 1,
					"outlettype" : [ "" ],
					"patching_rect" : [ 168.927734375, 174.5, 75.0, 22.0 ],
					"presentation" : 1,
					"presentation_rect" : [ 136.927734375, 119.5, 75.0, 22.0 ],
					"text" : "2 dongGede",
					"textcolor" : [ 0.960784316062927, 0.729411780834198, 0.023529412224889, 1.0 ]
				}

			}
, 			{
				"box" : 				{
					"id" : "obj-368",
					"maxclass" : "message",
					"numinlets" : 2,
					"numoutlets" : 1,
					"outlettype" : [ "" ],
					"patching_rect" : [ 168.927734375, 146.5, 41.0, 22.0 ],
					"presentation" : 1,
					"presentation_rect" : [ 136.927734375, 91.5, 41.0, 22.0 ],
					"text" : "1 ding",
					"textcolor" : [ 0.960784316062927, 0.729411780834198, 0.023529412224889, 1.0 ]
				}

			}
, 			{
				"box" : 				{
					"bgcolor" : [ 0.301961, 0.301961, 0.301961, 1 ],
					"bgcolor2" : [ 0.2, 0.2, 0.2, 1 ],
					"bgfillcolor_autogradient" : 0.0,
					"bgfillcolor_color" : [ 0.2, 0.2, 0.2, 1 ],
					"bgfillcolor_color1" : [ 0.301961, 0.301961, 0.301961, 1 ],
					"bgfillcolor_color2" : [ 0.2, 0.2, 0.2, 1 ],
					"bgfillcolor_type" : "gradient",
					"gradient" : 1,
					"id" : "obj-370",
					"maxclass" : "message",
					"numinlets" : 2,
					"numoutlets" : 1,
					"outlettype" : [ "" ],
					"patching_rect" : [ 168.927734375, 120.5, 57.0, 22.0 ],
					"presentation" : 1,
					"presentation_rect" : [ 136.927734375, 65.5, 57.0, 22.0 ],
					"text" : "0 kosong",
					"textcolor" : [ 0.960784316062927, 0.729411780834198, 0.023529412224889, 1.0 ]
				}

			}
, 			{
				"box" : 				{
					"id" : "obj-371",
					"linecount" : 2,
					"maxclass" : "comment",
					"numinlets" : 1,
					"numoutlets" : 0,
					"patching_rect" : [ 168.927734375, 87.0, 54.0, 33.0 ],
					"presentation" : 1,
					"presentation_linecount" : 2,
					"presentation_rect" : [ 136.927734375, 32.0, 54.0, 33.0 ],
					"text" : "choose LABEL"
				}

			}
, 			{
				"box" : 				{
					"id" : "obj-349",
					"maxclass" : "newobj",
					"numinlets" : 6,
					"numoutlets" : 2,
					"outlettype" : [ "", "" ],
					"patching_rect" : [ 37.0361328125, 337.5, 147.0, 22.0 ],
					"text" : "datasetBuilder #1"
				}

			}
, 			{
				"box" : 				{
					"bgcolor" : [ 0.270588235294118, 0.513725490196078, 0.16078431372549, 1.0 ],
					"bgcolor2" : [ 0.2, 0.2, 0.2, 1.0 ],
					"bgfillcolor_angle" : 270.0,
					"bgfillcolor_autogradient" : 0.0,
					"bgfillcolor_color" : [ 0.2, 0.2, 0.2, 1.0 ],
					"bgfillcolor_color1" : [ 0.270588235294118, 0.513725490196078, 0.16078431372549, 1.0 ],
					"bgfillcolor_color2" : [ 0.2, 0.2, 0.2, 1.0 ],
					"bgfillcolor_proportion" : 0.5,
					"bgfillcolor_type" : "gradient",
					"gradient" : 1,
					"id" : "obj-344",
					"maxclass" : "message",
					"numinlets" : 2,
					"numoutlets" : 1,
					"outlettype" : [ "" ],
					"patching_rect" : [ 53.0, 120.5, 48.0, 22.0 ],
					"presentation" : 1,
					"presentation_rect" : [ 10.0, 68.5, 54.0, 22.0 ],
					"text" : "replace"
				}

			}
, 			{
				"box" : 				{
					"bgcolor" : [ 0.270588235294118, 0.513725490196078, 0.16078431372549, 1.0 ],
					"bgcolor2" : [ 0.2, 0.2, 0.2, 1.0 ],
					"bgfillcolor_angle" : 270.0,
					"bgfillcolor_autogradient" : 0.0,
					"bgfillcolor_color" : [ 0.2, 0.2, 0.2, 1.0 ],
					"bgfillcolor_color1" : [ 0.270588235294118, 0.513725490196078, 0.16078431372549, 1.0 ],
					"bgfillcolor_color2" : [ 0.2, 0.2, 0.2, 1.0 ],
					"bgfillcolor_proportion" : 0.5,
					"bgfillcolor_type" : "gradient",
					"gradient" : 1,
					"id" : "obj-292",
					"maxclass" : "message",
					"numinlets" : 2,
					"numoutlets" : 1,
					"outlettype" : [ "" ],
					"patching_rect" : [ 53.0, 92.5, 34.0, 22.0 ],
					"presentation" : 1,
					"presentation_rect" : [ 10.0, 42.5, 34.0, 22.0 ],
					"text" : "write"
				}

			}
, 			{
				"box" : 				{
					"id" : "obj-6",
					"maxclass" : "comment",
					"numinlets" : 1,
					"numoutlets" : 0,
					"patching_rect" : [ 48.0, 45.0, 135.0, 20.0 ],
					"text" : "Instrument as argument"
				}

			}
, 			{
				"box" : 				{
					"id" : "obj-4",
					"maxclass" : "message",
					"numinlets" : 2,
					"numoutlets" : 1,
					"outlettype" : [ "" ],
					"patching_rect" : [ 48.0, 15.0, 67.5, 22.0 ],
					"presentation" : 1,
					"presentation_rect" : [ 10.0, 10.0, 67.5, 22.0 ],
					"text" : "#1"
				}

			}
, 			{
				"box" : 				{
					"fontface" : 1,
					"id" : "obj-2",
					"maxclass" : "comment",
					"numinlets" : 1,
					"numoutlets" : 0,
					"patching_rect" : [ 257.0, 15.0, 67.0, 20.0 ],
					"text" : "Dataset UI"
				}

			}
 ],
		"lines" : [ 			{
				"patchline" : 				{
					"destination" : [ "obj-349", 0 ],
					"source" : [ "obj-1", 0 ]
				}

			}
, 			{
				"patchline" : 				{
					"destination" : [ "obj-349", 1 ],
					"source" : [ "obj-292", 0 ]
				}

			}
, 			{
				"patchline" : 				{
					"destination" : [ "obj-10", 0 ],
					"source" : [ "obj-3", 0 ]
				}

			}
, 			{
				"patchline" : 				{
					"destination" : [ "obj-349", 1 ],
					"source" : [ "obj-344", 0 ]
				}

			}
, 			{
				"patchline" : 				{
					"destination" : [ "obj-373", 1 ],
					"source" : [ "obj-349", 0 ]
				}

			}
, 			{
				"patchline" : 				{
					"destination" : [ "obj-375", 1 ],
					"source" : [ "obj-349", 1 ]
				}

			}
, 			{
				"patchline" : 				{
					"destination" : [ "obj-349", 3 ],
					"order" : 0,
					"source" : [ "obj-351", 0 ]
				}

			}
, 			{
				"patchline" : 				{
					"destination" : [ "obj-349", 2 ],
					"order" : 1,
					"source" : [ "obj-351", 0 ]
				}

			}
, 			{
				"patchline" : 				{
					"destination" : [ "obj-349", 3 ],
					"source" : [ "obj-355", 0 ]
				}

			}
, 			{
				"patchline" : 				{
					"destination" : [ "obj-349", 4 ],
					"source" : [ "obj-357", 0 ]
				}

			}
, 			{
				"patchline" : 				{
					"destination" : [ "obj-3", 0 ],
					"order" : 0,
					"source" : [ "obj-358", 0 ]
				}

			}
, 			{
				"patchline" : 				{
					"destination" : [ "obj-349", 5 ],
					"order" : 1,
					"source" : [ "obj-358", 0 ]
				}

			}
, 			{
				"patchline" : 				{
					"destination" : [ "obj-3", 0 ],
					"order" : 0,
					"source" : [ "obj-360", 0 ]
				}

			}
, 			{
				"patchline" : 				{
					"destination" : [ "obj-349", 5 ],
					"order" : 1,
					"source" : [ "obj-360", 0 ]
				}

			}
, 			{
				"patchline" : 				{
					"destination" : [ "obj-3", 0 ],
					"order" : 0,
					"source" : [ "obj-361", 0 ]
				}

			}
, 			{
				"patchline" : 				{
					"destination" : [ "obj-349", 5 ],
					"order" : 1,
					"source" : [ "obj-361", 0 ]
				}

			}
, 			{
				"patchline" : 				{
					"destination" : [ "obj-3", 0 ],
					"order" : 0,
					"source" : [ "obj-362", 0 ]
				}

			}
, 			{
				"patchline" : 				{
					"destination" : [ "obj-349", 5 ],
					"order" : 1,
					"source" : [ "obj-362", 0 ]
				}

			}
, 			{
				"patchline" : 				{
					"destination" : [ "obj-3", 0 ],
					"order" : 0,
					"source" : [ "obj-363", 0 ]
				}

			}
, 			{
				"patchline" : 				{
					"destination" : [ "obj-349", 5 ],
					"order" : 1,
					"source" : [ "obj-363", 0 ]
				}

			}
, 			{
				"patchline" : 				{
					"destination" : [ "obj-3", 0 ],
					"order" : 0,
					"source" : [ "obj-367", 0 ]
				}

			}
, 			{
				"patchline" : 				{
					"destination" : [ "obj-349", 5 ],
					"order" : 1,
					"source" : [ "obj-367", 0 ]
				}

			}
, 			{
				"patchline" : 				{
					"destination" : [ "obj-3", 0 ],
					"order" : 0,
					"source" : [ "obj-368", 0 ]
				}

			}
, 			{
				"patchline" : 				{
					"destination" : [ "obj-349", 5 ],
					"order" : 1,
					"source" : [ "obj-368", 0 ]
				}

			}
, 			{
				"patchline" : 				{
					"destination" : [ "obj-349", 5 ],
					"source" : [ "obj-370", 0 ]
				}

			}
, 			{
				"patchline" : 				{
					"destination" : [ "obj-631", 0 ],
					"source" : [ "obj-633", 0 ]
				}

			}
, 			{
				"patchline" : 				{
					"destination" : [ "obj-13", 0 ],
					"order" : 0,
					"source" : [ "obj-8", 0 ]
				}

			}
, 			{
				"patchline" : 				{
					"destination" : [ "obj-635", 0 ],
					"order" : 1,
					"source" : [ "obj-8", 0 ]
				}

			}
, 			{
				"patchline" : 				{
					"destination" : [ "obj-633", 0 ],
					"source" : [ "obj-9", 0 ]
				}

			}
 ],
		"dependency_cache" : [ 			{
				"name" : "datasetBuilder.maxpat",
				"bootpath" : "F:/Main/Documents/Udem_2021/gambangAI_ETEAUT2021/data/transcrAuto_2022-08-15",
				"patcherrelativepath" : ".",
				"type" : "JSON",
				"implicit" : 1
			}
, 			{
				"name" : "fluid.bufstats~.mxe64",
				"type" : "mx64"
			}
, 			{
				"name" : "fluid.bufflatten~.mxe64",
				"type" : "mx64"
			}
, 			{
				"name" : "fluid.libmanipulation.mxe64",
				"type" : "mx64"
			}
, 			{
				"name" : "fluid.libmanipulation.mxe64",
				"type" : "mx64"
			}
 ],
		"autosave" : 0,
		"styles" : [ 			{
				"name" : "max6box",
				"default" : 				{
					"textcolor_inverse" : [ 0.0, 0.0, 0.0, 1.0 ],
					"bgcolor" : [ 1.0, 1.0, 1.0, 0.5 ],
					"accentcolor" : [ 0.8, 0.839216, 0.709804, 1.0 ]
				}
,
				"parentstyle" : "",
				"multi" : 0
			}
, 			{
				"name" : "max6inlet",
				"default" : 				{
					"color" : [ 0.423529, 0.372549, 0.27451, 1.0 ]
				}
,
				"parentstyle" : "",
				"multi" : 0
			}
, 			{
				"name" : "max6message",
				"default" : 				{
					"textcolor_inverse" : [ 0.0, 0.0, 0.0, 1.0 ],
					"bgfillcolor" : 					{
						"type" : "gradient",
						"color1" : [ 0.866667, 0.866667, 0.866667, 1.0 ],
						"color2" : [ 0.788235, 0.788235, 0.788235, 1.0 ],
						"color" : [ 0.290196, 0.309804, 0.301961, 1.0 ],
						"angle" : 270.0,
						"proportion" : 0.39,
						"autogradient" : 0
					}

				}
,
				"parentstyle" : "max6box",
				"multi" : 0
			}
, 			{
				"name" : "max6outlet",
				"default" : 				{
					"color" : [ 0.0, 0.454902, 0.498039, 1.0 ]
				}
,
				"parentstyle" : "",
				"multi" : 0
			}
 ]
	}

}
