#N canvas -6 61 1920 976 12;
#X obj 117 62 inlet;
#X floatatom 354 469 5 0 0 0 - - - 0;
#X obj 354 409 t b i;
#X obj 98 538 +;
#X floatatom 117 138 5 0 0 0 - - - 0;
#X obj 98 712 outlet;
#X obj 574 678 outlet;
#X text 50 711 Polos;
#X text 629 677 Sangsih;
#X obj 300 218 tgl 15 0 empty empty empty 17 7 0 10 #fcfcc8 #000000 #000000 0 1;
#X obj 321 218 tgl 15 0 empty empty empty 17 7 0 10 #fcfcc8 #000000 #000000 0 1;
#X obj 343 218 tgl 15 0 empty empty empty 17 7 0 10 #fcfcc8 #000000 #000000 0 1;
#X obj 364 218 tgl 15 0 empty empty empty 17 7 0 10 #fcfcc8 #000000 #000000 0 1;
#X obj 385 218 tgl 15 0 empty empty empty 17 7 0 10 #fcfcc8 #000000 #000000 0 1;
#X obj 406 218 tgl 15 0 empty empty empty 17 7 0 10 #fcfcc8 #000000 #000000 0 1;
#X obj 428 218 tgl 15 0 empty empty empty 17 7 0 10 #fcfcc8 #000000 #000000 0 1;
#X obj 449 218 tgl 15 0 empty empty empty 17 7 0 10 #fcfcc8 #000000 #000000 0 1;
#X obj 311 139 sel 0 1 2 3 4 5 6 7;
#X obj 71 63 inlet;
#X text 122 42 Nada;
#X text 58 43 ketukan;
#X obj 261 253 spigot;
#X obj 282 278 spigot;
#X obj 304 301 spigot;
#X obj 325 329 spigot;
#X obj 346 255 spigot;
#X obj 367 283 spigot;
#X obj 389 307 spigot;
#X obj 410 331 spigot;
#X obj 354 434 random 2;
#X obj 574 403 t b i;
#X obj 520 217 tgl 15 0 empty empty empty 17 7 0 10 #fcfcc8 #000000 #000000 0 1;
#X obj 541 217 tgl 15 0 empty empty empty 17 7 0 10 #fcfcc8 #000000 #000000 0 1;
#X obj 563 217 tgl 15 0 empty empty empty 17 7 0 10 #fcfcc8 #000000 #000000 0 1;
#X obj 584 217 tgl 15 0 empty empty empty 17 7 0 10 #fcfcc8 #000000 #000000 0 1;
#X obj 605 217 tgl 15 0 empty empty empty 17 7 0 10 #fcfcc8 #000000 #000000 0 1;
#X obj 626 217 tgl 15 0 empty empty empty 17 7 0 10 #fcfcc8 #000000 #000000 0 1;
#X obj 648 217 tgl 15 0 empty empty empty 17 7 0 10 #fcfcc8 #000000 #000000 0 1;
#X obj 669 217 tgl 15 0 empty empty empty 17 7 0 10 #fcfcc8 #000000 #000000 0 1;
#X obj 481 252 spigot;
#X obj 502 277 spigot;
#X obj 524 300 spigot;
#X obj 545 328 spigot;
#X obj 566 254 spigot;
#X obj 587 282 spigot;
#X obj 609 306 spigot;
#X obj 630 330 spigot;
#X obj 574 428 random 2;
#X msg 261 433 0;
#X text 43 646 Kalau lebih tinggi dari batasan instrument (9) \, dia bermain nada di bawah 9, f 24;
#X obj 520 102 == 0;
#X obj 541 124 == 0;
#X obj 563 146 == 0;
#X obj 584 168 == 0;
#X obj 605 105 == 0;
#X obj 626 127 == 0;
#X obj 648 149 == 0;
#X obj 669 171 == 0;
#X obj 574 521 +;
#X obj 574 459 + 2;
#X text 356 202 Polos;
#X text 569 200 Sangsih;
#X obj 335 822 tgl 15 0 empty empty empty 17 7 0 10 #fcfcfc #000000 #000000 0 1;
#X obj 356 822 tgl 15 0 empty empty empty 17 7 0 10 #fcfcfc #000000 #000000 0 1;
#X obj 378 822 tgl 15 0 empty empty empty 17 7 0 10 #fcfcfc #000000 #000000 0 1;
#X obj 399 822 tgl 15 0 empty empty empty 17 7 0 10 #fcfcfc #000000 #000000 0 1;
#X obj 420 822 tgl 15 0 empty empty empty 17 7 0 10 #fcfcfc #000000 #000000 0 1;
#X obj 441 822 tgl 15 0 empty empty empty 17 7 0 10 #fcfcfc #000000 #000000 0 1;
#X obj 463 822 tgl 15 0 empty empty empty 17 7 0 10 #fcfcfc #000000 #000000 0 1;
#X obj 484 822 tgl 15 0 empty empty empty 17 7 0 10 #fcfcfc #000000 #000000 0 1;
#X obj 326 694 +;
#X obj 324 666 t b i;
#X obj 326 717 > 1;
#X obj 374 693 +;
#X obj 372 665 t b i;
#X obj 374 716 > 1;
#X obj 423 690 +;
#X obj 421 662 t b i;
#X obj 423 713 > 1;
#X obj 472 691 +;
#X obj 470 663 t b i;
#X obj 472 714 > 1;
#X obj 324 773 +;
#X obj 322 745 t b i;
#X obj 324 796 > 1;
#X obj 372 772 +;
#X obj 370 744 t b i;
#X obj 372 795 > 1;
#X obj 421 769 +;
#X obj 419 741 t b i;
#X obj 421 792 > 1;
#X obj 470 770 +;
#X obj 468 742 t b i;
#X obj 470 793 > 1;
#X obj 296 853 spigot;
#X obj 317 878 spigot;
#X obj 339 901 spigot;
#X obj 360 929 spigot;
#X obj 381 855 spigot;
#X obj 402 883 spigot;
#X obj 424 907 spigot;
#X obj 445 931 spigot;
#X obj 55 885 moses 1;
#X obj 55 861 i;
#X obj 67 969 moses 1;
#X obj 67 945 i;
#X obj 99 1034 moses 1;
#X obj 99 1010 i;
#X obj 119 826 moses 1;
#X obj 119 802 i;
#X obj 143 900 moses 1;
#X obj 143 876 i;
#X obj 172 977 moses 1;
#X obj 172 953 i;
#X obj 204 1040 moses 1;
#X obj 204 1016 i;
#X msg 287 769 3;
#X msg 54 911 3;
#X msg 65 995 3;
#X msg 98 1061 3;
#X msg 204 1065 3;
#X msg 172 1001 3;
#X msg 144 926 3;
#X msg 119 848 3;
#X floatatom 484 1003 5 0 0 0 - - - 0;
#X floatatom 574 492 5 0 0 0 - - - 0;
#X obj 372 31 r hid_L1;
#X obj 445 31 r hid_L2;
#X obj 519 31 r hid_R1;
#X obj 587 31 r hid_R2;
#N canvas 832 80 455 556 selectKetukan 0;
#X obj 191 28 sel 1;
#X obj 44 29 sel 1;
#X obj 193 123 r hid_X;
#X obj 258 122 r hid_O;
#X msg 193 154 1;
#X msg 258 153 0;
#X obj 44 80 - 1;
#X obj 191 77 + 1;
#X obj 44 54 i;
#X obj 191 52 i;
#X obj 97 150 clip 0 7;
#X obj 97 182 spigot;
#X obj 117 76 t b i;
#X obj 98 113 i;
#X obj 45 278 == 0;
#X obj 84 278 == 1;
#X obj 122 278 == 2;
#X obj 161 278 == 3;
#X obj 200 277 == 4;
#X obj 239 277 == 5;
#X obj 277 277 == 6;
#X obj 316 277 == 7;
#N canvas 1220 58 524 558 toggleSelect 0;
#X obj 24 24 inlet;
#X obj 99 27 inlet;
#X msg 24 173 color \$1 \$2 \$3;
#X obj 24 145 pack 0 22 22, f 20;
#X msg 24 116 44;
#X msg 58 117 5;
#X obj 24 90 sel 1;
#X obj 99 116 spigot;
#X obj 24 213 outlet;
#X text 24 234 Mengganti warna dan lewat nilai;
#X text 20 6 Select;
#X text 100 6 Nilai;
#X connect 0 0 7 1;
#X connect 0 0 6 0;
#X connect 1 0 7 0;
#X connect 2 0 8 0;
#X connect 3 0 2 0;
#X connect 4 0 3 0;
#X connect 5 0 3 0;
#X connect 6 0 4 0;
#X connect 6 1 5 0;
#X connect 7 0 8 0;
#X restore 82 334 pd toggleSelect;
#N canvas 1220 58 524 558 toggleSelect 0;
#X obj 24 24 inlet;
#X obj 99 27 inlet;
#X msg 24 173 color \$1 \$2 \$3;
#X obj 24 145 pack 0 22 22, f 20;
#X msg 24 116 44;
#X msg 58 117 5;
#X obj 24 90 sel 1;
#X obj 99 116 spigot;
#X obj 24 213 outlet;
#X text 24 234 Mengganti warna dan lewat nilai;
#X text 20 6 Select;
#X text 100 6 Nilai;
#X connect 0 0 7 1;
#X connect 0 0 6 0;
#X connect 1 0 7 0;
#X connect 2 0 8 0;
#X connect 3 0 2 0;
#X connect 4 0 3 0;
#X connect 5 0 3 0;
#X connect 6 0 4 0;
#X connect 6 1 5 0;
#X connect 7 0 8 0;
#X restore 43 308 pd toggleSelect;
#N canvas 1220 58 524 558 toggleSelect 0;
#X obj 24 24 inlet;
#X obj 99 27 inlet;
#X msg 24 173 color \$1 \$2 \$3;
#X obj 24 145 pack 0 22 22, f 20;
#X msg 24 116 44;
#X msg 58 117 5;
#X obj 24 90 sel 1;
#X obj 99 116 spigot;
#X obj 24 213 outlet;
#X text 24 234 Mengganti warna dan lewat nilai;
#X text 20 6 Select;
#X text 100 6 Nilai;
#X connect 0 0 7 1;
#X connect 0 0 6 0;
#X connect 1 0 7 0;
#X connect 2 0 8 0;
#X connect 3 0 2 0;
#X connect 4 0 3 0;
#X connect 5 0 3 0;
#X connect 6 0 4 0;
#X connect 6 1 5 0;
#X connect 7 0 8 0;
#X restore 144 385 pd toggleSelect;
#N canvas 1220 58 524 558 toggleSelect 0;
#X obj 24 24 inlet;
#X obj 99 27 inlet;
#X msg 24 173 color \$1 \$2 \$3;
#X obj 24 145 pack 0 22 22, f 20;
#X msg 24 116 44;
#X msg 58 117 5;
#X obj 24 90 sel 1;
#X obj 99 116 spigot;
#X obj 24 213 outlet;
#X text 24 234 Mengganti warna dan lewat nilai;
#X text 20 6 Select;
#X text 100 6 Nilai;
#X connect 0 0 7 1;
#X connect 0 0 6 0;
#X connect 1 0 7 0;
#X connect 2 0 8 0;
#X connect 3 0 2 0;
#X connect 4 0 3 0;
#X connect 5 0 3 0;
#X connect 6 0 4 0;
#X connect 6 1 5 0;
#X connect 7 0 8 0;
#X restore 105 359 pd toggleSelect;
#N canvas 1220 58 524 558 toggleSelect 0;
#X obj 24 24 inlet;
#X obj 99 27 inlet;
#X msg 24 173 color \$1 \$2 \$3;
#X obj 24 145 pack 0 22 22, f 20;
#X msg 24 116 44;
#X msg 58 117 5;
#X obj 24 90 sel 1;
#X obj 99 116 spigot;
#X obj 24 213 outlet;
#X text 24 234 Mengganti warna dan lewat nilai;
#X text 20 6 Select;
#X text 100 6 Nilai;
#X connect 0 0 7 1;
#X connect 0 0 6 0;
#X connect 1 0 7 0;
#X connect 2 0 8 0;
#X connect 3 0 2 0;
#X connect 4 0 3 0;
#X connect 5 0 3 0;
#X connect 6 0 4 0;
#X connect 6 1 5 0;
#X connect 7 0 8 0;
#X restore 69 424 pd toggleSelect;
#N canvas 1220 58 270 278 toggleSelect 0;
#X obj 24 24 inlet;
#X obj 99 27 inlet;
#X msg 24 173 color \$1 \$2 \$3;
#X obj 24 145 pack 0 22 22, f 20;
#X msg 24 116 44;
#X msg 58 117 5;
#X obj 24 90 sel 1;
#X obj 99 116 spigot;
#X obj 24 213 outlet;
#X text 24 234 Mengganti warna dan lewat nilai;
#X text 20 6 Select;
#X text 100 6 Nilai;
#X connect 0 0 7 1;
#X connect 0 0 6 0;
#X connect 1 0 7 0;
#X connect 2 0 8 0;
#X connect 3 0 2 0;
#X connect 4 0 3 0;
#X connect 5 0 3 0;
#X connect 6 0 4 0;
#X connect 6 1 5 0;
#X connect 7 0 8 0;
#X restore 30 398 pd toggleSelect;
#N canvas 1220 58 524 558 toggleSelect 0;
#X obj 24 24 inlet;
#X obj 99 27 inlet;
#X msg 24 173 color \$1 \$2 \$3;
#X obj 24 145 pack 0 22 22, f 20;
#X msg 24 116 44;
#X msg 58 117 5;
#X obj 24 90 sel 1;
#X obj 99 116 spigot;
#X obj 24 213 outlet;
#X text 24 234 Mengganti warna dan lewat nilai;
#X text 20 6 Select;
#X text 100 6 Nilai;
#X connect 0 0 7 1;
#X connect 0 0 6 0;
#X connect 1 0 7 0;
#X connect 2 0 8 0;
#X connect 3 0 2 0;
#X connect 4 0 3 0;
#X connect 5 0 3 0;
#X connect 6 0 4 0;
#X connect 6 1 5 0;
#X connect 7 0 8 0;
#X restore 131 475 pd toggleSelect;
#N canvas 1220 58 524 558 toggleSelect 0;
#X obj 24 24 inlet;
#X obj 99 27 inlet;
#X msg 24 173 color \$1 \$2 \$3;
#X obj 24 145 pack 0 22 22, f 20;
#X msg 24 116 44;
#X msg 58 117 5;
#X obj 24 90 sel 1;
#X obj 99 116 spigot;
#X obj 24 213 outlet;
#X text 24 234 Mengganti warna dan lewat nilai;
#X text 20 6 Select;
#X text 100 6 Nilai;
#X connect 0 0 7 1;
#X connect 0 0 6 0;
#X connect 1 0 7 0;
#X connect 2 0 8 0;
#X connect 3 0 2 0;
#X connect 4 0 3 0;
#X connect 5 0 3 0;
#X connect 6 0 4 0;
#X connect 6 1 5 0;
#X connect 7 0 8 0;
#X restore 92 449 pd toggleSelect;
#X obj 45 5 inlet;
#X obj 117 7 inlet;
#X text 12 22 -;
#X obj 190 3 inlet;
#X text 237 28 +;
#X text 121 43 Hold;
#X obj 19 501 outlet;
#X obj 70 502 outlet;
#X obj 121 502 outlet;
#X obj 172 502 outlet;
#X obj 223 503 outlet;
#X obj 274 503 outlet;
#X obj 325 502 outlet;
#X obj 376 502 outlet;
#X connect 0 0 9 0;
#X connect 1 0 8 0;
#X connect 2 0 4 0;
#X connect 3 0 5 0;
#X connect 4 0 22 1;
#X connect 4 0 23 1;
#X connect 4 0 25 1;
#X connect 4 0 24 1;
#X connect 4 0 27 1;
#X connect 4 0 26 1;
#X connect 4 0 29 1;
#X connect 4 0 28 1;
#X connect 5 0 22 1;
#X connect 5 0 23 1;
#X connect 5 0 25 1;
#X connect 5 0 24 1;
#X connect 5 0 27 1;
#X connect 5 0 26 1;
#X connect 5 0 29 1;
#X connect 5 0 28 1;
#X connect 6 0 10 0;
#X connect 7 0 10 0;
#X connect 8 0 6 0;
#X connect 9 0 7 0;
#X connect 10 0 11 0;
#X connect 11 0 8 1;
#X connect 11 0 9 1;
#X connect 11 0 13 1;
#X connect 11 0 14 0;
#X connect 11 0 15 0;
#X connect 11 0 16 0;
#X connect 11 0 17 0;
#X connect 11 0 18 0;
#X connect 11 0 19 0;
#X connect 11 0 20 0;
#X connect 11 0 21 0;
#X connect 12 0 13 0;
#X connect 12 1 11 1;
#X connect 12 1 22 0;
#X connect 12 1 23 0;
#X connect 12 1 25 0;
#X connect 12 1 24 0;
#X connect 12 1 27 0;
#X connect 12 1 26 0;
#X connect 12 1 29 0;
#X connect 12 1 28 0;
#X connect 13 0 10 0;
#X connect 14 0 23 0;
#X connect 15 0 22 0;
#X connect 16 0 25 0;
#X connect 17 0 24 0;
#X connect 18 0 27 0;
#X connect 19 0 26 0;
#X connect 20 0 29 0;
#X connect 21 0 28 0;
#X connect 22 0 37 0;
#X connect 23 0 36 0;
#X connect 24 0 39 0;
#X connect 25 0 38 0;
#X connect 26 0 41 0;
#X connect 27 0 40 0;
#X connect 28 0 43 0;
#X connect 29 0 42 0;
#X connect 30 0 1 0;
#X connect 31 0 12 0;
#X connect 33 0 0 0;
#X restore 392 64 pd selectKetukan;
#N canvas 832 80 805 861 selectKetukan 0;
#X obj 191 28 sel 1;
#X obj 44 29 sel 1;
#X obj 193 123 r hid_X;
#X obj 258 122 r hid_O;
#X msg 193 154 1;
#X msg 258 153 0;
#X obj 44 80 - 1;
#X obj 191 77 + 1;
#X obj 44 54 i;
#X obj 191 52 i;
#X obj 97 150 clip 0 7;
#X obj 97 182 spigot;
#X obj 117 76 t b i;
#X obj 98 113 i;
#X obj 45 278 == 0;
#X obj 84 278 == 1;
#X obj 122 278 == 2;
#X obj 161 278 == 3;
#X obj 200 277 == 4;
#X obj 239 277 == 5;
#X obj 277 277 == 6;
#X obj 316 277 == 7;
#N canvas 1220 58 524 558 toggleSelect 0;
#X obj 24 24 inlet;
#X obj 99 27 inlet;
#X msg 24 173 color \$1 \$2 \$3;
#X obj 24 145 pack 0 22 22, f 20;
#X msg 24 116 44;
#X msg 58 117 5;
#X obj 24 90 sel 1;
#X obj 99 116 spigot;
#X obj 24 213 outlet;
#X text 24 234 Mengganti warna dan lewat nilai;
#X text 20 6 Select;
#X text 100 6 Nilai;
#X connect 0 0 7 1;
#X connect 0 0 6 0;
#X connect 1 0 7 0;
#X connect 2 0 8 0;
#X connect 3 0 2 0;
#X connect 4 0 3 0;
#X connect 5 0 3 0;
#X connect 6 0 4 0;
#X connect 6 1 5 0;
#X connect 7 0 8 0;
#X restore 82 334 pd toggleSelect;
#N canvas 1220 58 524 558 toggleSelect 0;
#X obj 24 24 inlet;
#X obj 99 27 inlet;
#X msg 24 173 color \$1 \$2 \$3;
#X obj 24 145 pack 0 22 22, f 20;
#X msg 24 116 44;
#X msg 58 117 5;
#X obj 24 90 sel 1;
#X obj 99 116 spigot;
#X obj 24 213 outlet;
#X text 24 234 Mengganti warna dan lewat nilai;
#X text 20 6 Select;
#X text 100 6 Nilai;
#X connect 0 0 7 1;
#X connect 0 0 6 0;
#X connect 1 0 7 0;
#X connect 2 0 8 0;
#X connect 3 0 2 0;
#X connect 4 0 3 0;
#X connect 5 0 3 0;
#X connect 6 0 4 0;
#X connect 6 1 5 0;
#X connect 7 0 8 0;
#X restore 43 308 pd toggleSelect;
#N canvas 1220 58 524 558 toggleSelect 0;
#X obj 24 24 inlet;
#X obj 99 27 inlet;
#X msg 24 173 color \$1 \$2 \$3;
#X obj 24 145 pack 0 22 22, f 20;
#X msg 24 116 44;
#X msg 58 117 5;
#X obj 24 90 sel 1;
#X obj 99 116 spigot;
#X obj 24 213 outlet;
#X text 24 234 Mengganti warna dan lewat nilai;
#X text 20 6 Select;
#X text 100 6 Nilai;
#X connect 0 0 7 1;
#X connect 0 0 6 0;
#X connect 1 0 7 0;
#X connect 2 0 8 0;
#X connect 3 0 2 0;
#X connect 4 0 3 0;
#X connect 5 0 3 0;
#X connect 6 0 4 0;
#X connect 6 1 5 0;
#X connect 7 0 8 0;
#X restore 144 385 pd toggleSelect;
#N canvas 1220 58 524 558 toggleSelect 0;
#X obj 24 24 inlet;
#X obj 99 27 inlet;
#X msg 24 173 color \$1 \$2 \$3;
#X obj 24 145 pack 0 22 22, f 20;
#X msg 24 116 44;
#X msg 58 117 5;
#X obj 24 90 sel 1;
#X obj 99 116 spigot;
#X obj 24 213 outlet;
#X text 24 234 Mengganti warna dan lewat nilai;
#X text 20 6 Select;
#X text 100 6 Nilai;
#X connect 0 0 7 1;
#X connect 0 0 6 0;
#X connect 1 0 7 0;
#X connect 2 0 8 0;
#X connect 3 0 2 0;
#X connect 4 0 3 0;
#X connect 5 0 3 0;
#X connect 6 0 4 0;
#X connect 6 1 5 0;
#X connect 7 0 8 0;
#X restore 105 359 pd toggleSelect;
#N canvas 1220 58 524 558 toggleSelect 0;
#X obj 24 24 inlet;
#X obj 99 27 inlet;
#X msg 24 173 color \$1 \$2 \$3;
#X obj 24 145 pack 0 22 22, f 20;
#X msg 24 116 44;
#X msg 58 117 5;
#X obj 24 90 sel 1;
#X obj 99 116 spigot;
#X obj 24 213 outlet;
#X text 24 234 Mengganti warna dan lewat nilai;
#X text 20 6 Select;
#X text 100 6 Nilai;
#X connect 0 0 7 1;
#X connect 0 0 6 0;
#X connect 1 0 7 0;
#X connect 2 0 8 0;
#X connect 3 0 2 0;
#X connect 4 0 3 0;
#X connect 5 0 3 0;
#X connect 6 0 4 0;
#X connect 6 1 5 0;
#X connect 7 0 8 0;
#X restore 69 424 pd toggleSelect;
#N canvas 1220 58 524 558 toggleSelect 0;
#X obj 24 24 inlet;
#X obj 99 27 inlet;
#X msg 24 173 color \$1 \$2 \$3;
#X obj 24 145 pack 0 22 22, f 20;
#X msg 24 116 44;
#X msg 58 117 5;
#X obj 24 90 sel 1;
#X obj 99 116 spigot;
#X obj 24 213 outlet;
#X text 24 234 Mengganti warna dan lewat nilai;
#X text 20 6 Select;
#X text 100 6 Nilai;
#X connect 0 0 7 1;
#X connect 0 0 6 0;
#X connect 1 0 7 0;
#X connect 2 0 8 0;
#X connect 3 0 2 0;
#X connect 4 0 3 0;
#X connect 5 0 3 0;
#X connect 6 0 4 0;
#X connect 6 1 5 0;
#X connect 7 0 8 0;
#X restore 30 398 pd toggleSelect;
#N canvas 1220 58 524 558 toggleSelect 0;
#X obj 24 24 inlet;
#X obj 99 27 inlet;
#X msg 24 173 color \$1 \$2 \$3;
#X obj 24 145 pack 0 22 22, f 20;
#X msg 24 116 44;
#X msg 58 117 5;
#X obj 24 90 sel 1;
#X obj 99 116 spigot;
#X obj 24 213 outlet;
#X text 24 234 Mengganti warna dan lewat nilai;
#X text 20 6 Select;
#X text 100 6 Nilai;
#X connect 0 0 7 1;
#X connect 0 0 6 0;
#X connect 1 0 7 0;
#X connect 2 0 8 0;
#X connect 3 0 2 0;
#X connect 4 0 3 0;
#X connect 5 0 3 0;
#X connect 6 0 4 0;
#X connect 6 1 5 0;
#X connect 7 0 8 0;
#X restore 131 475 pd toggleSelect;
#N canvas 1220 58 524 558 toggleSelect 0;
#X obj 24 24 inlet;
#X obj 99 27 inlet;
#X msg 24 173 color \$1 \$2 \$3;
#X obj 24 145 pack 0 22 22, f 20;
#X msg 24 116 44;
#X msg 58 117 5;
#X obj 24 90 sel 1;
#X obj 99 116 spigot;
#X obj 24 213 outlet;
#X text 24 234 Mengganti warna dan lewat nilai;
#X text 20 6 Select;
#X text 100 6 Nilai;
#X connect 0 0 7 1;
#X connect 0 0 6 0;
#X connect 1 0 7 0;
#X connect 2 0 8 0;
#X connect 3 0 2 0;
#X connect 4 0 3 0;
#X connect 5 0 3 0;
#X connect 6 0 4 0;
#X connect 6 1 5 0;
#X connect 7 0 8 0;
#X restore 92 449 pd toggleSelect;
#X obj 45 5 inlet;
#X obj 117 7 inlet;
#X text 12 22 -;
#X obj 190 3 inlet;
#X text 237 28 +;
#X text 121 43 Hold;
#X obj 19 501 outlet;
#X obj 70 502 outlet;
#X obj 121 502 outlet;
#X obj 172 502 outlet;
#X obj 223 503 outlet;
#X obj 274 503 outlet;
#X obj 325 502 outlet;
#X obj 376 502 outlet;
#X connect 0 0 9 0;
#X connect 1 0 8 0;
#X connect 2 0 4 0;
#X connect 3 0 5 0;
#X connect 4 0 22 1;
#X connect 4 0 23 1;
#X connect 4 0 25 1;
#X connect 4 0 24 1;
#X connect 4 0 27 1;
#X connect 4 0 26 1;
#X connect 4 0 29 1;
#X connect 4 0 28 1;
#X connect 5 0 22 1;
#X connect 5 0 23 1;
#X connect 5 0 25 1;
#X connect 5 0 24 1;
#X connect 5 0 27 1;
#X connect 5 0 26 1;
#X connect 5 0 29 1;
#X connect 5 0 28 1;
#X connect 6 0 10 0;
#X connect 7 0 10 0;
#X connect 8 0 6 0;
#X connect 9 0 7 0;
#X connect 10 0 11 0;
#X connect 11 0 8 1;
#X connect 11 0 9 1;
#X connect 11 0 13 1;
#X connect 11 0 14 0;
#X connect 11 0 15 0;
#X connect 11 0 16 0;
#X connect 11 0 17 0;
#X connect 11 0 18 0;
#X connect 11 0 19 0;
#X connect 11 0 20 0;
#X connect 11 0 21 0;
#X connect 12 0 13 0;
#X connect 12 1 11 1;
#X connect 12 1 22 0;
#X connect 12 1 23 0;
#X connect 12 1 25 0;
#X connect 12 1 24 0;
#X connect 12 1 27 0;
#X connect 12 1 26 0;
#X connect 12 1 29 0;
#X connect 12 1 28 0;
#X connect 13 0 10 0;
#X connect 14 0 23 0;
#X connect 15 0 22 0;
#X connect 16 0 25 0;
#X connect 17 0 24 0;
#X connect 18 0 27 0;
#X connect 19 0 26 0;
#X connect 20 0 29 0;
#X connect 21 0 28 0;
#X connect 22 0 37 0;
#X connect 23 0 36 0;
#X connect 24 0 39 0;
#X connect 25 0 38 0;
#X connect 26 0 41 0;
#X connect 27 0 40 0;
#X connect 28 0 43 0;
#X connect 29 0 42 0;
#X connect 30 0 1 0;
#X connect 31 0 12 0;
#X connect 33 0 0 0;
#X restore 522 63 pd selectKetukan;
#X floatatom 788 102 5 0 0 0 - - - 0;
#X obj 788 65 inlet;
#X text 781 40 Daun berapa;
#X obj 98 619 expr if ($f1 > $f2 \, $f1 - 2 \, $f1);
#X obj 574 611 expr if ($f1 > $f2 \, $f2-2 \, $f1);
#X connect 0 0 4 0;
#X connect 1 0 3 0;
#X connect 1 0 103 1;
#X connect 1 0 105 1;
#X connect 1 0 107 1;
#X connect 1 0 109 1;
#X connect 1 0 111 1;
#X connect 1 0 113 1;
#X connect 1 0 115 1;
#X connect 2 0 29 0;
#X connect 3 0 135 0;
#X connect 4 0 3 1;
#X connect 4 0 58 1;
#X connect 9 0 21 1;
#X connect 9 0 50 0;
#X connect 9 0 70 0;
#X connect 10 0 22 1;
#X connect 10 0 51 0;
#X connect 10 0 73 0;
#X connect 11 0 23 1;
#X connect 11 0 52 0;
#X connect 11 0 76 0;
#X connect 12 0 24 1;
#X connect 12 0 53 0;
#X connect 12 0 79 0;
#X connect 13 0 25 1;
#X connect 13 0 54 0;
#X connect 13 0 82 0;
#X connect 14 0 26 1;
#X connect 14 0 55 0;
#X connect 14 0 85 0;
#X connect 15 0 27 1;
#X connect 15 0 56 0;
#X connect 15 0 88 0;
#X connect 16 0 28 1;
#X connect 16 0 57 0;
#X connect 16 0 91 0;
#X connect 17 0 21 0;
#X connect 17 0 39 0;
#X connect 17 1 22 0;
#X connect 17 1 40 0;
#X connect 17 1 103 0;
#X connect 17 2 23 0;
#X connect 17 2 41 0;
#X connect 17 2 105 0;
#X connect 17 3 24 0;
#X connect 17 3 42 0;
#X connect 17 3 107 0;
#X connect 17 4 25 0;
#X connect 17 4 43 0;
#X connect 17 4 109 0;
#X connect 17 5 26 0;
#X connect 17 5 44 0;
#X connect 17 5 111 0;
#X connect 17 6 27 0;
#X connect 17 6 45 0;
#X connect 17 6 113 0;
#X connect 17 7 28 0;
#X connect 17 7 46 0;
#X connect 17 7 115 0;
#X connect 18 0 17 0;
#X connect 21 0 48 0;
#X connect 21 0 116 0;
#X connect 22 0 2 0;
#X connect 23 0 2 0;
#X connect 24 0 2 0;
#X connect 25 0 2 0;
#X connect 26 0 2 0;
#X connect 27 0 2 0;
#X connect 28 0 2 0;
#X connect 29 0 1 0;
#X connect 30 0 47 0;
#X connect 31 0 39 1;
#X connect 31 0 71 0;
#X connect 32 0 40 1;
#X connect 32 0 74 0;
#X connect 33 0 41 1;
#X connect 33 0 77 0;
#X connect 34 0 42 1;
#X connect 34 0 80 0;
#X connect 35 0 43 1;
#X connect 35 0 83 0;
#X connect 36 0 44 1;
#X connect 36 0 86 0;
#X connect 37 0 45 1;
#X connect 37 0 89 0;
#X connect 38 0 46 1;
#X connect 38 0 92 0;
#X connect 39 0 30 0;
#X connect 40 0 30 0;
#X connect 41 0 30 0;
#X connect 42 0 30 0;
#X connect 43 0 30 0;
#X connect 44 0 30 0;
#X connect 45 0 30 0;
#X connect 46 0 30 0;
#X connect 47 0 59 0;
#X connect 48 0 1 0;
#X connect 50 0 31 0;
#X connect 51 0 32 0;
#X connect 52 0 33 0;
#X connect 53 0 34 0;
#X connect 54 0 35 0;
#X connect 55 0 36 0;
#X connect 56 0 37 0;
#X connect 57 0 38 0;
#X connect 58 0 136 0;
#X connect 59 0 125 0;
#X connect 62 0 94 1;
#X connect 63 0 95 1;
#X connect 64 0 96 1;
#X connect 65 0 97 1;
#X connect 66 0 98 1;
#X connect 67 0 99 1;
#X connect 68 0 100 1;
#X connect 69 0 101 1;
#X connect 70 0 72 0;
#X connect 71 0 70 0;
#X connect 71 1 70 1;
#X connect 72 0 62 0;
#X connect 73 0 75 0;
#X connect 74 0 73 0;
#X connect 74 1 73 1;
#X connect 75 0 63 0;
#X connect 76 0 78 0;
#X connect 77 0 76 0;
#X connect 77 1 76 1;
#X connect 78 0 64 0;
#X connect 79 0 81 0;
#X connect 80 0 79 0;
#X connect 80 1 79 1;
#X connect 81 0 65 0;
#X connect 82 0 84 0;
#X connect 83 0 82 0;
#X connect 83 1 82 1;
#X connect 84 0 66 0;
#X connect 85 0 87 0;
#X connect 86 0 85 0;
#X connect 86 1 85 1;
#X connect 87 0 67 0;
#X connect 88 0 90 0;
#X connect 89 0 88 0;
#X connect 89 1 88 1;
#X connect 90 0 68 0;
#X connect 91 0 93 0;
#X connect 92 0 91 0;
#X connect 92 1 91 1;
#X connect 93 0 69 0;
#X connect 94 0 124 0;
#X connect 95 0 124 0;
#X connect 96 0 124 0;
#X connect 97 0 124 0;
#X connect 98 0 124 0;
#X connect 99 0 124 0;
#X connect 100 0 124 0;
#X connect 101 0 124 0;
#X connect 102 0 117 0;
#X connect 102 1 95 0;
#X connect 103 0 102 0;
#X connect 104 0 118 0;
#X connect 104 1 96 0;
#X connect 105 0 104 0;
#X connect 106 0 119 0;
#X connect 106 1 97 0;
#X connect 107 0 106 0;
#X connect 108 0 123 0;
#X connect 108 1 98 0;
#X connect 109 0 108 0;
#X connect 110 0 122 0;
#X connect 110 1 99 0;
#X connect 111 0 110 0;
#X connect 112 0 121 0;
#X connect 112 1 100 0;
#X connect 113 0 112 0;
#X connect 114 0 120 0;
#X connect 114 1 101 0;
#X connect 115 0 114 0;
#X connect 116 0 94 0;
#X connect 117 0 95 0;
#X connect 118 0 96 0;
#X connect 119 0 97 0;
#X connect 120 0 101 0;
#X connect 121 0 100 0;
#X connect 122 0 99 0;
#X connect 123 0 98 0;
#X connect 124 0 125 0;
#X connect 125 0 58 0;
#X connect 126 0 130 0;
#X connect 126 0 131 0;
#X connect 127 0 130 1;
#X connect 128 0 130 2;
#X connect 128 0 131 2;
#X connect 129 0 131 1;
#X connect 130 0 9 0;
#X connect 130 1 10 0;
#X connect 130 2 11 0;
#X connect 130 3 12 0;
#X connect 130 4 13 0;
#X connect 130 5 14 0;
#X connect 130 6 15 0;
#X connect 130 7 16 0;
#X connect 131 0 31 0;
#X connect 131 1 32 0;
#X connect 131 2 33 0;
#X connect 131 3 34 0;
#X connect 131 4 35 0;
#X connect 131 5 36 0;
#X connect 131 6 37 0;
#X connect 131 7 38 0;
#X connect 132 0 135 1;
#X connect 132 0 136 1;
#X connect 133 0 132 0;
#X connect 135 0 5 0;
#X connect 136 0 6 0;
#X coords 0 -1 1 1 400 60 1 290 180;
