#N canvas 367 222 555 703 12;
#X obj 157 300 int;
#X obj 287 651 outlet;
#X obj 117 96 inlet;
#X obj 117 651 outlet;
#X obj 118 397 delay;
#X obj 118 335 random;
#X obj 118 431 i;
#X obj 118 370 t b i;
#X obj 283 257 tgl 15 0 empty empty lewat 17 7 0 10 #fcc4c4 #000000 #000000 0 1;
#X obj 400 257 tgl 15 0 empty empty lewat 17 7 0 10 #fcc4c4 #000000 #000000 0 1;
#X floatatom 240 254 5 0 0 0 - - - 0;
#X floatatom 359 255 5 0 1 0 - - - 0;
#X text 112 20 Memanusiakan kecepatan dan velocity (kekuatan) pukulan;
#X obj 348 477 -;
#X obj 348 500 clip 0 1;
#X obj 348 451 t b f;
#X obj 305 88 inlet;
#X text 122 633 Val Nada keluar;
#X text 297 633 Vel;
#X text 115 79 Val nada;
#X obj 187 100 inlet;
#X text 186 80 Delay in ms;
#X text 306 69 Vel;
#X obj 436 95 inlet;
#X text 436 74 Perbedaan vel;
#X obj 386 586 spigot;
#X obj 287 581 spigot;
#X obj 326 547 == 0;
#X obj 201 505 spigot;
#X obj 117 505 spigot;
#X obj 156 466 == 0;
#X text 201 235 Nada;
#X text 237 236 Delay in ms;
#X text 328 237 Vel;
#X text 362 237 Perbedaan;
#X obj 352 405 random;
#X obj 41 159 t b b;
#X obj 287 547 f;
#X obj 391 349 * 100;
#X obj 391 374 int;
#X obj 348 428 / 100;
#X obj 454 140 loadbang;
#X msg 454 167 1;
#X connect 0 0 5 1;
#X connect 2 0 6 1;
#X connect 2 0 29 0;
#X connect 2 0 36 0;
#X connect 4 0 6 0;
#X connect 5 0 7 0;
#X connect 6 0 28 0;
#X connect 7 0 4 0;
#X connect 7 1 4 1;
#X connect 8 0 28 1;
#X connect 8 0 30 0;
#X connect 9 0 25 1;
#X connect 9 0 27 0;
#X connect 10 0 0 0;
#X connect 11 0 38 0;
#X connect 13 0 14 0;
#X connect 14 0 25 0;
#X connect 15 0 13 0;
#X connect 15 1 13 1;
#X connect 16 0 13 0;
#X connect 16 0 37 1;
#X connect 20 0 10 0;
#X connect 23 0 11 0;
#X connect 25 0 1 0;
#X connect 26 0 1 0;
#X connect 27 0 26 1;
#X connect 28 0 3 0;
#X connect 29 0 3 0;
#X connect 30 0 29 1;
#X connect 35 0 40 0;
#X connect 36 0 5 0;
#X connect 36 1 35 0;
#X connect 36 1 37 0;
#X connect 37 0 26 0;
#X connect 38 0 39 0;
#X connect 39 0 35 1;
#X connect 40 0 15 0;
#X connect 41 0 42 0;
#X connect 42 0 9 0;
#X connect 42 0 8 0;
#X coords 0 -1 1 1 250 60 1 200 215;
