#N canvas 41 35 1920 976 12;
#X obj 234 319 metro 1000;
#X obj 234 283 tgl 19 0 empty empty Start 0 -10 0 12 #00ff04 #000000 #000000 0 1;
#X obj 234 346 bng 19 250 50 0 empty empty empty 0 -10 0 12 #fcfcfc #000000 #000000;
#X text 258 282 T;
#X text 259 346 B;
#X obj 374 102 vsl 19 162 50 2000 0 0 empty empty kecepatan 0 -9 0 12 #c6ffc7 #000000 #000000 0 1;
#X floatatom 374 278 5 0 0 0 - - - 0;
#X obj 234 378 cyclone/counter 15;
#X text 371 378 hitung;
#X floatatom 234 409 5 0 0 0 - - - 0;
#X obj 234 443 select 0 1 2 3 4 5 6 7 8 9 10 11 12 13 14 15, f 97;
#X obj 234 475 bng 19 250 50 0 empty empty empty 0 -10 0 12 #bbbbbb #535512 #000000;
#X obj 270 473 bng 19 250 50 0 empty empty empty 0 -10 0 12 #fcfcfc #000000 #000000;
#X obj 310 473 bng 19 250 50 0 empty empty empty 0 -10 0 12 #fcfcfc #000000 #000000;
#X obj 346 473 bng 19 250 50 0 empty empty empty 0 -10 0 12 #fcfcfc #000000 #000000;
#X obj 403 476 bng 19 250 50 0 empty empty empty 0 -10 0 12 #fcfcfc #000000 #000000;
#X obj 439 476 bng 19 250 50 0 empty empty empty 0 -10 0 12 #fcfcfc #000000 #000000;
#X obj 479 476 bng 19 250 50 0 empty empty empty 0 -10 0 12 #fcfcfc #000000 #000000;
#X obj 515 476 bng 19 250 50 0 empty empty empty 0 -10 0 12 #fcfcfc #000000 #000000;
#X obj 574 475 bng 19 250 50 0 empty empty empty 0 -10 0 12 #bbbbbb #535512 #000000;
#X obj 610 475 bng 19 250 50 0 empty empty empty 0 -10 0 12 #fcfcfc #000000 #000000;
#X obj 650 475 bng 19 250 50 0 empty empty empty 0 -10 0 12 #dfdfdf #535512 #000000;
#X obj 686 474 bng 19 250 50 0 empty empty empty 0 -10 0 12 #fcfcfc #000000 #000000;
#X obj 750 473 bng 19 250 50 0 empty empty empty 0 -10 0 12 #fcfcfc #000000 #000000;
#X obj 786 473 bng 19 250 50 0 empty empty empty 0 -10 0 12 #fcfcfc #000000 #000000;
#X obj 826 473 bng 19 250 50 0 empty empty empty 0 -10 0 12 #dfdfdf #535512 #000000;
#X obj 862 473 bng 19 250 50 0 empty empty empty 0 -10 0 12 #fcfcfc #000000 #000000;
#X obj 234 532 i;
#X floatatom 564 587 5 0 0 0 - - - 0;
#X floatatom 252 508 2 0 0 0 - - - 0;
#X obj 270 531 i;
#X floatatom 288 507 2 0 0 0 - - - 0;
#X obj 310 532 i;
#X floatatom 328 508 2 0 0 0 - - - 0;
#X obj 346 531 i;
#X floatatom 364 507 2 0 0 0 - - - 0;
#X obj 403 533 i;
#X floatatom 421 509 2 0 0 0 - - - 0;
#X obj 439 532 i;
#X floatatom 457 508 2 0 0 0 - - - 0;
#X obj 479 533 i;
#X floatatom 497 509 2 0 0 0 - - - 0;
#X obj 515 532 i;
#X floatatom 533 508 2 0 0 0 - - - 0;
#X obj 574 531 i;
#X floatatom 592 507 2 0 0 0 - - - 0;
#X obj 610 530 i;
#X floatatom 628 506 2 0 0 0 - - - 0;
#X obj 650 531 i;
#X floatatom 668 507 2 0 0 0 - - - 0;
#X obj 686 530 i;
#X floatatom 704 506 2 0 0 0 - - - 0;
#X obj 750 531 i;
#X floatatom 768 507 2 0 0 0 - - - 0;
#X obj 786 530 i;
#X floatatom 804 506 2 0 0 0 - - - 0;
#X obj 826 531 i;
#X floatatom 844 507 2 0 0 0 - - - 0;
#X obj 862 530 i;
#X floatatom 880 506 2 0 0 0 - - - 0;
#X obj 513 727 gakoTungguh;
#X text 68 34 0: diam;
#X text 68 47 1: dong;
#X text 68 60 2: deng;
#X text 68 73 3: dung;
#X text 68 85 4: dang;
#X text 68 97 5: ding;
#X text 68 109 6: dong;
#X text 68 122 7: deng;
#X text 68 135 8: dung;
#X text 68 147 9: dang;
#X text 61 160 10: ding;
#X text 18 15 Gong kebyar: daun 10;
#X text 28 184 0: pengumbang + pengisep;
#X text 28 196 1: pengumbang;
#X text 29 209 2: pengisep;
#X obj 618 698 hsl 162 19 -1 1 0 0 empty empty pan -2 -10 0 12 #c6ffc7 #000000 #000000 0 1;
#X obj 679 106 vsl 19 162 0 1 0 0 empty empty volume 0 -9 0 12 #c6ffc7 #000000 #000000 0 1;
#X floatatom 679 278 5 0 0 0 - - - 0;
#X msg 421 173 4 4 6 6 5 5 7 7 6 6 7 7 5 5 6 6;
#X obj 435 321 unpack 0 0 0 0 0 0 0 0 0 0 0 0 0 0 0 0;
#X msg 435 200 9 9 7 7 8 8 7 7 6 6 9 9 7 7 8 8;
#X text 566 697 Polos;
#X obj 775 727 gakoTungguh;
#X obj 882 693 hsl 162 19 -1 1 0 0 empty empty pan -2 -10 0 12 #c6ffc7 #000000 #000000 0 1;
#X text 822 693 Sangsih;
#X obj 901 583 gakoNgempat;
#X msg 975 560 10;
#X obj 975 534 loadbang;
#X msg 374 63 150;
#X obj 420 8 loadbang;
#X msg 679 68 0.2;
#X msg 912 663 1;
#X msg 950 664 2;
#X msg 691 670 1;
#X msg 730 670 -1;
#X obj 511 869 gakoTungguh;
#X obj 616 840 hsl 162 19 -1 1 0 0 empty empty pan -2 -10 0 12 #c6ffc7 #000000 #000000 0 1;
#X obj 773 869 gakoTungguh;
#X obj 880 835 hsl 162 19 -1 1 0 0 empty empty pan -2 -10 0 12 #c6ffc7 #000000 #000000 0 1;
#X text 518 840 Jublag;
#X text 790 842 Jegog;
#X msg 578 841 2;
#X msg 844 836 3;
#X obj 732 796 loadbang;
#X floatatom 371 588 5 0 0 0 - - - 0;
#X obj 391 612 bng 19 250 50 0 empty empty empty 0 -10 0 12 #fcfcfc #000000 #000000;
#X obj 572 612 bng 19 250 50 0 empty empty empty 0 -10 0 12 #fcfcfc #000000 #000000;
#X floatatom 802 581 5 0 0 0 - - - 0;
#X obj 110 726 gakoTungguh;
#X obj 215 697 hsl 162 19 -1 1 0 0 empty empty pan -2 -10 0 12 #c6ffc7 #000000 #000000 0 1;
#X obj 112 883 gakoTungguh;
#X obj 217 854 hsl 162 19 -1 1 0 0 empty empty pan -2 -10 0 12 #c6ffc7 #000000 #000000 0 1;
#X obj 256 800 loadbang;
#X text 164 698 Gong;
#X text 154 857 Kempur;
#X msg 88 694 1;
#X msg 127 694 2;
#X text 88 673 Wadon;
#X text 129 674 Lanang;
#X msg 243 665 4;
#X msg 277 665 1;
#X obj 245 635 loadbang;
#X msg 112 856 6;
#X msg 256 830 5;
#X msg 290 830 1;
#X obj 812 606 bng 19 250 50 0 empty empty empty 0 -10 0 12 #fcfcfc #000000 #000000;
#X obj 929 636 loadbang;
#X obj 691 643 loadbang;
#X text 1004 560 Daun 10;
#X text 17 262 Workshop NAGi melajah 2;
#X text 15 277 Tutorial 1-4;
#X text 15 291 Oleh Sarah Lecompte-Bergeron;
#X text 15 305 v. 2023-03-10;
#X text 448 153 Baris tunggal;
#X connect 0 0 2 0;
#X connect 1 0 0 0;
#X connect 2 0 7 0;
#X connect 5 0 6 0;
#X connect 6 0 0 1;
#X connect 7 0 9 0;
#X connect 9 0 10 0;
#X connect 10 0 11 0;
#X connect 10 1 12 0;
#X connect 10 2 13 0;
#X connect 10 3 14 0;
#X connect 10 4 15 0;
#X connect 10 5 16 0;
#X connect 10 6 17 0;
#X connect 10 7 18 0;
#X connect 10 8 19 0;
#X connect 10 9 20 0;
#X connect 10 10 21 0;
#X connect 10 11 22 0;
#X connect 10 12 23 0;
#X connect 10 13 24 0;
#X connect 10 14 25 0;
#X connect 10 15 26 0;
#X connect 11 0 27 0;
#X connect 11 0 116 0;
#X connect 12 0 30 0;
#X connect 13 0 32 0;
#X connect 14 0 34 0;
#X connect 15 0 36 0;
#X connect 16 0 38 0;
#X connect 17 0 40 0;
#X connect 18 0 42 0;
#X connect 19 0 44 0;
#X connect 19 0 117 0;
#X connect 20 0 46 0;
#X connect 21 0 48 0;
#X connect 21 0 123 0;
#X connect 22 0 50 0;
#X connect 23 0 52 0;
#X connect 24 0 54 0;
#X connect 25 0 56 0;
#X connect 25 0 123 0;
#X connect 26 0 58 0;
#X connect 27 0 28 0;
#X connect 27 0 105 0;
#X connect 27 0 108 0;
#X connect 28 0 60 0;
#X connect 28 0 86 0;
#X connect 28 0 107 0;
#X connect 29 0 27 1;
#X connect 30 0 28 0;
#X connect 31 0 30 1;
#X connect 32 0 28 0;
#X connect 32 0 105 0;
#X connect 33 0 32 1;
#X connect 34 0 28 0;
#X connect 35 0 34 1;
#X connect 36 0 28 0;
#X connect 36 0 105 0;
#X connect 37 0 36 1;
#X connect 38 0 28 0;
#X connect 39 0 38 1;
#X connect 40 0 28 0;
#X connect 40 0 105 0;
#X connect 41 0 40 1;
#X connect 42 0 28 0;
#X connect 43 0 42 1;
#X connect 44 0 28 0;
#X connect 44 0 105 0;
#X connect 44 0 108 0;
#X connect 45 0 44 1;
#X connect 46 0 28 0;
#X connect 47 0 46 1;
#X connect 48 0 28 0;
#X connect 48 0 105 0;
#X connect 49 0 48 1;
#X connect 50 0 28 0;
#X connect 51 0 50 1;
#X connect 52 0 28 0;
#X connect 52 0 105 0;
#X connect 53 0 52 1;
#X connect 54 0 28 0;
#X connect 55 0 54 1;
#X connect 56 0 28 0;
#X connect 56 0 105 0;
#X connect 57 0 56 1;
#X connect 58 0 28 0;
#X connect 59 0 58 1;
#X connect 76 0 60 4;
#X connect 77 0 78 0;
#X connect 78 0 60 1;
#X connect 78 0 83 1;
#X connect 78 0 98 1;
#X connect 78 0 96 1;
#X connect 78 0 111 1;
#X connect 78 0 109 1;
#X connect 79 0 80 0;
#X connect 80 0 29 0;
#X connect 80 1 31 0;
#X connect 80 2 33 0;
#X connect 80 3 35 0;
#X connect 80 4 37 0;
#X connect 80 5 39 0;
#X connect 80 6 41 0;
#X connect 80 7 43 0;
#X connect 80 8 45 0;
#X connect 80 9 47 0;
#X connect 80 10 49 0;
#X connect 80 11 51 0;
#X connect 80 12 53 0;
#X connect 80 13 55 0;
#X connect 80 14 57 0;
#X connect 80 15 59 0;
#X connect 81 0 80 0;
#X connect 84 0 83 4;
#X connect 86 1 83 0;
#X connect 87 0 86 1;
#X connect 88 0 87 0;
#X connect 89 0 5 0;
#X connect 90 0 79 0;
#X connect 90 0 91 0;
#X connect 90 0 89 0;
#X connect 91 0 77 0;
#X connect 92 0 83 2;
#X connect 92 0 84 0;
#X connect 93 0 83 3;
#X connect 94 0 60 3;
#X connect 95 0 76 0;
#X connect 97 0 96 4;
#X connect 99 0 98 4;
#X connect 102 0 96 2;
#X connect 103 0 98 2;
#X connect 104 0 102 0;
#X connect 104 0 103 0;
#X connect 105 0 96 0;
#X connect 105 0 106 0;
#X connect 108 0 98 0;
#X connect 108 0 126 0;
#X connect 110 0 109 4;
#X connect 112 0 111 4;
#X connect 113 0 124 0;
#X connect 113 0 125 0;
#X connect 116 0 109 0;
#X connect 117 0 109 0;
#X connect 120 0 109 2;
#X connect 121 0 109 3;
#X connect 122 0 120 0;
#X connect 122 0 121 0;
#X connect 123 0 111 0;
#X connect 124 0 111 2;
#X connect 125 0 111 3;
#X connect 127 0 93 0;
#X connect 127 0 92 0;
#X connect 128 0 94 0;
#X connect 128 0 95 0;
