#N canvas 696 437 318 247 12;
#N canvas -610 113 1920 976 mieBungkus 0;
#X obj 110 55 hradio 26 1 0 4 empty empty empty 0 -10 0 12 #e3c6ff #faff00 #000000 0;
#X text 82 91 GUI;
#X text 41 626 0- Matikan suara;
#X text 41 645 1- Metro 200 \, random (0-2) \, tungguh0 \, vol keras;
#X msg 950 300 200;
#X obj 511 634 random;
#X floatatom 586 593 5 0 0 0 - - - 0;
#X obj 511 585 bng 19 250 50 0 empty empty empty 0 -10 0 12 #fcfcfc #000000 #000000;
#X floatatom 511 726 5 0 0 0 - - - 0;
#X msg 951 324 3;
#X msg 952 351 0;
#X text 902 301 metro;
#X text 893 326 random;
#X text 893 351 tungguh;
#X text 880 377 amplitude;
#X text 960 272 1;
#X floatatom 147 320 5 0 0 0 - - - 0;
#X obj 511 796 gakoTungguh;
#X obj 511 528 metro;
#X msg 543 502 200;
#X obj 511 493 tgl 19 0 empty empty empty 0 -10 0 12 #fcfcfc #000000 #000000 0 1;
#X msg 586 566 3;
#X msg 630 727 0;
#X obj 147 365 sel 0 1 2 3;
#X obj 147 391 bng 19 250 50 0 empty empty empty 0 -10 0 12 #fcfcfc #000000 #000000;
#X obj 244 395 bng 19 250 50 0 empty empty empty 0 -10 0 12 #fcfcfc #000000 #000000;
#X obj 360 394 bng 19 250 50 0 empty empty empty 0 -10 0 12 #fcfcfc #000000 #000000;
#X obj 479 394 bng 19 250 50 0 empty empty empty 0 -10 0 12 #fcfcfc #000000 #000000;
#X msg 510 467 1;
#X msg 544 467 0;
#X text 43 666 2- Noise + random (1-10) + tungguh1 + vol kecil;
#X text 1011 273 2;
#X msg 1005 325 10;
#X msg 618 566 10;
#X obj 511 700 +;
#X floatatom 511 674 5 0 0 0 - - - 0;
#X msg 651 636 0;
#X msg 688 636 1;
#X obj 820 432 noise~;
#X obj 870 470 gakoSkop;
#X obj 820 542 bonk~;
#X msg 655 363 \; pd dsp \$1;
#X obj 655 339 tgl 19 0 empty empty empty 0 -10 0 12 #fcfcfc #000000 #000000 0 1;
#X msg 632 310 1;
#X msg 672 311 0;
#X msg 668 727 1;
#X msg 600 727 0.2;
#X msg 570 727 0.9;
#X msg 1006 353 1;
#X msg 1007 377 0.2;
#X msg 954 377 0.9;
#X text 150 392 0;
#X text 248 395 1;
#X text 364 395 2;
#X text 483 395 3;
#X text 1000 299 noise~;
#X text 44 683 3- Metro sinewave \, random (2-8) \, tungguh0 \, vol keras;
#X obj 953 741 gakoSkop;
#X obj 820 600 spigot;
#X obj 847 575 tgl 19 0 empty empty empty 0 -10 0 12 #fcfcfc #000000 #000000 0 1;
#X msg 748 522 1;
#X msg 782 522 0;
#X obj 878 766 snapshot~;
#X floatatom 878 797 5 0 0 0 - - - 0;
#X obj 813 726 metro 50;
#X obj 800 698 tgl 19 0 empty empty empty 0 -10 0 12 #fcfcfc #000000 #000000 0 1;
#X obj 881 848 hsl 30 10 -1 1 0 0 empty empty empty -2 -10 0 12 #fcfcfc #000000 #000000 0 1;
#X obj 878 696 osc~ 0.2;
#X obj 761 871 cyclone/scale -1 1 70 300;
#X floatatom 761 898 5 0 0 0 - - - 0;
#X obj 761 924 spigot;
#X msg 800 665 1;
#X msg 834 665 0;
#X text 943 697 LFO: low frequency oscillator;
#X msg 652 566 7;
#X msg 721 637 2;
#X obj 127 20 bng 30 250 50 0 empty empty < 10 15 0 16 #c7c6ff #faff00 #000000;
#X obj 161 20 bng 30 250 50 0 empty empty > 10 15 0 16 #c7c6ff #faff00 #000000;
#X obj 185 229 expr if($f1 >= 0 && $f1 <= 3 \, 1 \, 0);
#X obj 146 279 spigot;
#X obj 185 253 tgl 19 0 empty empty empty 0 -10 0 12 #fcfcfc #000000 #000000 0 1;
#X floatatom 185 205 5 0 0 0 - - - 0;
#X msg 127 92 -1;
#X msg 164 92 1;
#X obj 127 118 +;
#X obj 164 120 +;
#X floatatom 106 146 5 0 0 0 - - - 0;
#X floatatom 181 145 5 0 0 0 - - - 0;
#X obj 137 181 t i i;
#X text 257 178 trigger integer integer;
#X text 477 168 5;
#X text 466 189 5.3;
#X text 497 191 float;
#X text 496 170 integer;
#X text 214 92 Graphical user interface;
#X msg 1060 352 0;
#X msg 1062 378 0.9;
#X text 1068 273 3;
#X text 1060 298 osc~;
#X msg 1059 325 7;
#X text 707 543 Deteksi pukulan;
#X text 778 601 Pintu;
#X connect 0 0 16 0;
#X connect 5 0 35 0;
#X connect 6 0 5 1;
#X connect 7 0 5 0;
#X connect 8 0 17 0;
#X connect 16 0 23 0;
#X connect 16 0 84 1;
#X connect 16 0 85 1;
#X connect 18 0 7 0;
#X connect 19 0 18 1;
#X connect 20 0 18 0;
#X connect 21 0 6 0;
#X connect 22 0 17 2;
#X connect 23 0 24 0;
#X connect 23 1 25 0;
#X connect 23 2 26 0;
#X connect 23 3 27 0;
#X connect 24 0 29 0;
#X connect 24 0 44 0;
#X connect 24 0 61 0;
#X connect 24 0 72 0;
#X connect 25 0 19 0;
#X connect 25 0 21 0;
#X connect 25 0 22 0;
#X connect 25 0 47 0;
#X connect 25 0 28 0;
#X connect 25 0 36 0;
#X connect 25 0 44 0;
#X connect 25 0 61 0;
#X connect 25 0 72 0;
#X connect 26 0 37 0;
#X connect 26 0 33 0;
#X connect 26 0 43 0;
#X connect 26 0 29 0;
#X connect 26 0 45 0;
#X connect 26 0 46 0;
#X connect 26 0 60 0;
#X connect 26 0 72 0;
#X connect 27 0 61 0;
#X connect 27 0 43 0;
#X connect 27 0 71 0;
#X connect 27 0 28 0;
#X connect 27 0 74 0;
#X connect 27 0 75 0;
#X connect 27 0 22 0;
#X connect 27 0 47 0;
#X connect 28 0 20 0;
#X connect 29 0 20 0;
#X connect 33 0 6 0;
#X connect 34 0 8 0;
#X connect 35 0 34 0;
#X connect 36 0 34 1;
#X connect 37 0 34 1;
#X connect 38 0 39 0;
#X connect 38 0 40 0;
#X connect 40 0 58 0;
#X connect 42 0 41 0;
#X connect 43 0 42 0;
#X connect 44 0 42 0;
#X connect 45 0 17 2;
#X connect 46 0 17 1;
#X connect 47 0 17 1;
#X connect 58 0 7 0;
#X connect 59 0 58 1;
#X connect 60 0 59 0;
#X connect 61 0 59 0;
#X connect 62 0 63 0;
#X connect 63 0 66 0;
#X connect 63 0 68 0;
#X connect 64 0 62 0;
#X connect 65 0 64 0;
#X connect 65 0 70 1;
#X connect 67 0 57 0;
#X connect 67 0 62 0;
#X connect 68 0 69 0;
#X connect 69 0 70 0;
#X connect 70 0 18 1;
#X connect 71 0 65 0;
#X connect 72 0 65 0;
#X connect 74 0 6 0;
#X connect 75 0 34 1;
#X connect 76 0 82 0;
#X connect 77 0 83 0;
#X connect 78 0 80 0;
#X connect 79 0 0 0;
#X connect 80 0 79 1;
#X connect 81 0 78 0;
#X connect 82 0 84 0;
#X connect 83 0 85 0;
#X connect 84 0 86 0;
#X connect 85 0 87 0;
#X connect 86 0 88 0;
#X connect 87 0 88 0;
#X connect 88 0 79 0;
#X connect 88 1 81 0;
#X coords 0 -1 1 1 120 80 2 100 10;
#X restore 20 31 pd mieBungkus;
#X text 34 6 Bagian 0 - 3;
