#N canvas -63 57 1920 976 12;
#X obj 954 296 metro 200;
#X obj 724 154 tgl 19 0 empty empty start 0 -10 0 12 #00ff04 #000000 #000000 0 1;
#X obj 954 324 bng 19 250 50 0 empty empty empty 0 -10 0 12 #fcfcfc #000000 #000000;
#X obj 954 359 random 11;
#X floatatom 954 387 5 0 0 0 - - - 0;
#X obj 954 860 gakoTungguh;
#X obj 1178 184 vsl 19 162 0 1 0 0 empty empty volume 0 -9 0 12 #c6ffc7 #000000 #000000 0 1;
#X obj 1042 105 vsl 19 162 30 2000 0 0 empty empty kecepatan 0 -9 0 12 #c6ffc7 #000000 #000000 0 1;
#X floatatom 1042 276 5 0 0 0 - - - 0;
#X obj 954 652 gakoMemanusiakan;
#X obj 1220 862 gakoTungguh;
#X obj 1039 359 random 1800;
#X obj 1039 382 + 50;
#X floatatom 1039 406 5 0 0 0 - - - 0;
#X obj 1341 646 loadbang;
#X msg 1331 675 0;
#X msg 1362 675 1;
#X obj 1461 826 hsl 162 19 -1 1 0 0 empty empty pan -2 -10 0 12 #c6ffc7 #000000 #000000 0 1;
#X msg 1407 676 0.5;
#X obj 236 294 metro 200;
#X obj 236 322 bng 19 250 50 0 empty empty empty 0 -10 0 12 #fcfcfc #000000 #000000;
#X obj 236 357 random 11;
#X floatatom 236 385 5 0 0 0 - - - 0;
#X obj 236 858 gakoTungguh;
#X obj 460 182 vsl 19 162 0 1 0 0 empty empty volume 0 -9 0 12 #c6ffc7 #000000 #000000 0 1;
#X obj 324 101 vsl 19 162 30 2000 0 0 empty empty kecepatan 0 -9 0 12 #c6ffc7 #000000 #000000 0 1;
#X floatatom 324 272 5 0 0 0 - - - 0;
#X obj 236 650 gakoMemanusiakan;
#X obj 502 860 gakoTungguh;
#X obj 321 357 random 1800;
#X obj 321 380 + 50;
#X floatatom 321 404 5 0 0 0 - - - 0;
#X obj 608 665 loadbang;
#X obj 743 825 hsl 162 19 -1 1 0 0 empty empty pan -2 -10 0 12 #c6ffc7 #000000 #000000 0 1;
#X msg 598 694 1;
#X msg 629 694 2;
#X msg 674 695 -0.5;
#X floatatom 462 463 5 0 0 0 - - - 0;
#X obj 462 437 * 0.25;
#X floatatom 875 480 5 0 0 0 - - - 0;
#X obj 875 453 * 0.25;
#X obj 268 68 *;
#X obj 643 22 hsl 162 19 0.2 1 0 0 empty empty ratioKecepatan -2 -10 0 12 #c6ffc7 #000000 #000000 0 1;
#X obj 972 73 *;
#X obj 112 430 * 0.07;
#X floatatom 112 458 5 0 0 0 - - - 0;
#X obj 1273 419 * 0.07;
#X floatatom 1273 446 5 0 0 0 - - - 0;
#X obj 507 52 loadbang;
#X msg 507 80 0.3;
#X msg 543 78 1;
#X msg 589 82 200;
#X text 13 149 Mengatur kecepatan dan kekerasan;
#X text 9 166 v. 2023-03-18 \, oleh Sarah Lecompte-Bergeron;
#X connect 0 0 2 0;
#X connect 1 0 0 0;
#X connect 1 0 19 0;
#X connect 2 0 3 0;
#X connect 2 0 11 0;
#X connect 3 0 4 0;
#X connect 4 0 9 0;
#X connect 4 0 10 0;
#X connect 4 0 46 0;
#X connect 6 0 9 2;
#X connect 7 0 8 0;
#X connect 8 0 0 1;
#X connect 9 0 5 0;
#X connect 9 1 5 1;
#X connect 9 1 10 1;
#X connect 11 0 12 0;
#X connect 12 0 13 0;
#X connect 13 0 40 0;
#X connect 13 0 43 0;
#X connect 14 0 15 0;
#X connect 14 0 16 0;
#X connect 14 0 18 0;
#X connect 15 0 5 2;
#X connect 15 0 10 2;
#X connect 16 0 5 3;
#X connect 16 0 10 3;
#X connect 17 0 5 4;
#X connect 17 0 10 4;
#X connect 18 0 17 0;
#X connect 19 0 20 0;
#X connect 20 0 21 0;
#X connect 20 0 29 0;
#X connect 21 0 22 0;
#X connect 22 0 27 0;
#X connect 22 0 28 0;
#X connect 22 0 44 0;
#X connect 24 0 27 2;
#X connect 25 0 26 0;
#X connect 26 0 19 1;
#X connect 27 0 23 0;
#X connect 27 1 23 1;
#X connect 27 1 28 1;
#X connect 29 0 30 0;
#X connect 30 0 31 0;
#X connect 31 0 38 0;
#X connect 31 0 41 0;
#X connect 32 0 34 0;
#X connect 32 0 35 0;
#X connect 32 0 36 0;
#X connect 33 0 23 4;
#X connect 33 0 28 4;
#X connect 34 0 23 2;
#X connect 34 0 28 2;
#X connect 35 0 23 3;
#X connect 35 0 28 3;
#X connect 36 0 33 0;
#X connect 37 0 9 1;
#X connect 38 0 37 0;
#X connect 39 0 27 1;
#X connect 40 0 39 0;
#X connect 41 0 25 0;
#X connect 42 0 41 1;
#X connect 42 0 43 1;
#X connect 43 0 7 0;
#X connect 44 0 45 0;
#X connect 45 0 9 3;
#X connect 46 0 47 0;
#X connect 47 0 27 3;
#X connect 48 0 49 0;
#X connect 48 0 50 0;
#X connect 48 0 51 0;
#X connect 49 0 24 0;
#X connect 49 0 6 0;
#X connect 50 0 42 0;
#X connect 51 0 7 0;
#X connect 51 0 25 0;
