#N canvas 2565 -275 528 403 12;
#N canvas 3568 -253 982 851 rumusMat 0;
#X floatatom 116 80 5 0 0 0 - - - 0;
#X obj 116 187 + 10;
#X floatatom 117 230 5 0 0 0 - - - 0;
#X obj 178 188 * 10;
#X obj 235 190 % 10;
#X floatatom 236 236 5 0 0 0 - - - 0;
#X floatatom 179 230 5 0 0 0 - - - 0;
#X obj 117 310 outlet;
#X obj 177 312 outlet;
#X obj 238 312 outlet;
#X obj 116 33 inlet;
#X text 98 288 +;
#X text 172 287 *;
#X text 243 290 % Modulo;
#X obj 222 33 inlet;
#X floatatom 222 80 5 0 0 0 - - - 0;
#X obj 222 111 t b i;
#X connect 0 0 1 0;
#X connect 0 0 4 0;
#X connect 0 0 3 0;
#X connect 1 0 2 0;
#X connect 2 0 7 0;
#X connect 3 0 6 0;
#X connect 4 0 5 0;
#X connect 5 0 9 0;
#X connect 6 0 8 0;
#X connect 10 0 0 0;
#X connect 14 0 15 0;
#X connect 15 0 16 0;
#X connect 16 0 3 0;
#X connect 16 0 4 0;
#X connect 16 0 1 0;
#X connect 16 1 3 1;
#X connect 16 1 4 1;
#X connect 16 1 1 1;
#X restore 110 101 pd rumusMat;
#X floatatom 110 69 5 0 0 0 - - - 0;
#X floatatom 101 143 5 0 0 0 - - - 0;
#X floatatom 147 142 5 0 0 0 - - - 0;
#X floatatom 193 143 5 0 0 0 - - - 0;
#X floatatom 184 67 5 0 0 0 - - - 0;
#N canvas 3851 -76 450 431 ?bantuan 0;
#N canvas 3691 153 726 522 ?rumusMat 0;
#X text 70 30 Menjelaskan bungkus rumusMat;
#X text 52 84 Masuk di cuk kiri dan kanan angka;
#X text 60 123 Keluarkan 3 hasil:;
#X text 61 153 1- tambahan (+);
#X text 62 171 2- kali (*);
#X text 63 186 3- modulo \, sisa (%);
#X restore 34 108 pd ?rumusMat;
#X obj 33 33 tgl 19 0 empty empty ? 5 10 0 12 #feffc6 #000000 #000000 0 1;
#X msg 33 66 \; pd-?rumusMat vis \$1;
#X connect 1 0 2 0;
#X coords 0 -1 1 1 25 25 2 30 30;
#X restore 30 66 pd ?bantuan;
#X text 123 21 Bungkus;
#X connect 0 0 2 0;
#X connect 0 1 3 0;
#X connect 0 2 4 0;
#X connect 1 0 0 0;
#X connect 5 0 0 1;
