#N canvas 4785 53 1920 976 12;
#X obj 742 606 gakoTungguh;
#X obj 743 468 random;
#X text 45 246 1- Metro + random 3 + tumgguh0 + velHigh;
#X msg 959 436 3;
#X msg 1011 438 10;
#X msg 1070 437 5;
#X msg 959 463 0;
#X obj 745 524 +;
#X obj 745 389 metro;
#X msg 1012 464 1;
#X msg 1070 463 4;
#X msg 958 493 0;
#X msg 1013 492 1;
#X msg 1070 491 0;
#X obj 1402 287 snapshot~;
#X floatatom 1402 315 5 0 0 0 - - - 0;
#X obj 1405 351 hsl 162 19 -1 1 0 0 empty empty empty -2 -10 0 12 #e3c6ff #000000 #000000 0 1;
#X obj 1330 203 metro 50;
#X obj 1330 178 tgl 19 0 empty empty empty 0 -10 0 12 #fcfcfc #000000 #000000 0 1;
#X msg 1155 102 \; pd dsp \$1;
#X obj 1155 77 tgl 19 0 empty empty empty 17 7 0 10 #dfdfdf #000000 #000000 0 1;
#X text 1179 76 DSP on/off;
#X obj 1249 393 noise~;
#X obj 1521 424 gakoSkop;
#X obj 1250 423 gakoSkop;
#X obj 1218 701 bonk~;
#X obj 1237 779 bng 19 250 50 0 empty empty empty 0 -10 0 12 #fcfcfc #000000 #000000;
#X obj 1401 243 osc~ 0.1;
#X text 44 265 2- Noise + random 10 + tungguh1 + velLow;
#X text 43 280 3- Metro sinewave scale + random 5 + tungguh0 + velHigh;
#X floatatom 1550 755 5 0 0 0 - - - 0;
#X obj 1546 701 cyclone/scale -1 1 100 1000;
#X obj 608 518 vsl 19 162 0 1 0 0 empty empty volume 0 -9 0 12 #c6ffc7 #000000 #000000 0 1;
#X obj 536 517 vsl 19 162 30 2000 0 0 empty empty kecepatan 0 -9 0 12 #c6ffc7 #000000 #000000 0 1;
#X obj 628 252 hradio 19 1 0 4 empty empty empty 0 -10 0 18 #e3c6ff #000000 #000000 0;
#X obj 676 35 r kanan;
#X obj 594 36 r kiri;
#X floatatom 628 282 5 0 0 0 - - - 0;
#X floatatom 676 127 5 0 0 0 - - - 0;
#X obj 676 104 +;
#X msg 676 80 1;
#X floatatom 594 126 5 0 0 0 - - - 0;
#X obj 594 103 +;
#X msg 594 79 -1;
#X obj 628 225 spigot;
#X obj 667 202 tgl 19 0 empty empty empty 0 -10 0 12 #fcfcfc #000000 #000000 0 1;
#X obj 635 153 t i i;
#X obj 542 33 bng 19 250 50 0 empty empty empty 0 -10 0 12 #fcfcfc #000000 #000000;
#X obj 756 41 bng 19 250 50 0 empty empty empty 0 -10 0 12 #fcfcfc #000000 #000000;
#X msg 960 400 200;
#X obj 743 306 s bagian;
#X obj 668 179 expr if($f1 >= 0 && $f1 <= 3 \, 1 \, 0);
#X obj 625 349 sel 0 1 2 3;
#X connect 14 0 15 0;
#X connect 14 0 31 0;
#X connect 15 0 16 0;
#X connect 17 0 14 0;
#X connect 18 0 17 0;
#X connect 20 0 19 0;
#X connect 20 0 18 0;
#X connect 22 0 24 0;
#X connect 22 0 25 0;
#X connect 25 0 26 0;
#X connect 27 0 14 0;
#X connect 27 0 23 0;
#X connect 31 0 30 0;
#X connect 34 0 37 0;
#X connect 34 0 50 0;
#X connect 35 0 40 0;
#X connect 36 0 43 0;
#X connect 37 0 42 1;
#X connect 37 0 39 1;
#X connect 37 0 52 0;
#X connect 38 0 46 0;
#X connect 39 0 38 0;
#X connect 40 0 39 0;
#X connect 41 0 46 0;
#X connect 42 0 41 0;
#X connect 43 0 42 0;
#X connect 44 0 34 0;
#X connect 45 0 44 1;
#X connect 46 0 44 0;
#X connect 46 1 51 0;
#X connect 47 0 43 0;
#X connect 48 0 40 0;
#X connect 51 0 45 0;
