#N canvas -2 6 1920 976 12;
#X floatatom 1117 295 5 0 0 0 - - - 0;
#X obj 1117 124 vsl 19 162 20 2000 0 0 empty empty Kecepatan 0 -9 0 12 #c6ffc7 #000000 #000000 0 1;
#X obj 445 469 bng 19 250 50 0 empty empty bang 0 -5 0 12 #00faff #faff00 #000000;
#X obj 445 408 tgl 19 0 empty empty START 0 -10 0 12 #00ff04 #000000 #000000 0 1;
#X obj 445 434 metro 1000;
#X obj 1114 401 vsl 19 162 0 1 0 0 empty empty volume 0 -9 0 12 #c6ffc7 #000000 #000000 0 1;
#X obj 445 635 bng 19 250 50 0 empty empty empty 0 -10 0 12 #fcfcfc #000000 #000000;
#X obj 475 634 bng 19 250 50 0 empty empty empty 0 -10 0 12 #fcfcfc #000000 #000000;
#X obj 505 634 bng 19 250 50 0 empty empty empty 0 -10 0 12 #fcfcfc #000000 #000000;
#X obj 535 634 bng 19 250 50 0 empty empty empty 0 -10 0 12 #fcfcfc #000000 #000000;
#X text 483 415 Berapa milidetik;
#X text 404 555 Pilih;
#X floatatom 445 537 5 0 0 0 - - - 0;
#X obj 445 688 i;
#X floatatom 450 661 3 0 0 0 - - - 0;
#X text 383 644 integer;
#X text 485 536 Kotak angka;
#X floatatom 659 781 5 0 0 0 - - - 0;
#X obj 475 688 i;
#X floatatom 480 662 3 0 0 0 - - - 0;
#X obj 505 688 i;
#X floatatom 510 661 3 0 0 0 - - - 0;
#X obj 535 689 i;
#X floatatom 540 661 3 0 0 0 - - - 0;
#X text 570 875 polos;
#X text 893 885 sangsih;
#X floatatom 568 475 5 0 0 0 - - - 0;
#X obj 695 883 hsl 162 19 -1 1 0 0 empty empty empty -2 -10 0 12 #fcfcfc #000000 #000000 0 1;
#X obj 1088 885 hsl 162 19 -1 1 0 0 empty empty empty -2 -10 0 12 #fcfcfc #000000 #000000 0 1;
#X obj 454 907 gakoTungguh;
#X obj 1113 333 loadbang;
#X obj 678 350 loadbang;
#X obj 847 915 gakoTungguh;
#X msg 966 886 1;
#X obj 966 860 loadbang;
#X obj 1377 200 gakoHidMtech;
#X obj 1473 543 s kiri;
#X obj 1489 565 s kanan;
#X obj 1537 510 s X;
#X obj 296 881 hsl 162 19 -1 1 0 0 empty empty empty -2 -10 0 12 #fcfcfc #000000 #000000 0 1;
#X obj 55 905 gakoTungguh;
#X text 102 872 Gong;
#X obj 228 344 bng 19 250 50 0 empty empty empty 0 -10 0 12 #fcfcfc #000000 #000000;
#X obj 228 315 r start;
#X obj 1393 523 s start;
#X obj 1377 548 s select;
#X obj 1117 55 loadbang;
#X obj 174 852 loadbang;
#X obj 293 786 loadbang;
#X msg 293 812 0;
#X obj 632 854 loadbang;
#X msg 632 880 1;
#X obj 1030 859 loadbang;
#X msg 1030 885 2;
#X text 36 388 0: Pengumbang + Pengisep;
#X text 36 402 1: Pengumbang;
#X text 36 415 2: Pengisep;
#X text 56 314 Pan;
#X text 34 334 -1: kiri;
#X text 41 349 1: kanan;
#N canvas 96 96 450 448 pengingatan 0;
#X text 118 61 Ctl + 1;
#X obj 186 61 metro;
#X text 119 92 Ctl + 2;
#X text 243 63 Obyek;
#X text 245 92 Pesan;
#X text 120 124 Ctl + 3;
#X floatatom 187 123 5 0 0 0 - - - 0;
#X text 243 125 Kotak angka;
#X text 121 158 Ctl + 5;
#X text 182 156 comment;
#X text 244 155 Komentar;
#X msg 186 92;
#X text 67 199 Ctl + Shift + B;
#X obj 198 198 bng 19 250 50 0 empty empty empty 0 -10 0 12 #fcfcfc #000000 #000000;
#X text 249 198 Bang;
#X obj 198 232 tgl 19 0 empty empty empty 0 -10 0 12 #fcfcfc #000000 #000000 0 1;
#X text 67 235 Ctl + Shift + T;
#X text 240 240 Toggle;
#X text 137 359 Ctl + E;
#X text 206 366 Kunci/Sunting;
#X text 151 33 TERABASAN DASAR;
#X text 55 309 Ctl + C;
#X text 127 310 Salin;
#X text 55 331 Ctl + V;
#X text 128 329 Tempel;
#X text 218 308 Ctl + D;
#X text 293 308 Duplikat;
#X text 218 327 Ctl + S;
#X text 293 326 Simpan;
#X text 297 241 (Y/T);
#X text 204 351 Kursor/Tangan;
#X obj 31 270 hsl 162 19 0 127 0 0 empty empty empty -2 -10 0 12 #fcfcfc #000000 #000000 0 1;
#X text 211 270 Slider: Di menu "put";
#X text 240 184 (Lampu);
#X text 241 226 (Saklar);
#X text 206 289 Klik kanan untuk properties;
#X text 150 397 ctl + d = duplikat;
#X restore 32 69 pd pengingatan;
#X text 29 48 Klik double untuk membuka;
#X obj 1377 394 bng 19 250 50 0 empty empty empty 0 -10 0 12 #fcfcfc #000000 #000000;
#X obj 1393 418 bng 19 250 50 0 empty empty empty 0 -10 0 12 #fcfcfc #000000 #000000;
#X floatatom 1409 446 5 0 0 0 - - - 0;
#X floatatom 1425 467 5 0 0 0 - - - 0;
#X obj 1457 652 s stikKananY;
#X obj 1441 626 s stikKananX;
#X obj 1409 574 s stikKiriX;
#X obj 1425 600 s stikKiriY;
#X floatatom 1441 491 5 0 0 0 - - - 0;
#X floatatom 1457 512 5 0 0 0 - - - 0;
#X obj 1473 395 bng 19 250 50 0 empty empty empty 0 -10 0 12 #fcfcfc #000000 #000000;
#X obj 1489 421 bng 19 250 50 0 empty empty empty 0 -10 0 12 #fcfcfc #000000 #000000;
#X obj 1505 449 bng 19 250 50 0 empty empty empty 0 -10 0 12 #fcfcfc #000000 #000000;
#X obj 1521 475 bng 19 250 50 0 empty empty empty 0 -10 0 12 #fcfcfc #000000 #000000;
#X obj 1505 588 s atas;
#X obj 1521 610 s bawah;
#X obj 1537 394 bng 19 250 50 0 empty empty empty 0 -10 0 12 #fcfcfc #000000 #000000;
#X obj 1553 420 bng 19 250 50 0 empty empty empty 0 -10 0 12 #fcfcfc #000000 #000000;
#X obj 1569 448 bng 19 250 50 0 empty empty empty 0 -10 0 12 #fcfcfc #000000 #000000;
#X obj 1585 474 bng 19 250 50 0 empty empty empty 0 -10 0 12 #fcfcfc #000000 #000000;
#X obj 1553 535 s O;
#X obj 1569 560 s kotak;
#X obj 1585 583 s sgTiga;
#X obj 1601 394 tgl 19 0 empty empty empty 0 -10 0 12 #fcfcfc #000000 #000000 0 1;
#X obj 1617 421 tgl 19 0 empty empty empty 0 -10 0 12 #fcfcfc #000000 #000000 0 1;
#X obj 1633 445 tgl 19 0 empty empty empty 0 -10 0 12 #fcfcfc #000000 #000000 0 1;
#X obj 1650 469 tgl 19 0 empty empty empty 0 -10 0 12 #fcfcfc #000000 #000000 0 1;
#X obj 1601 511 s L1;
#X obj 1617 536 s L2;
#X obj 1633 560 s R1;
#X obj 1650 583 s R2;
#X obj 445 605 select 0 1 2 3 4 5 6 7 8 9 10 11 12 13 14 15, f 78;
#X obj 445 504 cyclone/counter 15;
#X obj 585 637 bng 19 250 50 0 empty empty empty 0 -10 0 12 #fcfcfc #000000 #000000;
#X obj 615 636 bng 19 250 50 0 empty empty empty 0 -10 0 12 #fcfcfc #000000 #000000;
#X obj 645 636 bng 19 250 50 0 empty empty empty 0 -10 0 12 #fcfcfc #000000 #000000;
#X obj 675 636 bng 19 250 50 0 empty empty empty 0 -10 0 12 #fcfcfc #000000 #000000;
#X obj 585 690 i;
#X floatatom 590 663 3 0 0 0 - - - 0;
#X obj 615 690 i;
#X floatatom 620 664 3 0 0 0 - - - 0;
#X obj 645 690 i;
#X floatatom 650 663 3 0 0 0 - - - 0;
#X obj 675 691 i;
#X floatatom 680 663 3 0 0 0 - - - 0;
#X obj 723 638 bng 19 250 50 0 empty empty empty 0 -10 0 12 #fcfcfc #000000 #000000;
#X obj 753 637 bng 19 250 50 0 empty empty empty 0 -10 0 12 #fcfcfc #000000 #000000;
#X obj 783 637 bng 19 250 50 0 empty empty empty 0 -10 0 12 #fcfcfc #000000 #000000;
#X obj 813 637 bng 19 250 50 0 empty empty empty 0 -10 0 12 #fcfcfc #000000 #000000;
#X obj 723 691 i;
#X floatatom 728 664 3 0 0 0 - - - 0;
#X obj 753 691 i;
#X floatatom 758 665 3 0 0 0 - - - 0;
#X obj 783 691 i;
#X floatatom 788 664 3 0 0 0 - - - 0;
#X obj 813 692 i;
#X floatatom 818 664 3 0 0 0 - - - 0;
#X obj 864 637 bng 19 250 50 0 empty empty empty 0 -10 0 12 #fcfcfc #000000 #000000;
#X obj 894 636 bng 19 250 50 0 empty empty empty 0 -10 0 12 #fcfcfc #000000 #000000;
#X obj 924 636 bng 19 250 50 0 empty empty empty 0 -10 0 12 #fcfcfc #000000 #000000;
#X obj 954 636 bng 19 250 50 0 empty empty empty 0 -10 0 12 #fcfcfc #000000 #000000;
#X obj 864 690 i;
#X floatatom 869 663 3 0 0 0 - - - 0;
#X obj 894 690 i;
#X floatatom 899 664 3 0 0 0 - - - 0;
#X obj 924 690 i;
#X floatatom 929 663 3 0 0 0 - - - 0;
#X obj 954 691 i;
#X floatatom 959 663 3 0 0 0 - - - 0;
#X obj 638 537 unpack 0 0 0 0 0 0 0 0 0 0 0 0 0 0 0 0;
#X msg 678 382 4 4 6 6 5 5 7 7 6 6 7 7 5 5 6 6;
#X msg 681 419 9 9 7 7 8 8 7 7 6 6 9 9 7 7 8 8;
#X msg 325 813 -1;
#X msg 360 814 1;
#X msg 55 845 1;
#X text 48 828 Wadon;
#X text 92 827 Lanang;
#X obj 628 252 hradio 19 1 0 3 empty empty empty 0 -10 0 18 #e3c6ff #000000 #000000 0;
#X obj 676 35 r kanan;
#X obj 594 36 r kiri;
#X floatatom 628 282 5 0 0 0 - - - 0;
#X floatatom 676 127 5 0 0 0 - - - 0;
#X obj 676 104 +;
#X msg 676 80 1;
#X floatatom 594 126 5 0 0 0 - - - 0;
#X obj 594 103 +;
#X msg 594 79 -1;
#X obj 628 225 spigot;
#X obj 667 179 expr if($f1 >= 0 && $f1 <= 2 \, 1 \, 0);
#X obj 667 202 tgl 19 0 empty empty empty 0 -10 0 12 #fcfcfc #000000 #000000 0 1;
#X obj 635 153 t i i;
#X obj 806 314 sel 0 1 2;
#X obj 694 1010 hsl 162 19 -1 1 0 0 empty empty empty -2 -10 0 12 #fcfcfc #000000 #000000 0 1;
#X obj 453 1034 gakoTungguh;
#X obj 631 981 loadbang;
#X msg 631 1007 0;
#X obj 244 852 loadbang;
#X msg 244 878 1;
#X text 488 1005 jublag;
#X obj 1124 1016 hsl 162 19 -1 1 0 0 empty empty empty -2 -10 0 12 #fcfcfc #000000 #000000 0 1;
#X obj 883 1040 gakoTungguh;
#X msg 1061 1013 0;
#X text 915 1010 jegog;
#X msg 174 878 4;
#X obj 300 1010 hsl 162 19 -1 1 0 0 empty empty empty -2 -10 0 12 #fcfcfc #000000 #000000 0 1;
#X obj 59 1034 gakoTungguh;
#X obj 178 981 loadbang;
#X obj 248 981 loadbang;
#X msg 248 1007 1;
#X obj 1002 987 loadbang;
#X msg 1002 1013 3;
#X floatatom 453 785 5 0 0 0 - - - 0;
#X obj 325 942 * 0.5;
#X obj 372 943 * 0.5;
#X floatatom 882 776 5 0 0 0 - - - 0;
#X obj 898 803 bng 19 250 50 0 empty empty empty 0 -10 0 12 #fcfcfc #000000 #000000;
#X obj 677 812 bng 19 250 50 0 empty empty empty 0 -10 0 12 #fcfcfc #000000 #000000;
#X obj 478 819 bng 19 250 50 0 empty empty empty 0 -10 0 12 #fcfcfc #000000 #000000;
#X msg 59 997 6;
#X text 106 1001 Kempur;
#X msg 178 1007 5;
#X obj 568 982 loadbang;
#X msg 568 1008 2;
#X obj 993 805 gakoNgempat;
#X msg 1067 776 10;
#X obj 1067 751 loadbang;
#X msg 1117 85 150;
#X text 613 480 TODO: take away... per gongan??????;
#X msg 94 845 2;
#X text 360 168 0: diam;
#X text 360 181 1: dong;
#X text 360 194 2: deng;
#X text 360 207 3: dung;
#X text 360 219 4: dang;
#X text 360 231 5: ding;
#X text 360 243 6: dong;
#X text 360 256 7: deng;
#X text 360 269 8: dung;
#X text 360 281 9: dang;
#X text 353 294 10: ding;
#X text 310 149 Gong kebyar: daun 10;
#X text 1103 776 Daun 10;
#X msg 928 380 150;
#X msg 1113 360 0.15;
#X msg 929 457 400;
#X connect 1 0 0 0;
#X connect 1 0 4 1;
#X connect 2 0 94 0;
#X connect 3 0 4 0;
#X connect 4 0 2 0;
#X connect 5 0 29 1;
#X connect 5 0 32 1;
#X connect 5 0 40 1;
#X connect 5 0 155 1;
#X connect 5 0 162 1;
#X connect 5 0 167 1;
#X connect 6 0 13 0;
#X connect 6 0 136 0;
#X connect 7 0 18 0;
#X connect 8 0 20 0;
#X connect 9 0 22 0;
#X connect 12 0 93 0;
#X connect 13 0 17 0;
#X connect 13 0 173 0;
#X connect 13 0 176 0;
#X connect 14 0 13 1;
#X connect 17 0 29 0;
#X connect 17 0 178 0;
#X connect 17 0 185 0;
#X connect 18 0 17 0;
#X connect 19 0 18 1;
#X connect 20 0 17 0;
#X connect 20 0 173 0;
#X connect 21 0 20 1;
#X connect 22 0 17 0;
#X connect 23 0 22 1;
#X connect 26 0 94 4;
#X connect 27 0 29 4;
#X connect 28 0 32 4;
#X connect 30 0 205 0;
#X connect 31 0 132 0;
#X connect 33 0 32 2;
#X connect 34 0 33 0;
#X connect 35 0 62 0;
#X connect 35 1 63 0;
#X connect 35 2 64 0;
#X connect 35 3 65 0;
#X connect 35 4 70 0;
#X connect 35 5 71 0;
#X connect 35 6 72 0;
#X connect 35 7 73 0;
#X connect 35 8 74 0;
#X connect 35 9 75 0;
#X connect 35 10 78 0;
#X connect 35 11 79 0;
#X connect 35 12 80 0;
#X connect 35 13 81 0;
#X connect 35 14 85 0;
#X connect 35 15 86 0;
#X connect 35 16 87 0;
#X connect 35 17 88 0;
#X connect 39 0 40 4;
#X connect 42 0 3 0;
#X connect 43 0 42 0;
#X connect 46 0 188 0;
#X connect 47 0 165 0;
#X connect 48 0 49 0;
#X connect 48 0 134 0;
#X connect 48 0 135 0;
#X connect 49 0 39 0;
#X connect 49 0 166 0;
#X connect 50 0 51 0;
#X connect 51 0 29 3;
#X connect 52 0 53 0;
#X connect 53 0 32 3;
#X connect 62 0 45 0;
#X connect 63 0 44 0;
#X connect 64 0 68 0;
#X connect 65 0 69 0;
#X connect 70 0 67 0;
#X connect 71 0 66 0;
#X connect 72 0 36 0;
#X connect 73 0 37 0;
#X connect 74 0 76 0;
#X connect 75 0 77 0;
#X connect 78 0 38 0;
#X connect 79 0 82 0;
#X connect 80 0 83 0;
#X connect 81 0 84 0;
#X connect 85 0 89 0;
#X connect 86 0 90 0;
#X connect 87 0 91 0;
#X connect 88 0 92 0;
#X connect 93 0 6 0;
#X connect 93 1 7 0;
#X connect 93 2 8 0;
#X connect 93 3 9 0;
#X connect 93 4 95 0;
#X connect 93 5 96 0;
#X connect 93 6 97 0;
#X connect 93 7 98 0;
#X connect 93 8 107 0;
#X connect 93 9 108 0;
#X connect 93 10 109 0;
#X connect 93 11 110 0;
#X connect 93 12 119 0;
#X connect 93 13 120 0;
#X connect 93 14 121 0;
#X connect 93 15 122 0;
#X connect 94 0 12 0;
#X connect 95 0 99 0;
#X connect 96 0 101 0;
#X connect 97 0 103 0;
#X connect 98 0 105 0;
#X connect 99 0 17 0;
#X connect 99 0 173 0;
#X connect 100 0 99 1;
#X connect 101 0 17 0;
#X connect 102 0 101 1;
#X connect 103 0 17 0;
#X connect 103 0 173 0;
#X connect 104 0 103 1;
#X connect 105 0 17 0;
#X connect 106 0 105 1;
#X connect 107 0 111 0;
#X connect 107 0 190 0;
#X connect 108 0 113 0;
#X connect 109 0 115 0;
#X connect 109 0 180 0;
#X connect 110 0 117 0;
#X connect 111 0 17 0;
#X connect 111 0 173 0;
#X connect 111 0 176 0;
#X connect 112 0 111 1;
#X connect 113 0 17 0;
#X connect 114 0 113 1;
#X connect 115 0 17 0;
#X connect 115 0 173 0;
#X connect 116 0 115 1;
#X connect 117 0 17 0;
#X connect 118 0 117 1;
#X connect 119 0 123 0;
#X connect 120 0 125 0;
#X connect 121 0 127 0;
#X connect 121 0 180 0;
#X connect 122 0 129 0;
#X connect 123 0 17 0;
#X connect 123 0 173 0;
#X connect 124 0 123 1;
#X connect 125 0 17 0;
#X connect 126 0 125 1;
#X connect 127 0 17 0;
#X connect 127 0 173 0;
#X connect 128 0 127 1;
#X connect 129 0 17 0;
#X connect 130 0 129 1;
#X connect 131 0 14 0;
#X connect 131 1 19 0;
#X connect 131 2 21 0;
#X connect 131 3 23 0;
#X connect 131 4 100 0;
#X connect 131 5 102 0;
#X connect 131 6 104 0;
#X connect 131 7 106 0;
#X connect 131 8 112 0;
#X connect 131 9 114 0;
#X connect 131 10 116 0;
#X connect 131 11 118 0;
#X connect 131 12 124 0;
#X connect 131 13 126 0;
#X connect 131 14 128 0;
#X connect 131 15 130 0;
#X connect 132 0 131 0;
#X connect 133 0 131 0;
#X connect 134 0 27 0;
#X connect 134 0 174 0;
#X connect 135 0 28 0;
#X connect 135 0 175 0;
#X connect 136 0 40 0;
#X connect 139 0 142 0;
#X connect 140 0 145 0;
#X connect 141 0 148 0;
#X connect 142 0 147 1;
#X connect 142 0 144 1;
#X connect 142 0 153 0;
#X connect 143 0 152 0;
#X connect 144 0 143 0;
#X connect 145 0 144 0;
#X connect 146 0 152 0;
#X connect 147 0 146 0;
#X connect 148 0 147 0;
#X connect 149 0 139 0;
#X connect 150 0 151 0;
#X connect 151 0 149 1;
#X connect 152 0 149 0;
#X connect 152 1 150 0;
#X connect 153 0 132 0;
#X connect 153 0 204 0;
#X connect 153 1 133 0;
#X connect 153 1 204 0;
#X connect 153 2 206 0;
#X connect 154 0 155 4;
#X connect 156 0 157 0;
#X connect 157 0 155 3;
#X connect 158 0 159 0;
#X connect 159 0 40 3;
#X connect 161 0 162 4;
#X connect 163 0 162 3;
#X connect 165 0 40 2;
#X connect 166 0 167 4;
#X connect 168 0 182 0;
#X connect 169 0 170 0;
#X connect 170 0 167 3;
#X connect 171 0 172 0;
#X connect 172 0 162 2;
#X connect 173 0 155 0;
#X connect 173 0 179 0;
#X connect 174 0 154 0;
#X connect 175 0 161 0;
#X connect 176 0 162 0;
#X connect 176 0 177 0;
#X connect 180 0 167 0;
#X connect 182 0 167 2;
#X connect 183 0 184 0;
#X connect 184 0 155 2;
#X connect 185 1 32 0;
#X connect 186 0 185 1;
#X connect 187 0 186 0;
#X connect 188 0 1 0;
#X connect 190 0 40 0;
#X connect 204 0 1 0;
#X connect 205 0 5 0;
#X connect 206 0 1 0;
