#N canvas 224 224 1920 976 12;
#X floatatom 1117 296 5 0 0 0 - - - 0;
#X obj 1117 124 vsl 19 162 20 2000 0 0 empty empty Kecepatan 0 -9 0 12 #c6ffc7 #000000 #000000 0 1;
#X obj 1114 401 vsl 19 162 0 1 0 0 empty empty volume 0 -9 0 12 #c6ffc7 #000000 #000000 0 1;
#X obj 1113 333 loadbang;
#X obj 1117 55 loadbang;
#X msg 1117 85 150;
#X msg 1113 360 0.15;
#X obj 892 787 hsl 162 19 -1 1 0 0 empty empty empty -2 -10 0 12 #fcfcfc #000000 #000000 0 1;
#X obj 651 817 gakoTungguh;
#X obj 770 734 loadbang;
#X msg 770 760 0;
#X obj 651 625 gakoMemanusiakan;
#X obj 650 387 metro 200;
#X obj 649 347 tgl 19 0 empty empty empty 0 -10 0 12 #fcfcfc #000000 #000000 0 1;
#X obj 651 420 bng 19 250 50 0 empty empty empty 0 -10 0 12 #fcfcfc #000000 #000000;
#X obj 651 454 random 11;
#X obj 851 461 random 1800;
#X obj 851 487 + 50;
#X floatatom 850 518 5 0 0 0 - - - 0;
#X obj 530 773 hsl 162 19 -1 1 0 0 empty empty empty -2 -10 0 12 #fcfcfc #000000 #000000 0 1;
#X obj 289 803 gakoTungguh;
#X obj 408 720 loadbang;
#X msg 408 746 1;
#X msg 443 746 2;
#X msg 478 747 -0.5;
#X msg 804 763 1;
#X msg 840 764 0.5;
#X obj 290 622 gakoMemanusiakan;
#X obj 290 491 random 11;
#X obj 291 411 metro 200;
#X obj 292 444 bng 19 250 50 0 empty empty empty 0 -10 0 12 #fcfcfc #000000 #000000;
#X floatatom 518 347 5 0 0 0 - - - 0;
#X obj 518 175 vsl 19 162 20 2000 0 0 empty empty Kecepatan 0 -9 0 12 #c6ffc7 #000000 #000000 0 1;
#X obj 518 106 loadbang;
#X msg 518 136 150;
#X obj 410 502 random 1800;
#X obj 410 528 + 50;
#X floatatom 409 559 5 0 0 0 - - - 0;
#X obj 1040 875 hsl 162 19 -1 1 0 0 empty empty empty -2 -10 0 12 #fcfcfc #000000 #000000 0 1;
#X obj 799 905 gakoTungguh;
#X obj 918 822 loadbang;
#X msg 918 848 0;
#X msg 952 851 1;
#X msg 988 852 0.5;
#X obj 664 882 hsl 162 19 -1 1 0 0 empty empty empty -2 -10 0 12 #fcfcfc #000000 #000000 0 1;
#X obj 423 912 gakoTungguh;
#X obj 542 829 loadbang;
#X msg 542 855 1;
#X msg 577 855 2;
#X msg 612 856 -0.5;
#X obj 850 542 * 0.25;
#X obj 408 586 * 0.25;
#X floatatom 651 485 5 0 0 0 - - - 0;
#X floatatom 290 522 5 0 0 0 - - - 0;
#X floatatom 177 609 5 0 0 0 - - - 0;
#X floatatom 753 566 5 0 0 0 - - - 0;
#X obj 177 578 * 0.07;
#X obj 754 535 * 0.07;
#X connect 0 0 12 1;
#X connect 1 0 0 0;
#X connect 2 0 11 2;
#X connect 2 0 27 2;
#X connect 3 0 6 0;
#X connect 4 0 5 0;
#X connect 5 0 1 0;
#X connect 6 0 2 0;
#X connect 7 0 8 4;
#X connect 9 0 10 0;
#X connect 9 0 25 0;
#X connect 9 0 26 0;
#X connect 10 0 8 2;
#X connect 11 0 8 0;
#X connect 11 1 8 1;
#X connect 11 1 39 1;
#X connect 12 0 14 0;
#X connect 13 0 12 0;
#X connect 13 0 29 0;
#X connect 14 0 15 0;
#X connect 14 0 16 0;
#X connect 15 0 52 0;
#X connect 16 0 17 0;
#X connect 17 0 18 0;
#X connect 18 0 1 0;
#X connect 18 0 50 0;
#X connect 19 0 20 4;
#X connect 21 0 22 0;
#X connect 21 0 23 0;
#X connect 21 0 24 0;
#X connect 22 0 20 2;
#X connect 23 0 20 3;
#X connect 24 0 19 0;
#X connect 25 0 8 3;
#X connect 26 0 7 0;
#X connect 27 0 20 0;
#X connect 27 1 20 1;
#X connect 27 1 45 1;
#X connect 28 0 53 0;
#X connect 29 0 30 0;
#X connect 30 0 28 0;
#X connect 30 0 35 0;
#X connect 31 0 29 1;
#X connect 32 0 31 0;
#X connect 33 0 34 0;
#X connect 34 0 32 0;
#X connect 35 0 36 0;
#X connect 36 0 37 0;
#X connect 37 0 32 0;
#X connect 37 0 51 0;
#X connect 38 0 39 4;
#X connect 40 0 41 0;
#X connect 40 0 42 0;
#X connect 40 0 43 0;
#X connect 41 0 39 2;
#X connect 42 0 39 3;
#X connect 43 0 38 0;
#X connect 44 0 45 4;
#X connect 46 0 47 0;
#X connect 46 0 48 0;
#X connect 46 0 49 0;
#X connect 47 0 45 2;
#X connect 48 0 45 3;
#X connect 49 0 44 0;
#X connect 50 0 27 1;
#X connect 51 0 11 1;
#X connect 52 0 39 0;
#X connect 52 0 11 0;
#X connect 52 0 57 0;
#X connect 53 0 45 0;
#X connect 53 0 27 0;
#X connect 53 0 56 0;
#X connect 54 0 11 3;
#X connect 55 0 27 3;
#X connect 56 0 54 0;
#X connect 57 0 55 0;
