#N canvas 2388 -518 2400 1245 12;
#X text 1173 299 cetak;
#X floatatom 1175 242 5 0 0 0 - - - 0;
#X obj 1175 72 vsl 19 162 20 2000 0 0 empty empty Kecepatan 0 -9 0 12 #c6ffc7 #000000 #000000 0 1;
#X text 1203 128 put/Vslider;
#X obj 412 176 bng 19 250 50 0 empty empty hooouuu! 0 -10 0 12 #00faff #faff00 #000000;
#X text 439 179 bang!;
#X obj 414 74 tgl 19 0 empty empty empty 0 -10 0 12 #fcfcfc #000000 #000000 0 1;
#X obj 414 102 metro 1000;
#X obj 1310 61 vsl 19 162 0 1 0 0 empty empty volume 0 -9 0 12 #c6ffc7 #000000 #000000 0 1;
#X obj 1175 278 print;
#X obj 412 269 select 0 1 2 3 4, f 22;
#X obj 412 299 bng 19 250 50 0 empty empty empty 0 -10 0 12 #fcfcfc #000000 #000000;
#X obj 442 298 bng 19 250 50 0 empty empty empty 0 -10 0 12 #fcfcfc #000000 #000000;
#X obj 472 298 bng 19 250 50 0 empty empty empty 0 -10 0 12 #fcfcfc #000000 #000000;
#X obj 502 298 bng 19 250 50 0 empty empty empty 0 -10 0 12 #fcfcfc #000000 #000000;
#X obj 532 298 bng 19 250 50 0 empty empty empty 0 -10 0 12 #fcfcfc #000000 #000000;
#X msg 1175 33 200;
#X text 492 105 Berapa milidetik;
#X text 371 262 Pilih;
#X text 541 30 DATA;
#X floatatom 412 244 5 0 0 0 - - - 0;
#X obj 412 211 cyclone/counter 4;
#X obj 412 352 i;
#X floatatom 430 327 5 0 0 0 - - - 0;
#X text 350 351 integer;
#X text 452 243 Kotak angka;
#X text 1171 318 hitung;
#X floatatom 556 592 5 0 0 0 - - - 0;
#X obj 442 352 i;
#X floatatom 472 328 5 0 0 0 - - - 0;
#X obj 472 352 i;
#X floatatom 513 328 5 0 0 0 - - - 0;
#X obj 502 353 i;
#X floatatom 554 328 5 0 0 0 - - - 0;
#X text 45 459 ctl + d = duplikat;
#X obj 532 352 i;
#X floatatom 596 328 5 0 0 0 - - - 0;
#X obj 53 527 gakoNgempat;
#X floatatom 127 483 5 0 0 0 - - - 0;
#X text 585 862 polos;
#X text 829 863 sangsih;
#X obj 27 565 gakoKotek;
#X floatatom 909 344 5 0 0 0 - - - 0;
#X floatatom 651 135 5 0 0 0 - - - 0;
#X obj 485 885 hsl 162 19 -1 1 0 0 empty empty empty -2 -10 0 12 #fcfcfc #000000 #000000 0 1;
#X obj 741 885 hsl 162 19 -1 1 0 0 empty empty empty -2 -10 0 12 #fcfcfc #000000 #000000 0 1;
#X msg 612 219 2 10 9 4 8;
#X obj 612 253 unpack 0 0 0 0 0;
#X msg 701 221 3 4 5 9 8;
#X msg 909 319 10;
#X obj 909 295 loadbang;
#X text 24 118 !!! Ganti [gakoInstr] ke [gakoTungguh];
#X obj 660 911 gakoTungguh;
#X obj 405 912 gakoTungguh;
#X text 34 162 Hari ini:;
#X text 69 215 Kirim ke DAW;
#X text 69 245 Buat pola;
#X text 69 200 Bicara presentasi/pentas;
#X text 69 261 Diskusi;
#X text 69 230 Stik game (HID);
#X text 68 184 Overview GEM/Freeliner;
#X obj 1505 139 gakoHidMtech;
#X obj 1505 326 s select;
#X obj 1507 411 bng 19 250 50 0 empty empty empty 0 -10 0 12 #fcfcfc #000000 #000000;
#X obj 1507 374 r select;
#X obj 455 46 bng 19 250 50 0 empty empty empty 0 -10 0 12 #fcfcfc #000000 #000000;
#X obj 1572 326 s start;
#X obj 455 9 r start;
#X obj 1630 326 s stikKananY;
#X obj 1417 22 r stikKananY;
#X floatatom 1417 49 9 0 0 0 - - - 0;
#X obj 1417 75 cyclone/scale -1 1 0 1;
#X floatatom 1417 103 12 0 0 0 - - - 0;
#X text 951 341 Daun berapa;
#X obj 1640 431 r stikKananY;
#X floatatom 1640 462 9 0 0 0 - - - 0;
#X obj 1640 489 + 1;
#X floatatom 1640 549 5 0 0 0 - - - 0;
#X obj 1640 518 / 2;
#X text 1582 76 Skala;
#X obj 1632 395 s hid_X;
#X obj 1697 393 s hid_O;
#X obj 1763 392 s hid_L1;
#X obj 1838 392 s hid_L2;
#X obj 1911 393 s hid_R1;
#X obj 1984 394 s hid_R2;
#X text 24 131 !!! Update SC class;
#N canvas 128 128 1920 976 tentangDAW 0;
#X text 178 263 Ke DAW:;
#X text 89 311 ReaRoute;
#X text 70 285 Suara;
#X text 456 295 MIDI;
#X text 473 316 loopMIDI;
#X text 109 386 https://vb-audio.com/Cable/;
#X text 109 328 Boot SuperCollider dengan ASIO driver ReaRoute;
#X text 92 370 Virtual audio cabel (max 1);
#X text 110 344 Di Reaper \, pilih track input ReaRoute;
#X text 524 350 Buka loopMIDI;
#X text 524 365 Buka Pure Data;
#X text 524 380 Terima MIDI di DAW;
#X text 499 332 https://www.tobias-erichsen.de/software/loopmidi.html;
#X text 159 170 velocity;
#X floatatom 175 190 4 0 127 0 - - - 0;
#X floatatom 135 190 4 0 127 0 - - - 0;
#X text 57 191 nada MIDI;
#X listbox 135 58 20 0 0 0 - - - 0;
#X obj 135 223 noteout;
#X floatatom 216 190 5 0 0 0 - - - 0;
#X obj 135 90 unpack 0 0 0;
#X text 532 160 velocity;
#X floatatom 538 183 4 0 127 0 - - - 0;
#X floatatom 498 183 4 0 127 0 - - - 0;
#X text 427 185 nada MIDI;
#X listbox 498 61 20 0 0 0 - - - 0;
#X obj 498 216 noteout;
#X floatatom 579 183 5 0 0 0 - - - 0;
#X obj 498 93 unpack 0 0 0;
#X obj 498 156 + 36;
#X obj 135 151 + 36;
#X text 224 170 channel #1;
#X text 597 161 channel #2;
#X obj 175 151 cyclone/scale 0 1 0 127;
#X obj 538 142 cyclone/scale 0 1 0 127;
#X text 130 404 Boot SuperCollider dengan VB cable;
#X text 131 417 Di Reaper \, pilih driver VB cable;
#X text 881 219 OSC;
#X connect 14 0 18 1;
#X connect 15 0 18 0;
#X connect 17 0 20 0;
#X connect 19 0 18 2;
#X connect 20 0 30 0;
#X connect 20 1 33 0;
#X connect 20 2 19 0;
#X connect 22 0 26 1;
#X connect 23 0 26 0;
#X connect 25 0 28 0;
#X connect 27 0 26 2;
#X connect 28 0 29 0;
#X connect 28 1 34 0;
#X connect 28 2 27 0;
#X connect 29 0 23 0;
#X connect 30 0 15 0;
#X connect 33 0 14 0;
#X connect 34 0 22 0;
#X restore 39 47 pd tentangDAW;
#N canvas 160 160 1920 976 shortcut 0;
#X text 105 61 Ctl + 1;
#X obj 173 61 metro;
#X text 106 92 Ctl + 2;
#X text 230 63 Obyek;
#X text 232 92 Pesan;
#X text 107 124 Ctl + 3;
#X floatatom 174 123 5 0 0 0 - - - 0;
#X text 230 125 Kotak angka;
#X text 108 158 Ctl + 5;
#X text 169 156 comment;
#X text 231 155 Komentar;
#X msg 173 92;
#X text 54 199 Ctl + Shift + B;
#X obj 185 198 bng 19 250 50 0 empty empty empty 0 -10 0 12 #fcfcfc #000000 #000000;
#X text 236 198 Bang;
#X obj 185 232 tgl 19 0 empty empty empty 0 -10 0 12 #fcfcfc #000000 #000000 0 1;
#X text 54 235 Ctl + Shift + T;
#X text 227 240 Toggle;
#X text 124 359 Ctl + E;
#X text 193 366 Kunci/Sunting;
#X text 138 33 TERABASAN DASAR;
#X text 42 309 Ctl + C;
#X text 114 310 Salin;
#X text 42 331 Ctl + V;
#X text 115 329 Tempel;
#X text 205 308 Ctl + D;
#X text 280 308 Duplikat;
#X text 205 327 Ctl + S;
#X text 280 326 Simpan;
#X text 284 241 (Y/T);
#X text 191 351 Kursor/Tangan;
#X obj 18 270 hsl 162 19 0 127 0 0 empty empty empty -2 -10 0 12 #fcfcfc #000000 #000000 0 1;
#X text 198 270 Slider: Di menu "put";
#X text 227 184 (Lampu);
#X text 228 226 (Saklar);
#X text 193 289 Klik kanan untuk properties;
#X restore 39 19 pd shortcut;
#X text 1014 456 Pola;
#X text 1047 495 Sub-patch;
#X text 459 578 Nada sekarang;
#X floatatom 601 592 5 0 0 0 - - - 0;
#X text 621 569 Nada depan;
#X obj 654 443 bng 19 250 50 0 empty empty empty 0 -10 0 12 #fcfcfc #000000 #000000;
#X obj 684 442 bng 19 250 50 0 empty empty empty 0 -10 0 12 #fcfcfc #000000 #000000;
#X obj 714 442 bng 19 250 50 0 empty empty empty 0 -10 0 12 #fcfcfc #000000 #000000;
#X obj 744 442 bng 19 250 50 0 empty empty empty 0 -10 0 12 #fcfcfc #000000 #000000;
#X obj 774 442 bng 19 250 50 0 empty empty empty 0 -10 0 12 #fcfcfc #000000 #000000;
#X obj 654 496 i;
#X floatatom 672 471 5 0 0 0 - - - 0;
#X text 592 495 integer;
#X obj 684 496 i;
#X floatatom 714 472 5 0 0 0 - - - 0;
#X obj 714 496 i;
#X floatatom 755 472 5 0 0 0 - - - 0;
#X obj 744 497 i;
#X floatatom 796 472 5 0 0 0 - - - 0;
#X obj 774 496 i;
#X floatatom 838 472 5 0 0 0 - - - 0;
#X text 1047 510 Ambil data: ketukan \, nada sekarang \, nadadepan \, daun berapa;
#X obj 654 413 select 4 0 1 2 3, f 22;
#X text 617 198 Gending;
#X obj 1165 731 bng 19 250 50 0 empty empty hooouuu! 0 -10 0 12 #00faff #faff00 #000000;
#X text 1192 734 bang!;
#X obj 1165 668 tgl 19 0 empty empty empty 0 -10 0 12 #fcfcfc #000000 #000000 0 1;
#X obj 1165 824 select 0 1 2 3 4, f 22;
#X obj 1165 854 bng 19 250 50 0 empty empty empty 0 -10 0 12 #fcfcfc #000000 #000000;
#X obj 1195 853 bng 19 250 50 0 empty empty empty 0 -10 0 12 #fcfcfc #000000 #000000;
#X obj 1225 853 bng 19 250 50 0 empty empty empty 0 -10 0 12 #fcfcfc #000000 #000000;
#X obj 1255 853 bng 19 250 50 0 empty empty empty 0 -10 0 12 #fcfcfc #000000 #000000;
#X obj 1285 853 bng 19 250 50 0 empty empty empty 0 -10 0 12 #fcfcfc #000000 #000000;
#X text 1243 699 Berapa milidetik;
#X text 1124 817 Pilih;
#X floatatom 1165 799 5 0 0 0 - - - 0;
#X obj 1165 766 cyclone/counter 4;
#X obj 1165 907 i;
#X floatatom 1183 882 5 0 0 0 - - - 0;
#X text 1103 906 integer;
#X text 1205 798 Kotak angka;
#X obj 1195 907 i;
#X floatatom 1225 883 5 0 0 0 - - - 0;
#X obj 1225 907 i;
#X floatatom 1266 883 5 0 0 0 - - - 0;
#X obj 1255 908 i;
#X floatatom 1307 883 5 0 0 0 - - - 0;
#X obj 1285 907 i;
#X floatatom 1349 883 5 0 0 0 - - - 0;
#X floatatom 1478 595 5 0 0 0 - - - 0;
#X obj 1165 696 metro 250;
#X obj 1225 579 / 4;
#X floatatom 1225 612 5 0 0 0 - - - 0;
#X floatatom 1222 974 5 0 0 0 - - - 0;
#X obj 314 775 gakoTungguh;
#X obj 989 831 sel 0;
#X text 1048 522 Buat sekuens cepat;
#X text 1466 575 Ganti ke 3;
#X obj 396 740 hsl 162 19 -1 1 0 0 empty empty empty -2 -10 0 12 #fcfcfc #000000 #000000 0 1;
#X text 457 714 bantang gending;
#X connect 1 0 9 0;
#X connect 2 0 1 0;
#X connect 2 0 7 1;
#X connect 2 0 140 0;
#X connect 4 0 21 0;
#X connect 6 0 7 0;
#X connect 6 0 115 0;
#X connect 8 0 53 1;
#X connect 8 0 52 1;
#X connect 8 0 143 1;
#X connect 10 0 11 0;
#X connect 10 1 12 0;
#X connect 10 2 13 0;
#X connect 10 3 14 0;
#X connect 10 4 15 0;
#X connect 11 0 22 0;
#X connect 12 0 28 0;
#X connect 13 0 30 0;
#X connect 14 0 32 0;
#X connect 15 0 35 0;
#X connect 16 0 2 0;
#X connect 20 0 10 0;
#X connect 20 0 111 0;
#X connect 21 0 20 0;
#X connect 22 0 27 0;
#X connect 23 0 22 1;
#X connect 27 0 143 0;
#X connect 28 0 27 0;
#X connect 29 0 28 1;
#X connect 30 0 27 0;
#X connect 31 0 30 1;
#X connect 32 0 27 0;
#X connect 33 0 32 1;
#X connect 35 0 27 0;
#X connect 36 0 35 1;
#X connect 38 0 37 1;
#X connect 43 0 21 4;
#X connect 44 0 53 4;
#X connect 45 0 52 4;
#X connect 46 0 47 0;
#X connect 47 0 23 0;
#X connect 47 0 100 0;
#X connect 47 1 29 0;
#X connect 47 1 103 0;
#X connect 47 2 31 0;
#X connect 47 2 105 0;
#X connect 47 3 33 0;
#X connect 47 3 107 0;
#X connect 47 4 36 0;
#X connect 47 4 109 0;
#X connect 48 0 47 0;
#X connect 49 0 42 0;
#X connect 50 0 49 0;
#X connect 61 0 62 0;
#X connect 61 1 66 0;
#X connect 61 5 68 0;
#X connect 61 10 80 0;
#X connect 61 11 81 0;
#X connect 61 14 82 0;
#X connect 61 15 83 0;
#X connect 61 16 84 0;
#X connect 61 17 85 0;
#X connect 64 0 63 0;
#X connect 65 0 6 0;
#X connect 67 0 65 0;
#X connect 69 0 70 0;
#X connect 70 0 71 0;
#X connect 71 0 72 0;
#X connect 72 0 8 0;
#X connect 74 0 75 0;
#X connect 75 0 76 0;
#X connect 76 0 78 0;
#X connect 78 0 77 0;
#X connect 94 0 99 0;
#X connect 95 0 102 0;
#X connect 96 0 104 0;
#X connect 97 0 106 0;
#X connect 98 0 108 0;
#X connect 99 0 92 0;
#X connect 100 0 99 1;
#X connect 102 0 92 0;
#X connect 103 0 102 1;
#X connect 104 0 92 0;
#X connect 105 0 104 1;
#X connect 106 0 92 0;
#X connect 107 0 106 1;
#X connect 108 0 92 0;
#X connect 109 0 108 1;
#X connect 111 0 94 0;
#X connect 111 1 95 0;
#X connect 111 2 96 0;
#X connect 111 3 97 0;
#X connect 111 4 98 0;
#X connect 113 0 125 0;
#X connect 115 0 139 0;
#X connect 116 0 117 0;
#X connect 116 1 118 0;
#X connect 116 2 119 0;
#X connect 116 3 120 0;
#X connect 116 4 121 0;
#X connect 117 0 126 0;
#X connect 118 0 130 0;
#X connect 119 0 132 0;
#X connect 120 0 134 0;
#X connect 121 0 136 0;
#X connect 124 0 116 0;
#X connect 124 0 144 0;
#X connect 125 0 124 0;
#X connect 126 0 142 0;
#X connect 127 0 126 1;
#X connect 130 0 142 0;
#X connect 131 0 130 1;
#X connect 132 0 142 0;
#X connect 133 0 132 1;
#X connect 134 0 142 0;
#X connect 135 0 134 1;
#X connect 136 0 142 0;
#X connect 137 0 136 1;
#X connect 138 0 125 4;
#X connect 139 0 113 0;
#X connect 140 0 141 0;
#X connect 141 0 139 1;
#X connect 142 0 53 0;
#X connect 144 0 4 0;
#X connect 147 0 143 4;
