#N canvas 2668 1198 1920 976 12;
#X declare - lib hidio;
#X obj 55 319 hidio;
#X text 106 319 [hidio];
#X obj 31 25 declare - lib hidio;
#X floatatom 278 381 5 0 0 1 value - - 0;
#X symbolatom 128 393 15 0 0 1 event_code - - 0;
#X symbolatom 55 416 15 0 0 1 event_type - - 0;
#X obj 55 354 unpack symbol symbol float float;
#X floatatom 194 375 2 0 0 1 instance - - 0;
#X obj 588 430 tgl 25 0 empty empty empty 0 -6 0 8 #14e814 #000000 #000000 0 25;
#X text 121 248 print a list of devices to the Pd window;
#X msg 147 231 devices;
#X msg 142 263 elements;
#X text 109 286 print a list of elements for the current device;
#X msg 150 183 refresh;
#X text 142 205 refresh device list;
#X msg 79 214 open 3;
#N canvas 162 133 570 420 serin 0;
#X obj 286 61 cnv 15 30 15 empty \$0-open-canvas 3 4 8 0 14 #e0e0e0 #000000 0;
#X obj 60 61 hradio 15 1 1 15 empty empty empty 0 -6 0 8 #d8fcd8 #000000 #000000 3;
#X obj 60 13 inlet;
#X msg 200 202 label \$1;
#X obj 200 180 makefilename %d;
#X obj 59 108 int;
#X obj 59 337 outlet;
#X msg 201 306 set \$1 \$2;
#X obj 59 266 trigger bang anything;
#X obj 201 286 list;
#X msg 60 210 open \$1;
#X obj 200 225 send \$0-open-canvas;
#X connect 1 0 5 0;
#X connect 2 0 1 0;
#X connect 3 0 11 0;
#X connect 4 0 3 0;
#X connect 5 0 4 0;
#X connect 5 0 10 0;
#X connect 7 0 6 0;
#X connect 8 0 6 0;
#X connect 8 1 9 0;
#X connect 9 0 7 0;
#X connect 10 0 8 0;
#X coords 0 -1 1 1 257 17 1 60 60;
#X restore 587 473 pd serin;
#X obj 673 402 vsl 10 50 255 0 0 0 empty empty empty 0 -9 0 12 #fcfcfc #000000 #000000 0 1;
#X obj 515 642 sel y;
#X msg 360 687 1;
#X msg 393 687 0;
#X obj 361 655 sel x;
#X obj 652 459 hsl 50 10 0 255 0 0 empty empty empty -2 -10 0 12 #fcfcfc #000000 #000000 0 1;
#X obj 479 713 i;
#X obj 327 717 i;
#X obj 327 901 outlet;
#X obj 479 908 outlet;
#X obj 327 801 expr ($f1 * 2) - 1;
#X obj 479 796 expr (($f1 * -1) * 2) +1;
#X obj 113 466 s HID_eventCode;
#X obj 265 467 s HID_value;
#X obj 345 592 r HID_value;
#X obj 361 616 r HID_eventCode;
#X obj 497 590 r HID_value;
#X obj 515 615 r HID_eventCode;
#X text 331 881 stik kiri X;
#X text 487 888 stik kiri Y;
#X obj 479 764 * 0.00392157;
#X obj 327 769 * 0.00392157;
#X obj 194 685 sel button_10;
#X obj 234 618 r HID_value;
#X obj 188 594 r HID_eventCode;
#X msg 194 778 1;
#X msg 225 778 0;
#X obj 188 806 spigot;
#X obj 188 755 sel 1;
#X obj 714 400 bng 19 250 50 0 empty empty empty 0 -10 0 12 #fcfcfc #000000 #000000;
#X obj 188 912 outlet;
#X text 197 891 Tombol start;
#X obj 513 708 metro 10;
#X msg 514 678 1;
#X msg 548 679 0;
#X obj 360 717 metro 10;
#X obj 188 646 f;
#X obj 188 618 t b s;
#X text 346 563 Stik kiri X;
#X text 497 562 Stik kiri Y;
#X text 189 555 Tombal start;
#X obj 739 402 vsl 10 50 255 0 0 0 empty empty empty 0 -9 0 12 #fcfcfc #000000 #000000 0 1;
#X obj 813 723 i;
#X obj 813 910 outlet;
#X obj 813 797 expr (($f1 * -1) * 2) +1;
#X obj 831 606 r HID_value;
#X obj 848 631 r HID_eventCode;
#X obj 813 765 * 0.00392157;
#X obj 846 724 metro 10;
#X msg 847 694 1;
#X msg 881 695 0;
#X msg 697 687 1;
#X msg 730 687 0;
#X obj 718 459 hsl 50 10 0 255 0 0 empty empty empty -2 -10 0 12 #fcfcfc #000000 #000000 0 1;
#X obj 662 718 i;
#X obj 662 915 outlet;
#X obj 662 798 expr ($f1 * 2) - 1;
#X obj 680 591 r HID_value;
#X obj 698 616 r HID_eventCode;
#X obj 662 766 * 0.00392157;
#X obj 697 717 metro 10;
#X text 679 562 Stik kanan X;
#X text 833 579 Stik kanan Y;
#X obj 698 655 sel z;
#X obj 848 658 sel rz;
#X obj 1070 630 r HID_value;
#X obj 1023 603 r HID_eventCode;
#X msg 1131 714 1;
#X msg 1162 711 0;
#X obj 1016 785 spigot;
#X obj 610 402 bng 19 250 50 0 empty empty empty 0 -10 0 12 #fcfcfc #000000 #000000;
#X obj 1016 927 outlet;
#X obj 1024 658 f;
#X obj 1024 630 t b s;
#X text 1037 576 Tombol +;
#X obj 1131 685 sel hatswitch;
#X obj 1024 714 sel 6 2 0 4;
#X obj 1072 786 spigot;
#X obj 649 402 bng 19 250 50 0 empty empty empty 0 -10 0 12 #fcfcfc #000000 #000000;
#X obj 1133 739 tgl 19 0 empty empty empty 0 -10 0 12 #fcfcfc #000000 #000000 0 1;
#X obj 1046 759 spigot;
#X obj 629 383 bng 19 250 50 0 empty empty empty 0 -10 0 12 #fcfcfc #000000 #000000;
#X obj 1048 810 spigot;
#X obj 630 421 bng 19 250 50 0 empty empty empty 0 -10 0 12 #fcfcfc #000000 #000000;
#X obj 1067 927 outlet;
#X text 1024 908 KIRI;
#X text 1073 906 KANAN;
#X obj 1122 928 outlet;
#X obj 1174 928 outlet;
#X text 1128 905 ATAS;
#X text 1174 910 BAWAH;
#X obj 1381 329 r HID_value;
#X obj 1334 302 r HID_eventCode;
#X msg 1341 489 1;
#X msg 1372 489 0;
#X obj 1302 520 spigot;
#X obj 1674 924 outlet;
#X obj 1335 357 f;
#X obj 1335 329 t b s;
#X text 1674 905 Tombol L1;
#X obj 1341 396 sel button_5;
#X obj 586 380 tgl 19 0 empty empty empty 0 -10 0 12 #fcfcfc #000000 #000000 0 1;
#X obj 1523 325 r HID_value;
#X obj 1476 298 r HID_eventCode;
#X msg 1483 485 1;
#X msg 1514 485 0;
#X obj 1444 516 spigot;
#X obj 1760 926 outlet;
#X obj 1477 353 f;
#X obj 1477 325 t b s;
#X obj 606 361 tgl 19 0 empty empty empty 0 -10 0 12 #fcfcfc #000000 #000000 0 1;
#X obj 1483 392 sel button_7;
#X text 1760 907 Tombol L2;
#X obj 1677 325 r HID_value;
#X obj 1630 298 r HID_eventCode;
#X msg 1637 485 1;
#X msg 1668 485 0;
#X obj 1598 516 spigot;
#X obj 1840 927 outlet;
#X obj 1631 353 f;
#X obj 1631 325 t b s;
#X obj 816 378 tgl 19 0 empty empty empty 0 -10 0 12 #fcfcfc #000000 #000000 0 1;
#X obj 1819 320 r HID_value;
#X obj 1772 293 r HID_eventCode;
#X msg 1779 480 1;
#X msg 1810 480 0;
#X obj 1740 511 spigot;
#X obj 1909 927 outlet;
#X obj 1773 348 f;
#X obj 1773 320 t b s;
#X obj 797 359 tgl 19 0 empty empty empty 0 -10 0 12 #fcfcfc #000000 #000000 0 1;
#X obj 1637 392 sel button_6;
#X obj 1779 387 sel button_8;
#X text 1837 905 Tombol R1;
#X text 1913 905 Tombol R2;
#X text 1336 266 Tombol L1;
#X text 1478 263 Tombol L2;
#X text 1632 262 Tombol R1;
#X text 1774 258 Tombol R2;
#X obj 1335 603 r HID_value;
#X obj 1288 576 r HID_eventCode;
#X msg 1295 763 1;
#X msg 1326 763 0;
#X obj 1256 794 spigot;
#X obj 1240 761 sel 1;
#X obj 773 420 bng 19 250 50 0 empty empty empty 0 -10 0 12 #fcfcfc #000000 #000000;
#X obj 1256 930 outlet;
#X obj 1289 631 f;
#X obj 1289 603 t b s;
#X obj 1295 670 sel button_3;
#X obj 1477 608 r HID_value;
#X obj 1430 581 r HID_eventCode;
#X msg 1437 768 1;
#X msg 1468 768 0;
#X obj 1398 799 spigot;
#X obj 1382 766 sel 1;
#X obj 793 400 bng 19 250 50 0 empty empty empty 0 -10 0 12 #fcfcfc #000000 #000000;
#X obj 1321 927 outlet;
#X obj 1431 636 f;
#X obj 1431 608 t b s;
#X text 1323 905 Tombol O;
#X text 1434 557 Tombol O;
#X obj 1632 611 r HID_value;
#X obj 1585 584 r HID_eventCode;
#X msg 1592 771 1;
#X msg 1623 771 0;
#X obj 1553 802 spigot;
#X obj 1537 769 sel 1;
#X obj 753 400 bng 19 250 50 0 empty empty empty 0 -10 0 12 #fcfcfc #000000 #000000;
#X obj 1398 926 outlet;
#X obj 1586 639 f;
#X obj 1586 611 t b s;
#X obj 1775 611 r HID_value;
#X obj 1728 584 r HID_eventCode;
#X msg 1735 771 1;
#X msg 1766 771 0;
#X obj 1696 802 spigot;
#X obj 1680 769 sel 1;
#X obj 773 381 bng 19 250 50 0 empty empty empty 0 -10 0 12 #fcfcfc #000000 #000000;
#X obj 1482 925 outlet;
#X obj 1729 639 f;
#X obj 1729 611 t b s;
#X obj 1437 675 sel button_2;
#X text 1292 552 Tombol X;
#X text 1258 908 Tombol X;
#X text 1388 904 Tombol Kotak;
#X text 1589 560 Tombol Kotak;
#X obj 1592 678 sel button_4;
#X text 1732 560 Tombol SgTiga;
#X obj 1735 678 sel button_1;
#X text 1482 902 Tombol SgTiga;
#X obj 55 138 inlet;
#X text 33 114 Ke object [hidio];
#X text 587 454 Device;
#X obj 95 614 r HID_value;
#X obj 49 590 r HID_eventCode;
#X msg 55 774 1;
#X msg 86 774 0;
#X obj 49 802 spigot;
#X obj 49 751 sel 1;
#X obj 49 908 outlet;
#X obj 49 642 f;
#X obj 49 614 t b s;
#X text 50 551 Tombal select;
#X obj 55 681 sel button_9;
#X obj 690 400 bng 19 250 50 0 empty empty empty 0 -10 0 12 #fcfcfc #000000 #000000;
#X text 58 888 Tombol select;
#X text 688 373 M-TECH;
#X text 324 31 Mengkoneksikan stik game M-TECH;
#X text 326 47 *Unduh perpustakaan hidio dulu*;
#X text 891 314 TODO: initialise buttons select \, start \, pour qu'ils puissent starter direct.la en ouvrant le patch ca prend une shot avant qu'ils commencent;
#X text 666 895 stik kanan X;
#X text 821 890 stik kanan Y;
#X text 938 111 v.2023-01-13;
#X text 937 127 Diedit oleh Sarah Lecompte-Bergeron;
#X text 1151 173 released under the GNU GPL;
#X text 1357 160 $Revision: 1.6 $$Date: 2007-07-26 07:31:38 $;
#X text 1358 173 $Author: eighthave $;
#X text 934 159 (C) Copyright 2004 Hans-Christoph Steiner <hans@at.or.at>;
#X text 937 142 Dari contoh library hidio hidio-help.pd;
#X connect 0 0 6 0;
#X connect 6 0 5 0;
#X connect 6 1 4 0;
#X connect 6 1 29 0;
#X connect 6 2 7 0;
#X connect 6 3 3 0;
#X connect 6 3 30 0;
#X connect 8 0 0 0;
#X connect 10 0 0 0;
#X connect 11 0 0 0;
#X connect 13 0 0 0;
#X connect 15 0 0 0;
#X connect 16 0 15 0;
#X connect 17 0 37 0;
#X connect 18 0 50 0;
#X connect 18 1 51 0;
#X connect 19 0 52 0;
#X connect 20 0 52 0;
#X connect 21 0 19 0;
#X connect 21 1 20 0;
#X connect 22 0 38 0;
#X connect 23 0 17 0;
#X connect 24 0 22 0;
#X connect 27 0 25 0;
#X connect 28 0 26 0;
#X connect 31 0 24 1;
#X connect 32 0 21 0;
#X connect 33 0 23 1;
#X connect 34 0 18 0;
#X connect 37 0 28 0;
#X connect 38 0 27 0;
#X connect 39 0 42 0;
#X connect 39 1 43 0;
#X connect 40 0 53 1;
#X connect 41 0 54 0;
#X connect 42 0 44 1;
#X connect 43 0 44 1;
#X connect 44 0 46 0;
#X connect 45 0 44 0;
#X connect 46 0 47 0;
#X connect 49 0 23 0;
#X connect 50 0 49 0;
#X connect 51 0 49 0;
#X connect 52 0 24 0;
#X connect 53 0 45 0;
#X connect 54 0 53 0;
#X connect 54 1 39 0;
#X connect 58 0 64 0;
#X connect 59 0 58 0;
#X connect 61 0 60 0;
#X connect 62 0 59 1;
#X connect 63 0 81 0;
#X connect 64 0 61 0;
#X connect 65 0 59 0;
#X connect 66 0 65 0;
#X connect 67 0 65 0;
#X connect 68 0 77 0;
#X connect 69 0 77 0;
#X connect 70 0 76 0;
#X connect 71 0 70 0;
#X connect 73 0 72 0;
#X connect 74 0 71 1;
#X connect 75 0 80 0;
#X connect 76 0 73 0;
#X connect 77 0 71 0;
#X connect 80 0 68 0;
#X connect 80 1 69 0;
#X connect 81 0 66 0;
#X connect 81 1 67 0;
#X connect 82 0 89 1;
#X connect 83 0 90 0;
#X connect 84 0 96 0;
#X connect 85 0 96 0;
#X connect 86 0 87 0;
#X connect 87 0 88 0;
#X connect 89 0 93 0;
#X connect 90 0 89 0;
#X connect 90 1 92 0;
#X connect 92 0 84 0;
#X connect 92 1 85 0;
#X connect 93 0 86 0;
#X connect 93 1 94 0;
#X connect 93 2 97 0;
#X connect 93 3 99 0;
#X connect 94 0 95 0;
#X connect 95 0 101 0;
#X connect 96 0 86 1;
#X connect 96 0 94 1;
#X connect 96 0 97 1;
#X connect 96 0 99 1;
#X connect 97 0 98 0;
#X connect 98 0 104 0;
#X connect 99 0 100 0;
#X connect 100 0 105 0;
#X connect 108 0 114 1;
#X connect 109 0 115 0;
#X connect 110 0 112 1;
#X connect 111 0 112 1;
#X connect 112 0 118 0;
#X connect 114 0 112 0;
#X connect 115 0 114 0;
#X connect 115 1 117 0;
#X connect 117 0 110 0;
#X connect 117 1 111 0;
#X connect 118 0 113 0;
#X connect 119 0 125 1;
#X connect 120 0 126 0;
#X connect 121 0 123 1;
#X connect 122 0 123 1;
#X connect 123 0 127 0;
#X connect 125 0 123 0;
#X connect 126 0 125 0;
#X connect 126 1 128 0;
#X connect 127 0 124 0;
#X connect 128 0 121 0;
#X connect 128 1 122 0;
#X connect 130 0 136 1;
#X connect 131 0 137 0;
#X connect 132 0 134 1;
#X connect 133 0 134 1;
#X connect 134 0 138 0;
#X connect 136 0 134 0;
#X connect 137 0 136 0;
#X connect 137 1 148 0;
#X connect 138 0 135 0;
#X connect 139 0 145 1;
#X connect 140 0 146 0;
#X connect 141 0 143 1;
#X connect 142 0 143 1;
#X connect 143 0 147 0;
#X connect 145 0 143 0;
#X connect 146 0 145 0;
#X connect 146 1 149 0;
#X connect 147 0 144 0;
#X connect 148 0 132 0;
#X connect 148 1 133 0;
#X connect 149 0 141 0;
#X connect 149 1 142 0;
#X connect 156 0 164 1;
#X connect 157 0 165 0;
#X connect 158 0 160 1;
#X connect 159 0 160 1;
#X connect 160 0 162 0;
#X connect 161 0 160 0;
#X connect 162 0 163 0;
#X connect 164 0 161 0;
#X connect 165 0 164 0;
#X connect 165 1 166 0;
#X connect 166 0 158 0;
#X connect 166 1 159 0;
#X connect 167 0 175 1;
#X connect 168 0 176 0;
#X connect 169 0 171 1;
#X connect 170 0 171 1;
#X connect 171 0 173 0;
#X connect 172 0 171 0;
#X connect 173 0 174 0;
#X connect 175 0 172 0;
#X connect 176 0 175 0;
#X connect 176 1 199 0;
#X connect 179 0 187 1;
#X connect 180 0 188 0;
#X connect 181 0 183 1;
#X connect 182 0 183 1;
#X connect 183 0 185 0;
#X connect 184 0 183 0;
#X connect 185 0 186 0;
#X connect 187 0 184 0;
#X connect 188 0 187 0;
#X connect 188 1 204 0;
#X connect 189 0 197 1;
#X connect 190 0 198 0;
#X connect 191 0 193 1;
#X connect 192 0 193 1;
#X connect 193 0 195 0;
#X connect 194 0 193 0;
#X connect 195 0 196 0;
#X connect 197 0 194 0;
#X connect 198 0 197 0;
#X connect 198 1 206 0;
#X connect 199 0 169 0;
#X connect 199 1 170 0;
#X connect 204 0 181 0;
#X connect 204 1 182 0;
#X connect 206 0 191 0;
#X connect 206 1 192 0;
#X connect 208 0 8 0;
#X connect 208 0 0 0;
#X connect 211 0 218 1;
#X connect 212 0 219 0;
#X connect 213 0 215 1;
#X connect 214 0 215 1;
#X connect 215 0 222 0;
#X connect 216 0 215 0;
#X connect 218 0 216 0;
#X connect 219 0 218 0;
#X connect 219 1 221 0;
#X connect 221 0 213 0;
#X connect 221 1 214 0;
#X connect 222 0 217 0;
#X coords 0 -1 1 1 280 160 1 570 340;
