#N canvas 214 0 1501 1246 12;
#X text 1055 321 cetak;
#X floatatom 1057 265 5 0 0 0 - - - 0;
#X obj 1057 94 vsl 19 162 20 2000 0 0 empty empty Kecepatan 0 -9 0 12 #c6ffc7 #000000 #000000 0 1;
#X text 1085 150 put/Vslider;
#X obj 587 434 bng 19 250 50 0 empty empty hooouuu! 0 -10 0 12 #00faff #faff00 #000000;
#X text 614 437 bang!;
#X obj 587 373 tgl 19 0 empty empty START 0 -10 0 12 #00ff04 #000000 #000000 0 1;
#X obj 587 399 metro 1000;
#X obj 1057 462 vsl 19 162 0 1 0 0 empty empty volume 0 -9 0 12 #c6ffc7 #000000 #000000 0 1;
#X obj 1057 300 print;
#X floatatom 44 607 5 0 0 0 - - - 0;
#X obj 587 527 select 0 1 2 3 4, f 22;
#X obj 587 557 bng 19 250 50 0 empty empty empty 0 -10 0 12 #fcfcfc #000000 #000000;
#X obj 617 556 bng 19 250 50 0 empty empty empty 0 -10 0 12 #fcfcfc #000000 #000000;
#X obj 647 556 bng 19 250 50 0 empty empty empty 0 -10 0 12 #fcfcfc #000000 #000000;
#X obj 677 556 bng 19 250 50 0 empty empty empty 0 -10 0 12 #fcfcfc #000000 #000000;
#X obj 707 556 bng 19 250 50 0 empty empty empty 0 -10 0 12 #fcfcfc #000000 #000000;
#X text 86 609 Kotak angka;
#X msg 1057 55 200;
#X text 666 402 Berapa milidetik;
#X text 546 520 Pilih;
#X text 118 61 Ctl + 1;
#X obj 186 61 metro;
#X text 119 92 Ctl + 2;
#X text 243 63 Obyek;
#X text 245 92 Pesan;
#X text 120 124 Ctl + 3;
#X floatatom 187 123 5 0 0 0 - - - 0;
#X text 243 125 Kotak angka;
#X text 121 158 Ctl + 5;
#X text 182 156 comment;
#X text 244 155 Komentar;
#X msg 186 92;
#X text 67 199 Ctl + Shift + B;
#X obj 198 198 bng 19 250 50 0 empty empty empty 0 -10 0 12 #fcfcfc #000000 #000000;
#X text 249 198 Bang;
#X obj 198 232 tgl 19 0 empty empty empty 0 -10 0 12 #fcfcfc #000000 #000000 0 1;
#X text 67 235 Ctl + Shift + T;
#X text 240 240 Toggle;
#X text 137 359 Ctl + E;
#X text 206 366 Kunci/Sunting;
#X text 151 33 TERABASAN DASAR;
#X text 55 309 Ctl + C;
#X text 127 310 Salin;
#X text 55 331 Ctl + V;
#X text 128 329 Tempel;
#X text 218 308 Ctl + D;
#X text 293 308 Duplikat;
#X text 218 327 Ctl + S;
#X text 293 326 Simpan;
#X text 297 241 (Y/T);
#X text 204 351 Kursor/Tangan;
#X obj 31 270 hsl 162 19 0 127 0 0 empty empty empty -2 -10 0 12 #fcfcfc #000000 #000000 0 1;
#X text 211 270 Slider: Di menu "put";
#X text 240 184 (Lampu);
#X text 241 226 (Saklar);
#X text 206 289 Klik kanan untuk properties;
#X obj 44 581 gakoHitung;
#X floatatom 111 555 5 0 0 0 - - - 0;
#X floatatom 587 502 5 0 0 0 - - - 0;
#X obj 587 469 cyclone/counter 4;
#X obj 587 610 i;
#X floatatom 605 585 5 0 0 0 - - - 0;
#X text 525 609 integer;
#X text 627 501 Kotak angka;
#X text 1053 340 hitung;
#X floatatom 650 669 5 0 0 0 - - - 0;
#X obj 617 610 i;
#X floatatom 647 586 5 0 0 0 - - - 0;
#X obj 647 610 i;
#X floatatom 688 586 5 0 0 0 - - - 0;
#X obj 677 611 i;
#X floatatom 729 586 5 0 0 0 - - - 0;
#X text 150 397 ctl + d = duplikat;
#X obj 707 610 i;
#X floatatom 771 586 5 0 0 0 - - - 0;
#X obj 196 606 gakoNgempat;
#X floatatom 270 562 5 0 0 0 - - - 0;
#X text 570 875 polos;
#X text 1038 839 sangsih;
#X obj 454 714 gakoKotek;
#X floatatom 847 675 5 0 0 0 - - - 0;
#X floatatom 703 440 5 0 0 0 - - - 0;
#X obj 695 883 hsl 162 19 -1 1 0 0 empty empty empty -2 -10 0 12 #fcfcfc #000000 #000000 0 1;
#X obj 1088 885 hsl 162 19 -1 1 0 0 empty empty empty -2 -10 0 12 #fcfcfc #000000 #000000 0 1;
#X msg 787 477 2 10 9 4 8;
#X obj 787 511 unpack 0 0 0 0 0;
#X msg 876 477 3 4 5 9 8;
#X msg 847 650 10;
#X obj 847 626 loadbang;
#X obj 454 907 gakoTungguh;
#X msg 1056 421 0.5;
#X obj 1056 394 loadbang;
#X obj 787 445 loadbang;
#X obj 847 915 gakoTungguh;
#X msg 966 886 1;
#X obj 966 860 loadbang;
#X obj 1184 153 gakoHidMtech;
#X obj 1280 332 s kiri;
#X obj 1336 333 s kanan;
#X obj 545 46 r kiri;
#X obj 598 45 r kanan;
#X obj 455 273 i;
#X obj 540 275 i;
#X obj 1242 366 s stikKananY;
#X obj 842 8 r stikKananY;
#X obj 842 58 cyclone/scale -1 1 20 2000;
#X obj 1347 365 s X;
#X obj 981 116 r X;
#X obj 981 148 i;
#X msg 545 91 0;
#X msg 598 90 1;
#X floatatom 575 118 5 0 0 0 - - - 0;
#X obj 558 219 spigot;
#X obj 597 194 tgl 19 0 empty empty empty 0 -10 0 12 #fcfcfc #000000 #000000 0 1;
#X floatatom 558 244 5 0 0 0 - - - 0;
#X obj 512 165 == 0;
#X obj 512 189 tgl 19 0 empty empty empty 0 -10 0 12 #fcfcfc #000000 #000000 0 1;
#X obj 473 216 spigot;
#X floatatom 473 241 5 0 0 0 - - - 0;
#X obj 316 690 r X;
#X msg 316 715 6;
#X text 232 671 Bermain dengan pencet tombol;
#X text 710 177 Tombol X keluarkan nilai yang disimpan di [i];
#X text 600 21 Stik kanan mengkontrol kecepatan;
#X text 370 21 SIMPAN KECEPATAN PER BAGIAN;
#X text 554 173 Buka/Tutup pintu;
#X obj 312 1016 hsl 162 19 -1 1 0 0 empty empty empty -2 -10 0 12 #fcfcfc #000000 #000000 0 1;
#X obj 71 1040 gakoTungguh;
#X text 311 982 Gong;
#X msg 958 477 2 7 8 9 10;
#X obj 445 347 bng 19 250 50 0 empty empty empty 0 -10 0 12 #fcfcfc #000000 #000000;
#X obj 445 318 r start;
#X obj 1184 434 s nasi;
#X obj 1200 334 s start;
#X obj 1232 434 s bungkus;
#X obj 1162 504 r select;
#X obj 1162 538 bng 19 250 50 0 empty empty empty 0 -10 0 12 #fcfcfc #000000 #000000;
#X obj 1163 364 s select;
#X text 896 676 Daun berapa;
#X obj 1057 25 loadbang;
#X obj 190 987 loadbang;
#X msg 190 1013 2;
#X obj 309 802 loadbang;
#X msg 309 828 0;
#X obj 1135 366 bng 19 250 50 0 empty empty empty 0 -10 0 12 #fcfcfc #000000 #000000;
#X floatatom 842 34 5 0 0 0 - - - 0;
#X obj 632 811 loadbang;
#X msg 632 837 1;
#X obj 1025 787 loadbang;
#X msg 1025 813 2;
#X text 999 977 0: Pengumbang + Pengisep;
#X text 999 991 1: Pengumbang;
#X text 999 1004 2: Pengisep;
#X text 757 911 Pan;
#X text 735 931 -1: kiri;
#X text 742 946 1: kanan;
#X connect 1 0 9 0;
#X connect 1 0 109 1;
#X connect 2 0 1 0;
#X connect 2 0 7 1;
#X connect 4 0 60 0;
#X connect 6 0 7 0;
#X connect 7 0 4 0;
#X connect 8 0 90 1;
#X connect 8 0 94 1;
#X connect 8 0 128 1;
#X connect 11 0 12 0;
#X connect 11 1 13 0;
#X connect 11 2 14 0;
#X connect 11 3 15 0;
#X connect 11 4 16 0;
#X connect 12 0 61 0;
#X connect 13 0 67 0;
#X connect 14 0 69 0;
#X connect 15 0 71 0;
#X connect 16 0 74 0;
#X connect 18 0 2 0;
#X connect 57 0 10 0;
#X connect 58 0 57 2;
#X connect 59 0 11 0;
#X connect 59 0 80 0;
#X connect 60 0 59 0;
#X connect 61 0 66 0;
#X connect 61 0 128 0;
#X connect 62 0 61 1;
#X connect 66 0 76 0;
#X connect 66 0 80 1;
#X connect 67 0 66 0;
#X connect 68 0 67 1;
#X connect 69 0 66 0;
#X connect 70 0 69 1;
#X connect 71 0 66 0;
#X connect 72 0 71 1;
#X connect 74 0 66 0;
#X connect 75 0 74 1;
#X connect 77 0 76 1;
#X connect 80 0 90 0;
#X connect 80 1 94 0;
#X connect 81 0 80 2;
#X connect 82 0 60 4;
#X connect 83 0 90 4;
#X connect 84 0 94 4;
#X connect 85 0 86 0;
#X connect 86 0 62 0;
#X connect 86 1 68 0;
#X connect 86 2 70 0;
#X connect 86 3 72 0;
#X connect 86 4 75 0;
#X connect 87 0 86 0;
#X connect 88 0 81 0;
#X connect 89 0 88 0;
#X connect 91 0 8 0;
#X connect 92 0 91 0;
#X connect 93 0 85 0;
#X connect 95 0 94 2;
#X connect 96 0 95 0;
#X connect 97 0 133 0;
#X connect 97 0 138 0;
#X connect 97 0 145 0;
#X connect 97 1 134 0;
#X connect 97 3 104 0;
#X connect 97 3 135 0;
#X connect 97 6 98 0;
#X connect 97 7 99 0;
#X connect 97 10 107 0;
#X connect 100 0 85 0;
#X connect 100 0 102 0;
#X connect 100 0 110 0;
#X connect 101 0 87 0;
#X connect 101 0 103 0;
#X connect 101 0 111 0;
#X connect 102 0 2 0;
#X connect 103 0 2 0;
#X connect 105 0 146 0;
#X connect 106 0 2 0;
#X connect 108 0 109 0;
#X connect 109 0 113 0;
#X connect 109 0 118 0;
#X connect 110 0 112 0;
#X connect 111 0 112 0;
#X connect 112 0 114 0;
#X connect 112 0 116 0;
#X connect 113 0 115 0;
#X connect 114 0 113 1;
#X connect 115 0 103 1;
#X connect 116 0 117 0;
#X connect 117 0 118 1;
#X connect 118 0 119 0;
#X connect 119 0 102 1;
#X connect 120 0 121 0;
#X connect 121 0 90 0;
#X connect 127 0 128 4;
#X connect 130 0 86 0;
#X connect 131 0 6 0;
#X connect 132 0 131 0;
#X connect 136 0 137 0;
#X connect 140 0 18 0;
#X connect 141 0 142 0;
#X connect 142 0 128 2;
#X connect 143 0 144 0;
#X connect 144 0 127 0;
#X connect 144 0 83 0;
#X connect 144 0 84 0;
#X connect 146 0 106 0;
#X connect 147 0 148 0;
#X connect 148 0 90 3;
#X connect 149 0 150 0;
#X connect 150 0 94 3;
