#N canvas 717 347 425 475 12;
#X text 84 61 Ctl + 1;
#X obj 173 61 metro;
#X text 85 92 Ctl + 2;
#X text 267 62 Obyek;
#X text 269 91 Pesan;
#X text 86 124 Ctl + 3;
#X floatatom 174 123 5 0 0 0 - - - 0;
#X text 267 124 Kotak angka;
#X text 87 158 Ctl + 5;
#X text 169 156 comment;
#X text 268 154 Komentar;
#X msg 173 92;
#X text 31 199 Ctl + Shift + B;
#X obj 185 198 bng 19 250 50 0 empty empty empty 0 -10 0 12 #fcfcfc #000000 #000000;
#X text 273 197 Bang;
#X obj 185 232 tgl 19 0 empty empty empty 0 -10 0 12 #fcfcfc #000000 #000000 0 1;
#X text 31 235 Ctl + Shift + T;
#X text 264 239 Toggle;
#X text 120 354 Ctl + E;
#X text 189 361 Kunci/Sunting;
#X text 140 14 TERABASAN DASAR;
#X text 58 380 Ctl + C;
#X text 130 381 Salin;
#X text 58 402 Ctl + V;
#X text 131 400 Tempel;
#X text 221 379 Ctl + D;
#X text 296 379 Duplikat;
#X text 221 398 Ctl + S;
#X text 296 397 Simpan;
#X text 321 240 (Y/T);
#X text 187 346 Kursor/Tangan;
#X obj 22 293 hsl 162 19 0 127 0 0 empty empty empty -2 -10 0 12 #fcfcfc #000000 #000000 0 1;
#X text 202 293 Slider: Di menu "put";
#X text 264 183 (Lampu);
#X text 265 225 (Saklar);
#X text 197 312 Klik kanan untuk properties;
