#N canvas 1105 238 450 432 12;
#X obj 124 362 dac~;
#X text 50 384 Digital ke audio konverter;
#X obj 123 234 osc~;
#X obj 123 285 *~;
#X text 166 234 ~ Tilde \, untuk gelombang bunyi;
#X obj 297 24 vsl 19 162 0 1 0 0 empty empty empty 0 -9 0 12 #fcfcfc #000000 #000000 0 1;
#X text 329 143 Kontrol geser;
#X text 172 284 Amplitudo (volume);
#X text 172 300 Diantara 0 dan 1;
#X floatatom 297 196 5 0 0 0 - - - 0;
#X floatatom 123 194 5 0 0 0 - - - 0;
#X text 174 192 Frequensi (Hz);
#X text 165 47 GELOMBANG;
#X msg 15 88 \; pd dsp 1 \;;
#X msg 17 153 \; pd dsp 0 \;;
#X text 14 68 Klik untuk hidupkan;
#X text 14 132 Klik untuk matikan;
#X connect 2 0 3 0;
#X connect 3 0 0 0;
#X connect 3 0 0 1;
#X connect 5 0 9 0;
#X connect 9 0 3 1;
#X connect 10 0 2 0;
