#N canvas 2815 -65 1236 638 12;
#X obj 330 449 dac~;
#X text 256 471 Digital ke audio konverter;
#X obj 329 321 osc~;
#X obj 329 372 *~;
#X text 372 321 ~ Tilde \, untuk gelombang bunyi;
#X obj 627 168 vsl 19 162 0 1 0 0 empty empty empty 0 -9 0 12 #fcfcfc #000000 #000000 0 1;
#X text 659 287 Kontrol geser;
#X text 378 371 Amplitudo (volume);
#X text 378 387 Diantara 0 dan 1;
#X floatatom 627 340 5 0 0 0 - - - 0;
#X floatatom 329 281 5 0 0 0 - - - 0;
#X obj 127 215 bng 15 250 50 0 empty empty empty 17 7 0 10 #fcfcfc #000000 #000000;
#X obj 184 215 bng 15 250 50 0 empty empty empty 17 7 0 10 #fcfcfc #000000 #000000;
#X floatatom 81 177 5 0 0 0 - - - 0;
#X obj 127 79 tgl 15 0 empty empty empty 17 7 0 10 #fcfcfc #000000 #000000 0 1;
#X obj 127 118 metro 200;
#X obj 127 177 sel 0 1 2 3 4 5 6 7, f 66;
#X obj 127 142 cyclone/counter 7;
#X obj 241 215 bng 15 250 50 0 empty empty empty 17 7 0 10 #fcfcfc #000000 #000000;
#X obj 299 214 bng 15 250 50 0 empty empty empty 17 7 0 10 #fcfcfc #000000 #000000;
#X obj 356 215 bng 15 250 50 0 empty empty empty 17 7 0 10 #fcfcfc #000000 #000000;
#X obj 413 215 bng 15 250 50 0 empty empty empty 17 7 0 10 #fcfcfc #000000 #000000;
#X obj 471 215 bng 15 250 50 0 empty empty empty 17 7 0 10 #fcfcfc #000000 #000000;
#X obj 528 214 bng 15 250 50 0 empty empty empty 17 7 0 10 #fcfcfc #000000 #000000;
#X text 245 121 **Unduh perpustakaan "cyclone";
#X msg 528 236 55;
#X msg 184 237 233;
#X msg 241 239 488;
#X msg 299 238 237;
#X msg 356 238 532;
#X msg 413 237 486;
#X msg 471 237 560;
#X floatatom 187 79 5 0 0 0 - - - 0;
#X text 436 156 Pilihan angka (select);
#X text 61 26 GELOMBANG + METRO + PERPUSTAKAAN + SEL + LOADBANG;
#X obj 627 103 loadbang;
#X msg 627 128 0.1;
#X text 553 83 Kirim Bang saat membuka patch;
#X text 259 137 Bantuan/menginstal obyek tambahan;
#X msg 44 384 \; pd dsp 1 \;;
#X msg 46 449 \; pd dsp 0 \;;
#X text 43 364 Klik untuk hidupkan;
#X text 43 428 Klik untuk matikan;
#X obj 860 194 gakoHidMtech;
#X obj 860 382 bng 19 250 50 0 empty empty empty 0 -10 0 12 #fcfcfc #000000 #000000;
#X text 849 167 Klik kanan dan buka untuk melihat outlet;
#X obj 876 410 bng 19 250 50 0 empty empty empty 0 -10 0 12 #fcfcfc #000000 #000000;
#X obj 127 237 i;
#X floatatom 903 379 10 0 0 0 - - - 0;
#X text 845 146 **Unduh perpustakaan hidio;
#X obj 903 495 cyclone/scale -1 1 200 600;
#X floatatom 903 526 9 0 0 0 - - - 0;
#X floatatom 127 269 5 0 0 0 - - - 0;
#X floatatom 984 412 10 0 0 0 - - - 0;
#X floatatom 984 559 9 0 0 0 - - - 0;
#X obj 984 526 cyclone/scale 1 -1 50 400;
#X text 380 279 Frekuensi (Hz);
#X text 131 42 + HID + ABSTRAKSI + GANTI FREK;
#X text 39 579 Tambah ide \, pertanyaan \, dll;
#X connect 2 0 3 0;
#X connect 3 0 0 0;
#X connect 3 0 0 1;
#X connect 5 0 9 0;
#X connect 9 0 3 1;
#X connect 10 0 2 0;
#X connect 11 0 47 0;
#X connect 12 0 26 0;
#X connect 14 0 15 0;
#X connect 15 0 17 0;
#X connect 16 0 11 0;
#X connect 16 1 12 0;
#X connect 16 2 18 0;
#X connect 16 3 19 0;
#X connect 16 4 20 0;
#X connect 16 5 21 0;
#X connect 16 6 22 0;
#X connect 16 7 23 0;
#X connect 17 0 13 0;
#X connect 17 0 16 0;
#X connect 18 0 27 0;
#X connect 19 0 28 0;
#X connect 20 0 29 0;
#X connect 21 0 30 0;
#X connect 22 0 31 0;
#X connect 23 0 25 0;
#X connect 25 0 10 0;
#X connect 26 0 10 0;
#X connect 27 0 10 0;
#X connect 28 0 10 0;
#X connect 29 0 10 0;
#X connect 30 0 10 0;
#X connect 31 0 10 0;
#X connect 32 0 15 1;
#X connect 35 0 36 0;
#X connect 36 0 5 0;
#X connect 43 0 44 0;
#X connect 43 1 46 0;
#X connect 43 2 48 0;
#X connect 43 3 53 0;
#X connect 47 0 10 0;
#X connect 47 0 52 0;
#X connect 48 0 50 0;
#X connect 50 0 51 0;
#X connect 51 0 47 1;
#X connect 53 0 55 0;
#X connect 54 0 32 0;
#X connect 55 0 54 0;
