#N canvas 3204 -316 760 839 12;
#X text 361 334 ctl + 1;
#X text 314 354 cetak;
#X text 368 352 obyek;
#X text 361 252 ctl + 2;
#X text 366 268 pesan;
#X text 420 114 ctl + e;
#X text 412 133 tangan ke kursor;
#X msg 316 254 mai;
#X floatatom 223 248 5 0 0 0 - - - 0;
#X obj 223 78 vsl 19 162 20 2000 0 0 empty empty Kecepatan 0 -9 0 12 #c6ffc7 #000000 #000000 0 1;
#X text 251 134 put/Vslider;
#X obj 89 305 bng 19 250 50 0 empty empty hooouuu! 0 -10 0 12 #00faff #faff00 #000000;
#X text 82 324 ctl + shift + b;
#X text 37 104 ctl + 5;
#X text 116 308 bang!;
#X text 29 190 saklar;
#X text 28 204 Toggle;
#X text 29 220 ctl + shift + t;
#X obj 89 242 tgl 19 0 empty empty empty 0 -10 0 12 #fcfcfc #000000 #000000 0 1;
#X obj 89 270 metro 1000;
#X obj 439 687 osc~;
#X obj 439 766 dac~;
#X text 365 790 Digital to audio converter;
#X text 489 731 volume;
#X text 473 684 gelombang (suara);
#X msg 439 619 500;
#X text 467 619 Hz;
#X obj 439 732 *~ 0.2;
#X text 360 515 Output: media \, lalu DSP ON;
#X msg 494 617 400;
#X obj 606 535 vsl 19 162 0 1 0 0 empty empty volume 0 -9 0 12 #c6ffc7 #000000 #000000 0 1;
#X text 528 616 ctl + 2;
#X obj 316 333 print;
#X floatatom 89 380 5 0 0 0 - - - 0;
#X text 131 375 ctl + 3;
#X obj 89 351 cyclone/counter 4;
#X obj 89 443 select 0 1 2 3 4, f 22;
#X obj 89 505 bng 19 250 50 0 empty empty empty 0 -10 0 12 #fcfcfc #000000 #000000;
#X obj 119 504 bng 19 250 50 0 empty empty empty 0 -10 0 12 #fcfcfc #000000 #000000;
#X obj 149 504 bng 19 250 50 0 empty empty empty 0 -10 0 12 #fcfcfc #000000 #000000;
#X obj 179 504 bng 19 250 50 0 empty empty empty 0 -10 0 12 #fcfcfc #000000 #000000;
#X obj 209 504 bng 19 250 50 0 empty empty empty 0 -10 0 12 #fcfcfc #000000 #000000;
#X msg 288 622 666;
#X msg 347 621 888;
#X msg 388 619 922;
#X msg 606 168 0;
#X obj 606 133 select 0 1;
#X obj 639 169 t b b;
#X msg 671 199 0.2;
#X msg 639 200 1;
#X obj 606 79 tgl 35 0 empty empty Hidup/Mati 0 -10 0 20 #00ff04 #faff00 #000000 0 1;
#X text 34 90 Komentar;
#X text 134 391 Kotak angka;
#X text 532 602 Pesan;
#X text 303 595 frekuensi (nada \, tingginya);
#X msg 223 39 200;
#X text 168 273 Berapa milidetik;
#X text 216 352 Hitung;
#X text 283 7 Unduh perpustakaan: help \, cari ekstra \, install di folder extra;
#X text 261 443 Pilih;
#X connect 7 0 32 0;
#X connect 8 0 32 0;
#X connect 9 0 8 0;
#X connect 9 0 19 1;
#X connect 11 0 35 0;
#X connect 18 0 19 0;
#X connect 19 0 11 0;
#X connect 20 0 27 0;
#X connect 25 0 20 0;
#X connect 27 0 21 0;
#X connect 27 0 21 1;
#X connect 29 0 20 0;
#X connect 30 0 27 1;
#X connect 33 0 36 0;
#X connect 35 0 33 0;
#X connect 36 0 37 0;
#X connect 36 1 38 0;
#X connect 36 2 39 0;
#X connect 36 3 40 0;
#X connect 36 4 41 0;
#X connect 37 0 42 0;
#X connect 38 0 43 0;
#X connect 39 0 44 0;
#X connect 40 0 25 0;
#X connect 41 0 29 0;
#X connect 42 0 20 0;
#X connect 43 0 20 0;
#X connect 44 0 20 0;
#X connect 45 0 30 0;
#X connect 45 0 18 0;
#X connect 46 0 45 0;
#X connect 46 1 47 0;
#X connect 47 0 49 0;
#X connect 47 1 48 0;
#X connect 48 0 30 0;
#X connect 49 0 18 0;
#X connect 50 0 46 0;
#X connect 55 0 9 0;
